<?xml version="1.0" encoding="UTF-8" standalone="no"?>
<svg width="351px" height="322px" viewBox="0 0 351 322" version="1.1" xmlns="http://www.w3.org/2000/svg" xmlns:xlink="http://www.w3.org/1999/xlink" xmlns:sketch="http://www.bohemiancoding.com/sketch/ns">
    <!-- Generator: Sketch 3.3.1 (12002) - http://www.bohemiancoding.com/sketch -->
    <title>Artboard</title>
    <desc>Created with Sketch.</desc>
    <defs>
        <linearGradient x1="50%" y1="0%" x2="50%" y2="100%" id="linearGradient-1">
            <stop stop-color="#FFCF09" offset="0%"></stop>
            <stop stop-color="#D7AE05" offset="99.416%"></stop>
        </linearGradient>
        <linearGradient x1="50%" y1="1.326%" x2="50%" y2="98.521%" id="linearGradient-2">
            <stop stop-color="#FFEB00" offset="0%"></stop>
            <stop stop-color="#FFCD00" offset="100%"></stop>
        </linearGradient>
        <linearGradient x1="50%" y1="0%" x2="50%" y2="100%" id="linearGradient-3">
            <stop stop-color="#FAF9FA" offset="0%"></stop>
            <stop stop-color="#EEEEEE" offset="100%"></stop>
        </linearGradient>
        <linearGradient x1="50%" y1="0%" x2="50%" y2="100%" id="linearGradient-4">
            <stop stop-color="#D8D8D8" offset="0%"></stop>
            <stop stop-color="#C1C1C1" offset="100%"></stop>
        </linearGradient>
    </defs>
    <g id="Page-1" stroke="none" stroke-width="1" fill="none" fill-rule="evenodd" sketch:type="MSPage">
        <g id="Artboard" sketch:type="MSArtboardGroup">
            <g id="sprite" sketch:type="MSLayerGroup" transform="translate(0.000000, -3.000000)">
                <g id="accord_minus" transform="translate(139.000000, 242.000000)" fill="#767676" sketch:type="MSShapeGroup">
                    <path d="M0,2 L0,0 L12,0 L12,2 L0,2 L0,2 Z" id="Shape"></path>
                </g>
                <g id="accord_plus" transform="translate(336.000000, 262.000000)" fill="#767676" sketch:type="MSShapeGroup">
                    <path d="M12,6.857 L6.857,6.857 L6.857,12 L5.143,12 L5.143,6.857 L0,6.857 L0,5.143 L5.143,5.143 L5.143,0 L6.857,0 L6.857,5.143 L12,5.143 L12,6.857 L12,6.857 Z" id="Shape"></path>
                </g>
                <g id="action_icon" transform="translate(0.000000, 279.000000)" fill="#FFCD00" sketch:type="MSShapeGroup">
                    <path d="M0.88,2.832 C0.88,2.034 1.173,1.366 1.76,0.827 C2.348,0.287 3.15,0.02 4.17,0.02 C5.195,0.02 6.002,0.286 6.59,0.822 C7.177,1.358 7.47,2.028 7.47,2.832 L7.47,3.552 C7.47,4.349 7.177,5.014 6.59,5.547 C6.002,6.079 5.202,6.347 4.19,6.347 C3.165,6.347 2.357,6.079 1.766,5.547 C1.174,5.014 0.88,4.35 0.88,3.55 L0.88,2.832 L0.88,2.832 Z M2.684,3.552 C2.684,3.95 2.814,4.288 3.074,4.565 C3.334,4.843 3.707,4.981 4.191,4.981 C4.661,4.981 5.023,4.845 5.276,4.571 C5.529,4.297 5.656,3.957 5.656,3.551 L5.656,2.833 C5.656,2.428 5.526,2.085 5.266,1.805 C5.006,1.525 4.641,1.385 4.171,1.385 C3.693,1.385 3.326,1.525 3.071,1.805 C2.814,2.085 2.685,2.428 2.685,2.833 L2.685,3.553 L2.684,3.552 Z M8.358,10.486 C8.358,9.696 8.653,9.029 9.244,8.491 C9.834,7.953 10.637,7.683 11.648,7.683 C12.674,7.683 13.48,7.951 14.068,8.487 C14.656,9.023 14.948,9.689 14.948,10.487 L14.948,11.217 C14.948,12.02 14.656,12.687 14.068,13.22 C13.48,13.752 12.681,14.02 11.67,14.02 C10.644,14.02 9.835,13.75 9.244,13.215 C8.654,12.679 8.358,12.012 8.358,11.215 L8.358,10.485 L8.358,10.486 Z M10.163,11.216 C10.163,11.614 10.297,11.953 10.563,12.234 C10.831,12.514 11.199,12.654 11.67,12.654 C12.168,12.654 12.538,12.519 12.78,12.248 C13.023,11.976 13.144,11.632 13.144,11.215 L13.144,10.485 C13.144,10.087 13.014,9.748 12.754,9.467 C12.494,9.187 12.124,9.047 11.648,9.047 C11.171,9.047 10.804,9.187 10.548,9.467 C10.291,9.747 10.163,10.087 10.163,10.487 L10.163,11.215 L10.163,11.216 Z M4.725,12.804 L3.39,12.13 L10.986,1.495 L12.321,2.168 L4.726,12.804 L4.725,12.804 Z" id="Shape"></path>
                </g>
                <g id="actions_icon" transform="translate(166.000000, 3.000000)" fill="#F6A623" sketch:type="MSShapeGroup">
                    <path d="M0,14 C0,21.7 6.3,28 14,28 C21.7,28 28,21.7 28,14 C28,6.3 21.7,0 14,0 C6.3,0 0,6.3 0,14 L0,14 Z M12.25,13.143 C11.754,13.64 11.154,13.888 10.448,13.888 C9.746,13.888 9.146,13.64 8.65,13.143 C8.153,12.646 7.905,12.047 7.905,11.345 C7.905,10.645 8.153,10.045 8.65,9.548 C9.146,9.051 9.746,8.802 10.448,8.802 C11.148,8.802 11.748,9.052 12.245,9.548 C12.742,10.044 12.991,10.644 12.991,11.345 C12.991,12.047 12.744,12.645 12.251,13.143 L12.25,13.143 Z M17.092,18.865 C16.39,18.865 15.792,18.617 15.294,18.12 C14.798,17.623 14.549,17.024 14.549,16.322 C14.549,15.616 14.797,15.015 15.293,14.522 C15.79,14.026 16.389,13.779 17.091,13.779 C17.793,13.779 18.391,14.026 18.889,14.523 C19.386,15.02 19.634,15.619 19.634,16.321 C19.634,17.023 19.386,17.621 18.889,18.119 C18.392,18.616 17.793,18.864 17.091,18.864 L17.092,18.865 Z M16.282,8.167 L18.032,8.167 L12.198,18.667 L10.448,18.667 L16.281,8.167 L16.282,8.167 Z M11.217,12.114 C11.429,11.904 11.535,11.646 11.535,11.344 C11.535,11.044 11.429,10.788 11.217,10.576 C11.005,10.364 10.747,10.258 10.447,10.258 C10.147,10.258 9.89,10.364 9.679,10.576 C9.466,10.788 9.359,11.046 9.359,11.346 C9.359,11.646 9.466,11.903 9.679,12.114 C9.889,12.326 10.146,12.432 10.447,12.432 C10.747,12.432 11.004,12.326 11.217,12.114 L11.217,12.114 Z M17.861,15.554 C17.651,15.341 17.394,15.234 17.093,15.234 C16.793,15.234 16.536,15.341 16.323,15.554 C16.113,15.764 16.006,16.021 16.006,16.322 C16.006,16.622 16.112,16.879 16.324,17.092 C16.536,17.302 16.792,17.409 17.094,17.409 C17.394,17.409 17.65,17.302 17.862,17.089 C18.075,16.879 18.182,16.622 18.182,16.321 C18.182,16.021 18.075,15.764 17.862,15.551 L17.861,15.554 Z" id="Shape"></path>
                </g>
                <g id="apps_icon" transform="translate(214.000000, 47.000000)" fill="#F6A623" sketch:type="MSShapeGroup">
                    <path d="M0,6 L6,6 L6,0 L0,0 L0,6 L0,6 Z M9,24 L15,24 L15,18 L9,18 L9,24 L9,24 Z M0,24 L6,24 L6,18 L0,18 L0,24 L0,24 Z M0,15 L6,15 L6,9 L0,9 L0,15 L0,15 Z M9,15 L15,15 L15,9 L9,9 L9,15 L9,15 Z M18,0 L18,6 L24,6 L24,0 L18,0 L18,0 Z M9,6 L15,6 L15,0 L9,0 L9,6 L9,6 Z M18,15 L24,15 L24,9 L18,9 L18,15 L18,15 Z M18,24 L24,24 L24,18 L18,18 L18,24 L18,24 Z" id="Shape"></path>
                </g>
                <g id="arrow" transform="translate(0.000000, 313.000000)" fill="#3C3C39" sketch:type="MSShapeGroup">
                    <path d="M2,0 L0.6,1.4 L5.2,6 L0.6,10.6 L2,12 L8,6 L2,0 L2,0 Z" id="Shape"></path>
                </g>
                <g id="arrow_back" transform="translate(336.000000, 228.000000)" fill="#FFCD00" sketch:type="MSShapeGroup">
                    <path d="M8.633,1.633 L7,0 L0,7 L7,14 L8.633,12.367 L3.267,7 L8.633,1.633 L8.633,1.633 Z" id="Shape"></path>
                </g>
                <g id="arrow_black" transform="translate(63.000000, 279.000000)" fill="#000000" sketch:type="MSShapeGroup">
                    <path d="M2,0 L0.6,1.4 L5.2,6 L0.6,10.6 L2,12 L8,6 L2,0 L2,0 Z" id="Shape"></path>
                </g>
                <g id="arrow_bottom" transform="translate(91.000000, 279.000000)" fill-opacity="0.7" fill="#000000" sketch:type="MSShapeGroup">
                    <path d="M1.41,0 L6,4.77 L10.59,0 L12,1.47 L6,7.72 L0,1.47 L1.41,0 L1.41,0 Z" id="Shape"></path>
                </g>
                <g id="cancel" transform="translate(258.000000, 119.000000)" fill="#000000" sketch:type="MSShapeGroup">
                    <path d="M10,0 C4.5,0 0,4.5 0,10 C0,15.5 4.5,20 10,20 C15.5,20 20,15.5 20,10 C20,4.5 15.5,0 10,0 L10,0 Z M15,13.6 L13.6,15 L10,11.4 L6.4,15 L5,13.6 L8.6,10 L5,6.4 L6.4,5 L10,8.6 L13.6,5 L15,6.4 L11.4,10 L15,13.6 L15,13.6 Z" id="Shape"></path>
                </g>
                <g id="cancel_close" transform="translate(258.000000, 159.000000)" fill="#000000" sketch:type="MSShapeGroup">
                    <path d="M10,0 C4.5,0 0,4.5 0,10 C0,15.5 4.5,20 10,20 C15.5,20 20,15.5 20,10 C20,4.5 15.5,0 10,0 L10,0 Z M15,13.6 L13.6,15 L10,11.4 L6.4,15 L5,13.6 L8.6,10 L5,6.4 L6.4,5 L10,8.6 L13.6,5 L15,6.4 L11.4,10 L15,13.6 L15,13.6 Z" id="Shape"></path>
                </g>
                <g id="cancel_small" transform="translate(336.000000, 3.000000)" fill="#000000" sketch:type="MSShapeGroup">
                    <path d="M7.5,0 C3.375,0 0,3.375 0,7.5 C0,11.625 3.375,15 7.5,15 C11.625,15 15,11.625 15,7.5 C15,3.375 11.625,0 7.5,0 L7.5,0 Z M11.25,10.2 L10.2,11.25 L7.5,8.55 L4.8,11.25 L3.75,10.2 L6.45,7.5 L3.75,4.8 L4.8,3.75 L7.5,6.45 L10.2,3.75 L11.25,4.8 L8.55,7.5 L11.25,10.2 L11.25,10.2 Z" id="Shape"></path>
                </g>
                <g id="car" transform="translate(44.000000, 154.000000)" fill="#3C3C39" sketch:type="MSShapeGroup">
                    <g id="Group">
                        <path d="M20.98,14 C20.468,14 20.053,13.57 20.053,13.043 C20.053,12.513 20.468,12.085 20.98,12.085 L22.147,12.085 L22.147,1.915 L9.947,1.915 L9.962,3.34 C9.966,3.68 9.795,3.997 9.512,4.172 L1.876,8.9 L1.859,12.085 L3.217,12.085 C3.729,12.085 4.144,12.515 4.144,13.043 C4.144,13.571 3.73,14 3.218,14 L0.928,14 C0.68,14 0.444,13.898 0.27,13.718 C0.096,13.538 0,13.292 0,13.038 L0.026,8.35 C0.026,8.015 0.198,7.706 0.476,7.534 L8.103,2.812 L8.083,0.968 C8.08,0.712 8.177,0.466 8.35,0.284 C8.526,0.102 8.763,0 9.01,0 L23.073,0 C23.585,0 24,0.43 24,0.957 L24,13.043 C24,13.571 23.585,14 23.073,14 L20.98,14 L20.98,14 Z" id="Shape"></path>
                        <path d="M9,12 L16,12 L16,14 L9,14 L9,12 Z M9,10 C8.448,10 8,9.596 8,9.097 L8,3.903 C8,3.403 8.448,3 9,3 C9.552,3 10,3.404 10,3.903 L10,9.097 C10,9.597 9.552,10 9,10 L9,10 Z M6,12 C5.45,12 5,12.45 5,13 C5,13.55 5.45,14 6,14 C6.55,14 7,13.55 7,13 C7,12.45 6.55,12 6,12 L6,12 Z M6,16 C4.346,16 3,14.654 3,13 C3,11.346 4.346,10 6,10 C7.654,10 9,11.346 9,13 C9,14.654 7.654,16 6,16 L6,16 Z M19,12 C18.45,12 18,12.45 18,13 C18,13.55 18.45,14 19,14 C19.55,14 20,13.55 20,13 C20,12.45 19.55,12 19,12 L19,12 Z M19,16 C17.346,16 16,14.654 16,13 C16,11.346 17.346,10 19,10 C20.654,10 22,11.346 22,13 C22,14.654 20.654,16 19,16 L19,16 Z" id="Shape"></path>
                    </g>
                </g>
                <g id="card_minus" transform="translate(336.000000, 206.000000)" fill-opacity="0.7" fill="#000000" opacity="0.254" sketch:type="MSShapeGroup">
                    <path d="M8,2 L0,2 L0,0 L14,0 L14,2 L8,2 L8,2 Z" id="Shape"></path>
                </g>
                <g id="card_plus" transform="translate(336.000000, 172.000000)" fill-opacity="0.7" fill="#000000" opacity="0.254" sketch:type="MSShapeGroup">
                    <path d="M8,8 L8,14 L6,14 L6,8 L0,8 L0,6 L6,6 L6,0 L8,0 L8,6 L14,6 L14,8 L8,8 L8,8 Z" id="Shape"></path>
                </g>
                <g id="card_triangle" transform="translate(214.000000, 3.000000)" sketch:type="MSShapeGroup">
                    <g id="Group">
                        <path d="M0,2.99 C0,1.34 1.342,0 2.99,0 L24,0 L0,24 L0,2.99 L0,2.99 Z" id="Shape" fill="#FFCD00"></path>
                        <path d="M6.17,9.89 L3.06,6.78 L2,7.83 L6.17,12 L15.117,3.05 L14.067,2 L6.168,9.89 L6.17,9.89 Z" id="Shape" fill="#FEFEFE"></path>
                    </g>
                </g>
                <g id="card_triangle_dis" transform="translate(214.000000, 135.000000)" sketch:type="MSShapeGroup">
                    <g id="Group">
                        <path d="M0,2.99 C0,1.34 1.342,0 2.99,0 L24,0 L0,24 L0,2.99 L0,2.99 Z" id="Shape" fill="#DADADA"></path>
                        <path d="M6.17,9.89 L3.06,6.78 L2,7.83 L6.17,12 L15.117,3.05 L14.067,2 L6.168,9.89 L6.17,9.89 Z" id="Shape" fill="#FEFEFE"></path>
                    </g>
                </g>
                <g id="cart_small" transform="translate(44.000000, 198.000000)" sketch:type="MSShapeGroup">
                    <g id="Group" transform="translate(11.000000, 10.000000) scale(-1, 1) translate(-11.000000, -10.000000) ">
                        <path d="M21.34,0.02 C21.307,0.022 21.272,0.025 21.24,0.03 L21.237,0.03 L17.875,0.575 C17.661,0.61 17.482,0.749 17.403,0.941 L17.403,0.944 L15.843,4.74 L0.618,5.1 C0.443,5.104 0.278,5.18 0.165,5.304 C0.051,5.429 -0.005,5.594 0.018,5.761 L0.858,12.361 C0.893,12.637 1.134,12.856 1.428,12.878 L12.281,13.698 L14.433,15.303 L14.441,15.309 L14.448,15.312 L14.456,15.318 C14.848,15.598 14.946,15.975 14.89,16.186 C14.858,16.306 14.81,16.394 14.695,16.462 C14.58,16.53 14.382,16.579 14.043,16.562 L14.039,16.562 C14.027,16.56 14.015,16.56 14.004,16.562 L14,16.562 L1.054,16.596 C0.712,16.594 0.426,16.866 0.427,17.188 C0.429,17.511 0.717,17.781 1.057,17.776 L2.004,17.774 C1.654,17.987 1.417,18.359 1.417,18.782 C1.417,19.439 1.984,19.977 2.677,19.977 C3.369,19.977 3.937,19.439 3.937,18.782 C3.937,18.357 3.7,17.982 3.345,17.769 L14.005,17.739 C13.621,17.946 13.359,18.336 13.359,18.782 C13.359,19.439 13.926,19.977 14.619,19.977 C15.311,19.977 15.879,19.439 15.879,18.782 C15.879,18.212 15.451,17.73 14.884,17.612 C15.42,17.432 15.831,17.062 16.086,16.496 L16.096,16.476 C16.29,15.734 15.944,14.928 15.23,14.404 L15.225,14.399 L15.222,14.394 L15.202,14.374 L13.677,13.239 L18.43,1.68 L21.447,1.194 L21.449,1.194 C21.764,1.144 21.996,0.864 21.969,0.561 C21.942,0.257 21.662,0.018 21.339,0.021 L21.34,0.02 Z M15.384,5.65 L14.508,7.783 L13.365,7.783 L13.365,5.698 L15.385,5.65 L15.384,5.65 Z M12.929,5.71 L12.929,7.783 L10.819,7.783 L10.819,5.76 L12.929,5.71 L12.929,5.71 Z M10.382,5.768 L10.382,7.783 L8.272,7.783 L8.272,5.818 L10.382,5.768 L10.382,5.768 Z M7.836,5.828 L7.836,7.783 L5.726,7.783 L5.726,5.88 L7.836,5.83 L7.836,5.828 Z M5.29,5.89 L5.29,7.783 L3.18,7.783 L3.18,5.94 L5.29,5.89 L5.29,5.89 Z M2.745,5.95 L2.745,7.783 L1.198,7.783 L0.968,5.993 L2.745,5.949 L2.745,5.95 Z M1.25,8.194 L2.745,8.194 L2.745,10.067 L1.49,10.067 L1.25,8.194 L1.25,8.194 Z M3.18,8.194 L5.29,8.194 L5.29,10.067 L3.18,10.067 L3.18,8.195 L3.18,8.194 Z M5.727,8.194 L7.837,8.194 L7.837,10.067 L5.727,10.067 L5.727,8.195 L5.727,8.194 Z M8.273,8.194 L10.383,8.194 L10.383,10.067 L8.273,10.067 L8.273,8.195 L8.273,8.194 Z M10.819,8.194 L12.929,8.194 L12.929,10.067 L10.819,10.067 L10.819,8.195 L10.819,8.194 Z M13.364,8.194 L14.339,8.194 L13.569,10.067 L13.364,10.067 L13.364,8.195 L13.364,8.194 Z M1.542,10.48 L2.745,10.48 L2.745,11.825 L1.702,11.745 L1.542,10.48 L1.542,10.48 Z M3.182,10.48 L5.292,10.48 L5.292,12.016 L3.182,11.856 L3.182,10.48 L3.182,10.48 Z M5.727,10.48 L7.837,10.48 L7.837,12.208 L5.727,12.051 L5.727,10.481 L5.727,10.48 Z M8.273,10.48 L10.383,10.48 L10.383,12.402 L8.273,12.242 L8.273,10.48 L8.273,10.48 Z M10.819,10.48 L12.929,10.48 L12.929,11.62 L12.527,12.594 C12.475,12.57 12.419,12.554 12.361,12.551 L10.818,12.435 L10.818,10.48 L10.819,10.48 Z M13.364,10.48 L13.442,10.48 L13.364,10.58 L13.364,10.48 L13.364,10.48 Z M2.677,18.077 C3.087,18.077 3.417,18.389 3.417,18.78 C3.417,19.17 3.087,19.48 2.677,19.48 C2.265,19.48 1.937,19.17 1.937,18.78 C1.937,18.39 2.265,18.077 2.677,18.077 L2.677,18.077 Z M14.619,18.077 C15.029,18.077 15.359,18.389 15.359,18.78 C15.359,19.17 15.029,19.48 14.619,19.48 C14.206,19.48 13.879,19.17 13.879,18.78 C13.879,18.39 14.206,18.077 14.619,18.077 L14.619,18.077 Z M2.676,18.41 C2.452,18.41 2.274,18.58 2.274,18.792 C2.274,19.004 2.452,19.172 2.676,19.172 C2.899,19.172 3.078,19.004 3.078,18.792 C3.078,18.58 2.898,18.41 2.675,18.41 L2.676,18.41 Z M14.618,18.41 C14.393,18.41 14.215,18.58 14.215,18.792 C14.215,19.004 14.393,19.172 14.617,19.172 C14.84,19.172 15.017,19.004 15.017,18.792 C15.017,18.58 14.84,18.41 14.617,18.41 L14.618,18.41 Z" id="Shape" fill="#3C3C39"></path>
                        <path d="M5.727,9.22 L5.727,9.218" id="Shape" fill="#FFFFFF"></path>
                        <path id="Shape" fill="#000000" d="M5.625,9.125 C5.598,9.125 5.572,9.135 5.552,9.155 C5.532,9.173 5.522,9.199 5.522,9.225 C5.522,9.251 5.532,9.277 5.552,9.295 C5.572,9.315 5.598,9.325 5.625,9.325 C5.652,9.325 5.678,9.315 5.697,9.295 C5.715,9.279 5.727,9.255 5.727,9.231 L5.727,9.221 C5.727,9.196 5.715,9.173 5.697,9.156 C5.677,9.136 5.652,9.126 5.625,9.126"></path>
                    </g>
                </g>
                <g id="catalog_icon" transform="translate(298.000000, 116.000000)" sketch:type="MSShapeGroup">
                    <g id="Group" transform="translate(0.000000, 0.500000)">
                        <g id="asa-link" fill="#FFCD00">
                            <path d="M2,6.5 L2,4.5 L0,4.5 L0,6.5 L2,6.5 L2,6.5 Z M2,10.5 L2,8.5 L0,8.5 L0,10.5 L2,10.5 L2,10.5 Z M2,2.5 L2,0.5 L0,0.5 L0,2.5 L2,2.5 L2,2.5 Z M18,6.5 L18,4.5 L4,4.5 L4,6.5 L18,6.5 L18,6.5 Z M18,10.5 L18,8.5 L4,8.5 L4,10.5 L18,10.5 L18,10.5 Z M4,2.5 L18,2.5 L18,0.5 L4,0.5 L4,2.5 L4,2.5 Z" id="asa"></path>
                        </g>
                        <g id="asa-link">
                            <path d="M2,6.5 L2,4.5 L0,4.5 L0,6.5 L2,6.5 L2,6.5 Z M2,10.5 L2,8.5 L0,8.5 L0,10.5 L2,10.5 L2,10.5 Z M2,2.5 L2,0.5 L0,0.5 L0,2.5 L2,2.5 L2,2.5 Z M18,6.5 L18,4.5 L4,4.5 L4,6.5 L18,6.5 L18,6.5 Z M18,10.5 L18,8.5 L4,8.5 L4,10.5 L18,10.5 L18,10.5 Z M4,2.5 L18,2.5 L18,0.5 L4,0.5 L4,2.5 L4,2.5 Z" id="asa"></path>
                        </g>
                    </g>
                </g>
                <g id="check_big" transform="translate(0.000000, 154.000000)" fill-opacity="0.1" fill="#FFFFFF" sketch:type="MSShapeGroup">
                    <path d="M0,0 L24,0 L24,24 L0,24 L0,0 L0,0 Z" id="Shape"></path>
                </g>
                <g id="check_dis" transform="translate(50.000000, 104.000000)" stroke="#D8D8D8" fill="#FFFFFF" sketch:type="MSShapeGroup">
                    <path d="M10,24 L0,14 L4,10 L10,16 L26,0 L30,4 L10,24 L10,24 Z" id="Shape"></path>
                </g>
                <g id="checkbox_ok" transform="translate(61.000000, 58.000000)" fill="#FFCD00" sketch:type="MSShapeGroup">
                    <path d="M10,24 L0,14 L4,10 L10,16 L26,0 L30,4 L10,24 L10,24 Z" id="Shape"></path>
                </g>
                <g id="clock_event" transform="translate(100.000000, 104.000000)" fill-opacity="0.1" fill="#FFFFFF" sketch:type="MSShapeGroup">
                    <path d="M0,0 L24,0 L24,24 L0,24 L0,0 L0,0 Z" id="Shape"></path>
                </g>
                <g id="close_black" transform="translate(336.000000, 138.000000)" fill-opacity="0.7" fill="#000000" sketch:type="MSShapeGroup">
                    <path d="M14,1.41 L12.59,0 L7,5.59 L1.41,0 L0,1.41 L5.59,7 L0,12.59 L1.41,14 L7,8.41 L12.59,14 L14,12.59 L8.41,7 L14,1.41 L14,1.41 Z" id="Shape"></path>
                </g>
                <g id="close_light" transform="translate(336.000000, 104.000000)" fill="#000000" sketch:type="MSShapeGroup">
                    <path d="M14,1.4 L12.6,0 L7,5.6 L1.4,0 L0,1.4 L5.6,7 L0,12.6 L1.4,14 L7,8.4 L12.6,14 L14,12.6 L8.4,7 L14,1.4 L14,1.4 Z" id="Shape"></path>
                </g>
                <g id="compare_edit" transform="translate(295.000000, 0.000000)" sketch:type="MSShapeGroup">
                    <g id="Group">
                        <path d="M0,0 L24,0 L24,24 L0,24 L0,0 L0,0 Z" id="Shape"></path>
                        <path d="M3,17.25 L3,21 L6.75,21 L17.81,9.94 L14.06,6.19 L3,17.25 L3,17.25 Z M20.71,7.04 C21.1,6.65 21.1,6.02 20.71,5.63 L18.37,3.29 C17.98,2.9 17.35,2.9 16.96,3.29 L15.13,5.12 L18.88,8.87 L20.71,7.04 L20.71,7.04 Z" id="Shape" fill="#3C3C39"></path>
                    </g>
                </g>
                <g id="credit_card_icon" transform="translate(86.000000, 198.000000)" fill="#999B9B" sketch:type="MSShapeGroup">
                    <path d="M18,0 L2,0 C0.9,0 0,0.9 0,2 L0,14 C0,15.1 0.9,16 2,16 L18,16 C19.1,16 20,15.1 20,14 L20,2 C20,0.9 19.1,0 18,0 L18,0 Z M18,14 L2,14 L2,8 L18,8 L18,14 L18,14 Z M18,4 L2,4 L2,2 L18,2 L18,4 L18,4 Z" id="Shape"></path>
                </g>
                <g id="delete" transform="translate(28.000000, 313.000000)" fill-opacity="0.7" fill="#000000" sketch:type="MSShapeGroup">
                    <path d="M10,1.145 L8.993,0.138 L5,4.13 L1.007,0.14 L0,1.145 L3.993,5.138 L0,9.13 L1.007,10.138 L5,6.145 L8.993,10.138 L10,9.13 L6.007,5.14 L10,1.145 L10,1.145 Z" id="Shape"></path>
                </g>
                <g id="directions_icon" transform="translate(204.000000, 198.000000)" fill="#999B9B" sketch:type="MSShapeGroup">
                    <path d="M15.9,1 C15.7,0.4 15.1,0 14.5,0 L3.5,0 C2.8,0 2.3,0.4 2.1,1 L0,7 L0,15 C0,15.6 0.4,16 1,16 L2,16 C2.6,16 3,15.6 3,15 L3,14 L15,14 L15,15 C15,15.6 15.4,16 16,16 L17,16 C17.6,16 18,15.6 18,15 L18,7 L15.9,1 L15.9,1 Z M3.5,11 C2.7,11 2,10.3 2,9.5 C2,8.7 2.7,8 3.5,8 C4.3,8 5,8.7 5,9.5 C5,10.3 4.3,11 3.5,11 L3.5,11 Z M14.5,11 C13.7,11 13,10.3 13,9.5 C13,8.7 13.7,8 14.5,8 C15.3,8 16,8.7 16,9.5 C16,10.3 15.3,11 14.5,11 L14.5,11 Z M2,6 L3.5,1.5 L14.5,1.5 L16,6 L2,6 L2,6 Z" id="Shape"></path>
                </g>
                <g id="done" transform="translate(214.000000, 91.000000)" sketch:type="MSShapeGroup">
                    <g id="Group">
                        <path d="M0,0 L24,0 L24,24 L0,24 L0,0 L0,0 Z" id="Shape" fill-opacity="0.1" fill="#FFFFFF"></path>
                        <path d="M9,16.17 L4.83,12 L3.41,13.41 L9,19 L21,7 L19.59,5.59 L9,16.17 L9,16.17 Z" id="Shape" fill="#FA7146"></path>
                    </g>
                </g>
                <g id="dropdown_icon" transform="translate(123.000000, 279.000000)" fill="#3C3C39" sketch:type="MSShapeGroup">
                    <path d="M0,0 L5,5 L10,0 L0,0 L0,0 Z" id="Shape"></path>
                </g>
                <g id="filter" transform="translate(67.000000, 241.000000)" fill="#247096" sketch:type="MSShapeGroup">
                    <path d="M16.617,1 L0.383,1 C0.228,1 0.087,1.1 0.03,1.25 C-0.03,1.404 0.003,1.576 0.113,1.69 L7.156,8 L7.156,15.5 C7.156,15.644 7.229,15.777 7.346,15.85 C7.406,15.887 7.473,15.904 7.54,15.904 C7.605,15.904 7.67,15.887 7.73,15.852 L9.807,13.702 C9.927,13.632 10,13.498 10,13.352 L10,8 L16.887,1.69 C16.997,1.575 17.03,1.402 16.972,1.25 C16.912,1.1 16.772,1 16.617,1 L16.617,1 Z" id="Shape"></path>
                </g>
                <g id="geoip" transform="translate(298.000000, 185.000000)" fill="#000000" sketch:type="MSShapeGroup">
                    <g id="Group">
                        <path d="M8.5,1.962 C4.904,1.962 1.962,4.904 1.962,8.5 C1.962,12.096 4.904,15.038 8.5,15.038 C12.096,15.038 15.038,12.096 15.038,8.5 C15.038,4.904 12.096,1.962 8.5,1.962 L8.5,1.962 Z M8.5,13.732 C5.623,13.732 3.27,11.377 3.27,8.5 C3.27,5.623 5.623,3.27 8.5,3.27 C11.377,3.27 13.73,5.623 13.73,8.5 C13.73,11.377 11.377,13.73 8.5,13.73 L8.5,13.732 Z" id="Shape"></path>
                        <path d="M9.154,17 L9.154,11.77 L7.846,11.77 L7.846,17 L9.154,17 L9.154,17 Z M9.154,5.23 L9.154,0 L7.846,0 L7.846,5.23 L9.154,5.23 L9.154,5.23 Z M11.769,9.154 L17,9.154 L17,7.846 L11.77,7.846 L11.77,9.154 L11.769,9.154 Z M0,9.154 L5.23,9.154 L5.23,7.846 L0,7.846 L0,9.154 L0,9.154 Z" id="Shape"></path>
                    </g>
                </g>
                <g id="hamb_small" transform="translate(104.000000, 242.000000)" fill="#247096" sketch:type="MSShapeGroup">
                    <path d="M15,3 L15,0 L0,0 L0,3 L15,3 L15,3 Z M0,8 L15,8 L15,5 L0,5 L0,8 L0,8 Z M15,13 L15,10 L0,10 L0,13 L15,13 L15,13 Z" id="Shape"></path>
                </g>
                <g id="help_icon" transform="translate(258.000000, 79.000000)" fill="#999B9B" sketch:type="MSShapeGroup">
                    <path d="M10,0 C4.5,0 0,4.5 0,10 C0,15.5 4.5,20 10,20 C15.5,20 20,15.5 20,10 C20,4.5 15.5,0 10,0 L10,0 Z M11,17 L9,17 L9,15 L11,15 L11,17 L11,17 Z M13.1,9.3 L12.2,10.2 C11.4,10.9 11,11.5 11,13 L9,13 L9,12.5 C9,11.4 9.4,10.4 10.2,9.7 L11.4,8.4 C11.8,8.1 12,7.6 12,7 C12,5.9 11.1,5 10,5 C8.9,5 8,5.9 8,7 L6,7 C6,4.8 7.8,3 10,3 C12.2,3 14,4.8 14,7 C14,7.9 13.6,8.7 13.1,9.3 L13.1,9.3 Z" id="Shape"></path>
                </g>
                <g id="ic_event" transform="translate(61.000000, 3.000000)" sketch:type="MSShapeGroup">
                    <g id="Group">
                        <g id="bjc-link">
                            <g stroke="url(#linearGradient-1)">
                                <rect id="bjc" x="0" y="0" width="35" height="35" rx="3"></rect>
                            </g>
                            <g fill="url(#linearGradient-2)">
                                <rect id="bjc" x="0" y="0" width="35" height="35" rx="3"></rect>
                            </g>
                        </g>
                        <g transform="translate(6.000000, 6.000000)" id="Shape">
                            <path d="M0,0 L24,0 L24,24 L0,24 L0,0 L0,0 Z" fill-opacity="0.1" fill="#FFFFFF"></path>
                            <path d="M17,12 L12,12 L12,17 L17,17 L17,12 L17,12 Z M16,1 L16,3 L8,3 L8,1 L6,1 L6,3 L5,3 C3.89,3 3.01,3.9 3.01,5 L3,19 C3,20.1 3.89,21 5,21 L19,21 C20.1,21 21,20.1 21,19 L21,5 C21,3.9 20.1,3 19,3 L18,3 L18,1 L16,1 L16,1 Z M19,19 L5,19 L5,8 L19,8 L19,19 L19,19 Z" fill-opacity="0.7" fill="#000000"></path>
                        </g>
                    </g>
                </g>
                <g id="ic_time" transform="translate(0.000000, 49.000000)" sketch:type="MSShapeGroup">
                    <g id="Group">
                        <g id="bkc-link">
                            <g stroke="url(#linearGradient-1)">
                                <rect id="bkc" x="0" y="0" width="35" height="35" rx="3"></rect>
                            </g>
                            <g fill="url(#linearGradient-2)">
                                <rect id="bkc" x="0" y="0" width="35" height="35" rx="3"></rect>
                            </g>
                        </g>
                        <g transform="translate(6.000000, 6.000000)">
                            <path d="M0,0 L24,0 L24,24 L0,24 L0,0 L0,0 Z" id="Shape" fill-opacity="0.1" fill="#FFFFFF"></path>
                            <path d="M11.99,2 C6.47,2 2,6.48 2,12 C2,17.52 6.47,22 11.99,22 C17.52,22 22,17.52 22,12 C22,6.48 17.52,2 11.99,2 L11.99,2 Z M12,20 C7.58,20 4,16.42 4,12 C4,7.58 7.58,4 12,4 C16.42,4 20,7.58 20,12 C20,16.42 16.42,20 12,20 L12,20 Z" id="bkShape" fill-opacity="0.7" fill="#000000"></path>
                            <path d="M12.5,7 L11,7 L11,13 L16.25,16.15 L17,14.92 L12.5,12.25 L12.5,7 L12.5,7 Z" id="Shape" fill-opacity="0.7" fill="#000000"></path>
                        </g>
                    </g>
                </g>
                <g id="left_arrow" transform="translate(35.000000, 279.000000)" fill="#3C3C39" sketch:type="MSShapeGroup">
                    <path d="M6,0 L7.4,1.4 L2.8,6 L7.4,10.6 L6,12 L0,6 L6,0 L6,0 Z" id="Shape"></path>
                </g>
                <g id="like" transform="translate(165.000000, 198.000000)" fill="#767676" sketch:type="MSShapeGroup">
                    <path d="M15.69,7.562 L9.144,14.11 L2.595,7.562 C1.225,6.194 1.225,3.967 2.595,2.597 C3.26,1.934 4.14,1.57 5.078,1.57 C6.016,1.57 6.898,1.934 7.56,2.597 L8.588,3.627 C8.883,3.92 9.404,3.92 9.698,3.627 L10.726,2.597 C11.389,1.934 12.27,1.57 13.208,1.57 C14.146,1.57 15.028,1.934 15.691,2.597 C17.061,3.967 17.061,6.194 15.691,7.562 L15.69,7.562 Z M16.8,1.487 C15.84,0.527 14.565,0 13.208,0 C11.851,0 10.576,0.528 9.616,1.487 L9.143,1.96 L8.67,1.487 C7.71,0.527 6.435,0 5.078,0 C3.72,0 2.445,0.528 1.486,1.487 C-0.494,3.469 -0.494,6.692 1.486,8.672 L8.584,15.77 C8.7,15.886 8.844,15.958 8.994,15.985 C9.046,15.995 9.097,16 9.148,16 C9.348,16 9.55,15.923 9.703,15.77 L16.8,8.672 C18.78,6.692 18.78,3.469 16.8,1.487 L16.8,1.487 Z" id="Shape"></path>
                </g>
                <g id="like_sel" transform="translate(126.000000, 198.000000)" fill="#3C3C39" sketch:type="MSShapeGroup">
                    <path d="M15.69,7.562 L9.144,14.11 L2.595,7.562 C1.225,6.194 1.225,3.967 2.595,2.597 C3.26,1.934 4.14,1.57 5.078,1.57 C6.016,1.57 6.898,1.934 7.56,2.597 L8.588,3.627 C8.883,3.92 9.404,3.92 9.698,3.627 L10.726,2.597 C11.389,1.934 12.27,1.57 13.208,1.57 C14.146,1.57 15.028,1.934 15.691,2.597 C17.061,3.967 17.061,6.194 15.691,7.562 L15.69,7.562 Z M16.8,1.487 C15.84,0.527 14.565,0 13.208,0 C11.851,0 10.576,0.528 9.616,1.487 L9.143,1.96 L8.67,1.487 C7.71,0.527 6.435,0 5.078,0 C3.72,0 2.445,0.528 1.486,1.487 C-0.494,3.469 -0.494,6.692 1.486,8.672 L8.584,15.77 C8.7,15.886 8.844,15.958 8.994,15.985 C9.046,15.995 9.097,16 9.148,16 C9.348,16 9.55,15.923 9.703,15.77 L16.8,8.672 C18.78,6.692 18.78,3.469 16.8,1.487 L16.8,1.487 Z" id="Shape"></path>
                </g>
                <g id="magazine_icon" transform="translate(0.000000, 242.000000)" fill="#FFCD00" sketch:type="MSShapeGroup">
                    <path d="M15,11 L3,11 L3,9 L15,9 L15,11 L15,11 Z M15,7 L3,7 L3,5 L15,5 L15,7 L15,7 Z M1.5,15 L3,17 L4.5,15 L6,17 L7.5,15 L9,17 L10.5,15 L12,17 L13.5,15 L15,17 L16.5,15 L18,17 L18,0 L16.5,2 L15,0 L13.5,2 L12,0 L10.5,2 L9,0 L7.5,2 L6,0 L4.5,2 L3,0 L1.5,2 L0,0 L0,17 L1.5,15 L1.5,15 Z" id="Shape"></path>
                </g>
                <g id="menu" transform="translate(131.000000, 154.000000)" fill="#3C3C39" sketch:type="MSShapeGroup">
                    <path d="M22,15 L22,12 L0,12 L0,15 L22,15 L22,15 Z M22,9 L22,6 L0,6 L0,9 L22,9 L22,9 Z M0,3 L22,3 L22,0 L0,0 L0,3 L0,3 Z" id="Shape"></path>
                </g>
                <g id="move" transform="translate(0.000000, 104.000000)" sketch:type="MSShapeGroup">
                    <g id="Group">
                        <rect id="Rectangle-path" stroke="url(#linearGradient-4)" fill="url(#linearGradient-3)" x="0" y="0" width="30" height="30" rx="3"></rect>
                        <g transform="translate(3.000000, 3.000000)" id="Shape">
                            <path d="M0,0 L24,0 L24,24 L0,24 L0,0 L0,0 Z"></path>
                            <path d="M9,3 L5,6.99 L8,6.99 L8,14 L10,14 L10,6.99 L13,6.99 L9,3 L9,3 Z M16,17.01 L16,10 L14,10 L14,17.01 L11,17.01 L15,21 L19,17.01 L16,17.01 L16,17.01 Z" fill="#3C3C39"></path>
                        </g>
                    </g>
                </g>
                <g id="new_icon" transform="translate(173.000000, 154.000000)" fill="#FFCD00" sketch:type="MSShapeGroup">
                    <path d="M4.99,5.99 L3.657,5.99 L2.087,2.237 L2.062,2.242 L1.524,5.99 L0.187,5.99 L1.05,0.025 L2.386,0.025 L3.953,3.775 L3.977,3.77 L4.52,0.025 L5.853,0.025 L4.99,5.99 L4.99,5.99 Z M9.643,3.438 L7.613,3.438 L7.4,4.925 L9.833,4.925 L9.68,5.99 L5.907,5.99 L6.77,0.025 L10.545,0.025 L10.39,1.09 L7.955,1.09 L7.769,2.373 L9.799,2.373 L9.644,3.438 L9.643,3.438 Z M15.365,3.888 L15.389,3.893 L16.646,0.025 L18,0.025 L15.816,5.99 L14.558,5.99 L14.122,2.307 L14.099,2.303 L12.602,5.99 L11.344,5.99 L10.882,0.025 L12.239,0.025 L12.372,3.897 L12.396,3.901 L13.936,0.026 L14.944,0.026 L15.364,3.889 L15.365,3.888 Z" id="Shape"></path>
                </g>
                <g id="panel_minus" transform="translate(166.000000, 51.000000)" sketch:type="MSShapeGroup">
                    <g id="Group">
                        <g id="bsa-link" fill="#FFCD00">
                            <rect id="bsa" x="0" y="0" width="26" height="26" rx="3"></rect>
                        </g>
                        <g id="bsa-link" stroke="#F6A623" fill="url(#linearGradient-2)">
                            <rect id="bsa" x="0" y="0" width="26" height="26" rx="3"></rect>
                        </g>
                        <path d="M6,14 L6,12 L20,12 L20,14 L6,14 L6,14 Z" id="Shape" fill="#3C3C39"></path>
                    </g>
                </g>
                <g id="panel_plus" transform="translate(166.000000, 97.000000)" sketch:type="MSShapeGroup">
                    <g id="Group">
                        <g id="bta-link" fill="#FFCD00">
                            <rect id="bta" x="0" y="0" width="26" height="26" rx="3"></rect>
                        </g>
                        <g id="bta-link" stroke="#F6A623" fill="url(#linearGradient-2)">
                            <rect id="bta" x="0" y="0" width="26" height="26" rx="3"></rect>
                        </g>
                        <path d="M20,14 L14,14 L14,20 L12,20 L12,14 L6,14 L6,12 L12,12 L12,6 L14,6 L14,12 L20,12 L20,14 L20,14 Z" id="Shape" fill="#3C3C39"></path>
                    </g>
                </g>
                <g id="phone_button" transform="translate(0.000000, 198.000000)" sketch:type="MSShapeGroup">
                    <g id="Group">
                        <path d="M0,0 L24,0 L24,24 L0,24 L0,0 L0,0 Z" id="Shape" fill-opacity="0.1" fill="#FFFFFF"></path>
                        <path d="M20,15.5 C18.75,15.5 17.55,15.3 16.43,14.93 C16.08,14.82 15.69,14.9 15.42,15.17 L13.22,17.37 C10.39,15.93 8.07,13.62 6.63,10.78 L8.83,8.57 C9.1,8.31 9.18,7.92 9.07,7.57 C8.7,6.45 8.5,5.25 8.5,4 C8.5,3.45 8.05,3 7.5,3 L4,3 C3.45,3 3,3.45 3,4 C3,13.39 10.61,21 20,21 C20.55,21 21,20.55 21,20 L21,16.5 C21,15.95 20.55,15.5 20,15.5 L20,15.5 Z" id="Shape" fill-opacity="0.7" fill="#000000"></path>
                    </g>
                </g>
                <g id="pole_icon" transform="translate(116.000000, 53.000000)" sketch:type="MSShapeGroup">
                    <g id="Group">
                        <rect id="Rectangle-path" stroke="url(#linearGradient-4)" fill="url(#linearGradient-3)" x="0" y="0" width="30" height="30" rx="3"></rect>
                        <path d="M18,22.626 C18,22.832 17.838,23 17.638,23 L12.362,23 C12.162,23 12,22.832 12,22.626 L12,15.374 C12,15.168 12.162,15 12.362,15 L17.638,15 C17.838,15 18,15.168 18,15.374 L18,22.626 L18,22.626 Z M12,22.626 C12,22.833 11.838,23 11.638,23 L6.362,23 C6.162,23 6,22.833 6,22.626 L6,11.374 C6,11.167 6.162,11 6.362,11 L11.638,11 C11.838,11 12,11.167 12,11.374 L12,22.626 L12,22.626 Z M24,22.638 C24,22.838 23.838,23 23.638,23 L18.362,23 C18.162,23 18,22.838 18,22.638 L18,7.362 C18,7.162 18.162,7 18.362,7 L23.638,7 C23.838,7 24,7.162 24,7.362 L24,22.638 L24,22.638 Z" id="Shape" stroke="#A0A0A0" stroke-width="2"></path>
                    </g>
                </g>
                <g id="pole_icon-sel" transform="translate(259.000000, 4.000000)" stroke="#3C3C39" stroke-width="2" sketch:type="MSShapeGroup">
                    <path d="M12,15.626 C12,15.832 11.838,16 11.638,16 L6.362,16 C6.162,16 6,15.832 6,15.626 L6,8.374 C6,8.168 6.162,8 6.362,8 L11.638,8 C11.838,8 12,8.168 12,8.374 L12,15.626 L12,15.626 Z M6,15.626 C6,15.833 5.838,16 5.638,16 L0.362,16 C0.162,16 0,15.833 0,15.626 L0,4.374 C0,4.167 0.162,4 0.362,4 L5.638,4 C5.838,4 6,4.167 6,4.374 L6,15.626 L6,15.626 Z M18,15.638 C18,15.838 17.838,16 17.638,16 L12.362,16 C12.162,16 12,15.838 12,15.638 L12,0.362 C12,0.162 12.162,0 12.362,0 L17.638,0 C17.838,0 18,0.162 18,0.362 L18,15.638 L18,15.638 Z" id="Shape"></path>
                </g>
                <g id="pole_link" transform="translate(259.000000, 42.000000)" stroke="#A0A0A0" stroke-width="2" sketch:type="MSShapeGroup">
                    <path d="M12,15.626 C12,15.832 11.838,16 11.638,16 L6.362,16 C6.162,16 6,15.832 6,15.626 L6,8.374 C6,8.168 6.162,8 6.362,8 L11.638,8 C11.838,8 12,8.168 12,8.374 L12,15.626 L12,15.626 Z M6,15.626 C6,15.833 5.838,16 5.638,16 L0.362,16 C0.162,16 0,15.833 0,15.626 L0,4.374 C0,4.167 0.162,4 0.362,4 L5.638,4 C5.838,4 6,4.167 6,4.374 L6,15.626 L6,15.626 Z M18,15.638 C18,15.838 17.838,16 17.638,16 L12.362,16 C12.162,16 12,15.838 12,15.638 L12,0.362 C12,0.162 12.162,0 12.362,0 L17.638,0 C17.838,0 18,0.162 18,0.362 L18,15.638 L18,15.638 Z" id="Shape"></path>
                </g>
                <g id="pole_link-sel" transform="translate(116.000000, 3.000000)" sketch:type="MSShapeGroup">
                    <g id="Group">
                        <rect id="Rectangle-path" stroke="#D2D2D2" fill="url(#linearGradient-3)" x="0" y="0" width="30" height="30" rx="3"></rect>
                        <path d="M18,22.626 C18,22.832 17.838,23 17.638,23 L12.362,23 C12.162,23 12,22.832 12,22.626 L12,15.374 C12,15.168 12.162,15 12.362,15 L17.638,15 C17.838,15 18,15.168 18,15.374 L18,22.626 L18,22.626 Z M12,22.626 C12,22.833 11.838,23 11.638,23 L6.362,23 C6.162,23 6,22.833 6,22.626 L6,11.374 C6,11.167 6.162,11 6.362,11 L11.638,11 C11.838,11 12,11.167 12,11.374 L12,22.626 L12,22.626 Z M24,22.638 C24,22.838 23.838,23 23.638,23 L18.362,23 C18.162,23 18,22.838 18,22.638 L18,7.362 C18,7.162 18.162,7 18.362,7 L23.638,7 C23.838,7 24,7.162 24,7.362 L24,22.638 L24,22.638 Z" id="Shape" stroke="#3C3C39" stroke-width="2"></path>
                    </g>
                </g>
                <g id="popup_close_dark" transform="translate(336.000000, 70.000000)" fill="#FFCD00" sketch:type="MSShapeGroup">
                    <path d="M14,1.4 L12.6,0 L7,5.6 L1.4,0 L0,1.4 L5.6,7 L0,12.6 L1.4,14 L7,8.4 L12.6,14 L14,12.6 L8.4,7 L14,1.4 L14,1.4 Z" id="Shape"></path>
                </g>
                <g id="search" transform="translate(298.000000, 41.000000)" fill="#000000" sketch:type="MSShapeGroup">
                    <path d="M12.5,11 L11.7,11 L11.4,10.7 C12.4,9.6 13,8.1 13,6.5 C13,2.9 10.1,0 6.5,0 C2.9,0 0,2.9 0,6.5 C0,10.1 2.9,13 6.5,13 C8.1,13 9.6,12.4 10.7,11.4 L11,11.7 L11,12.5 L16,17.5 L17.5,16 L12.5,11 L12.5,11 Z M6.5,11 C4,11 2,9 2,6.5 C2,4 4,2 6.5,2 C9,2 11,4 11,6.5 C11,9 9,11 6.5,11 L6.5,11 Z" id="Shape"></path>
                </g>
                <g id="search_icon" transform="translate(298.000000, 79.000000)" fill="#3C3C39" sketch:type="MSShapeGroup">
                    <path d="M12.5,11 L11.7,11 L11.4,10.7 C12.4,9.6 13,8.1 13,6.5 C13,2.9 10.1,0 6.5,0 C2.9,0 0,2.9 0,6.5 C0,10.1 2.9,13 6.5,13 C8.1,13 9.6,12.4 10.7,11.4 L11,11.7 L11,12.5 L16,17.5 L17.5,16 L12.5,11 L12.5,11 Z M6.5,11 C4,11 2,9 2,6.5 C2,4 4,2 6.5,2 C9,2 11,4 11,6.5 C11,9 9,11 6.5,11 L6.5,11 Z" id="Shape"></path>
                </g>
                <g id="select_triangles" transform="translate(38.000000, 242.000000)" fill="#4A4A4A" sketch:type="MSShapeGroup">
                    <g id="Group" transform="translate(0.000000, 0.405000)">
                        <path d="M4.5,15.135 L9,10.405 L0,10.405 L4.5,15.135 L4.5,15.135 Z" id="ccTriangle"></path>
                        <path d="M4.5,0 L9,4.73 L0,4.73 L4.5,0 L4.5,0 Z" id="Shape"></path>
                    </g>
                </g>
                <g id="setup_icon" transform="translate(298.000000, 222.000000)" fill="#FFCD00" sketch:type="MSShapeGroup">
                    <g id="Group">
                        <path d="M6.12,12.992 C6.11,12.812 6.17,12.63 6.295,12.489 C7.903,10.839 10.223,8.469 11.831,6.823 C11.971,6.695 12.148,6.633 12.323,6.643 C13.223,6.773 14.173,6.481 14.863,5.773 C15.478,5.143 15.769,4.303 15.739,3.483 C15.739,3.479 15.611,3.343 15.409,3.135 L13.68,4.91 L11.93,4.43 L11.46,2.636 L13.197,0.856 C13.002,0.656 12.877,0.528 12.874,0.528 C12.064,0.491 11.24,0.79 10.62,1.424 C9.928,2.134 9.645,3.104 9.77,4.028 C9.78,4.208 9.72,4.388 9.594,4.53 C7.984,6.18 5.67,8.546 4.059,10.196 C3.921,10.324 3.743,10.384 3.569,10.376 C2.667,10.246 1.719,10.536 1.027,11.246 C0.407,11.881 0.117,12.724 0.153,13.556 C0.153,13.558 0.279,13.688 0.475,13.89 L2.2,12.12 L3.95,12.6 L4.42,14.394 L2.7,16.158 C2.968,16.481 3.03,16.492 3.035,16.492 C3.84,16.522 4.655,16.224 5.27,15.594 C5.962,14.884 6.245,13.914 6.12,12.992 L6.12,12.992 Z M3.757,5.19 L2.782,4.785 C2.63,4.711 2.432,4.53 2.342,4.385 L1.349,2.792 C1.259,2.646 1.373,2.5 1.504,2.365 L2.017,1.839 C2.149,1.704 2.292,1.586 2.433,1.679 L3.99,2.697 C4.132,2.789 4.308,2.993 4.38,3.147 L4.774,4.147 C4.846,4.304 4.799,4.542 4.667,4.677 L4.274,5.08 C4.144,5.214 3.91,5.263 3.757,5.19 L3.757,5.19 Z" id="Shape"></path>
                        <path d="M8.704,8.216 L7.729,9.216 L3.635,5.022 L4.609,4.022 L8.703,8.216" id="Shape"></path>
                        <path d="M14.898,12.752 L10.793,8.546 C10.07,7.806 8.453,7.958 8.453,7.958 L7.478,8.958 C0.1,2.66453526e-14 7.328,10.614 8.05,11.355 L12.156,15.562 C13.022,16.449 13.889,15.562 13.889,15.562 L14.899,14.528 C0.1,2.66453526e-14 15.764,13.64 14.897,12.752 L14.898,12.752 Z M12.903,14.812 L8.853,10.662 L9.058,10.452 L13.108,14.602 L12.903,14.812 L12.903,14.812 Z M13.955,13.722 L9.91,9.58 L10.117,9.368 L14.162,13.511 L13.955,13.724 L13.955,13.722 Z" id="Shape"></path>
                    </g>
                </g>
                <g id="shop_add_icon" transform="translate(258.000000, 199.000000)" fill="#999B9B" sketch:type="MSShapeGroup">
                    <path d="M7,0 C3.1,0 0,3.1 0,7 C0,12.2 7,20 7,20 C7,20 14,12.2 14,7 C14,3.1 10.9,0 7,0 L7,0 Z M7,9.5 C5.6,9.5 4.5,8.4 4.5,7 C4.5,5.6 5.6,4.5 7,4.5 C8.4,4.5 9.5,5.6 9.5,7 C9.5,8.4 8.4,9.5 7,9.5 L7,9.5 Z" id="Shape"></path>
                </g>
                <g id="shops_icon" transform="translate(0.000000, 3.000000)" fill="#F6A623" sketch:type="MSShapeGroup">
                    <g id="Group">
                        <path d="M28.642,23 L38,23 L38,3 L3,3 L3,23 L12.787,23 L12.787,11.578 C12.787,10.698 13.5,9.984 14.377,9.984 L27.067,9.984 C27.487,9.984 27.893,10.152 28.191,10.452 C28.491,10.752 28.657,11.157 28.657,11.58 L28.642,23 L28.642,23 Z M38.68,26 L26.993,26 C26.573,26 26.173,25.834 25.878,25.54 C25.582,25.244 25.418,24.844 25.418,24.427 L25.431,13.169 L16.007,13.169 L16.007,24.429 C16.007,25.296 15.302,25.999 14.431,25.999 L2.32,25.999 C1.04,26 0,24.957 0,23.675 L0,2.325 C0,1.043 1.04,0 2.32,0 L38.68,0 C39.96,0 41,1.043 41,2.325 L41,23.675 C41,24.957 39.96,26 38.68,26 L38.68,26 Z" id="Shape"></path>
                        <path d="M25.452,8 L16.548,8 C15.693,8 15,7.328 15,6.5 C15,5.672 15.693,5 16.548,5 L25.452,5 C26.307,5 27,5.672 27,6.5 C27,7.328 26.307,8 25.452,8" id="Shape"></path>
                    </g>
                </g>
                <g id="small_ok" transform="translate(336.000000, 38.000000)" fill="#FFCD00" sketch:type="MSShapeGroup">
                    <path d="M5,12 L0,7 L2,5 L5,8 L13,0 L15,2 L5,12 L5,12 Z" id="Shape"></path>
                </g>
                <g id="store" transform="translate(88.000000, 154.000000)" fill="#3C3C39" sketch:type="MSShapeGroup">
                    <g id="Group">
                        <path d="M15.92,13 L21,13 L21,2 L2,2 L2,13 L7.313,13 L7.313,6.718 C7.313,6.234 7.7,5.841 8.176,5.841 L15.066,5.841 C15.294,5.841 15.513,5.935 15.676,6.101 C15.836,6.264 15.928,6.487 15.926,6.721 L15.92,13 L15.92,13 Z M21.698,15 L15.142,15 C14.908,15 14.682,14.904 14.517,14.734 C14.351,14.564 14.257,14.334 14.257,14.092 L14.267,7.598 L8.98,7.598 L8.98,14.094 C8.98,14.594 8.583,15 8.095,15 L1.302,15 C0.584,15 0,14.398 0,13.66 L0,1.34 C0,0.603 0.584,0 1.302,0 L21.698,0 C22.416,0 23,0.602 23,1.34 L23,13.66 C23,14.398 22.416,15 21.698,15 L21.698,15 Z" id="Shape"></path>
                        <path d="M13.226,5 L8.774,5 C8.347,5 8,4.552 8,4 C8,3.448 8.347,3 8.774,3 L13.226,3 C13.653,3 14,3.448 14,4 C14,4.552 13.653,5 13.226,5" id="Shape"></path>
                    </g>
                </g>
                <g id="trash" transform="translate(293.000000, 144.000000)" sketch:type="MSShapeGroup">
                    <g id="Group">
                        <path d="M0,0 L24,0 L24,24 L0,24 L0,0 L0,0 Z" id="Shape"></path>
                        <path d="M6,19 C6,20.1 6.9,21 8,21 L16,21 C17.1,21 18,20.1 18,19 L18,7 L6,7 L6,19 L6,19 Z M19,4 L15.5,4 L14.5,3 L9.5,3 L8.5,4 L5,4 L5,6 L19,6 L19,4 L19,4 Z" id="Shape" fill="#3C3C39"></path>
                    </g>
                </g>
            </g>
        </g>
    </g>
</svg>