<svg xmlns="http://www.w3.org/2000/svg" xmlns:xlink="http://www.w3.org/1999/xlink" preserveAspectRatio="xMidYMid" width="20" height="16" viewBox="0 0 20 16">
  <defs>
    <style>
      .cls-1 {
        fill: #5ec3ae;
        stroke: #fff;
        stroke-linejoin: round;
        stroke-width: 1px;
        fill-opacity: 0;
        fill-rule: evenodd;
      }
    </style>
  </defs>
  <path d="M16.984,6.062 C16.940,5.929 16.813,5.837 16.670,5.837 L10.671,5.837 L8.814,0.224 C8.770,0.091 8.643,-0.000 8.500,-0.000 C8.358,-0.001 8.231,0.090 8.186,0.223 L6.319,5.837 L0.330,5.837 C0.188,5.837 0.060,5.928 0.016,6.062 C-0.028,6.195 0.021,6.342 0.136,6.425 L4.982,9.899 L3.115,15.544 C3.070,15.678 3.119,15.825 3.234,15.908 C3.350,15.990 3.507,15.990 3.622,15.908 L8.500,12.423 L13.367,15.908 C13.425,15.949 13.493,15.970 13.561,15.970 C13.629,15.970 13.697,15.949 13.755,15.908 C13.872,15.825 13.919,15.679 13.875,15.544 L12.008,9.900 L16.864,6.425 C16.980,6.343 17.028,6.195 16.984,6.062 Z" class="cls-1"/>
</svg>
