<svg xmlns="http://www.w3.org/2000/svg" xmlns:xlink="http://www.w3.org/1999/xlink" preserveAspectRatio="xMidYMid" width="186" height="94" viewBox="0 0 186 94">
  <defs>
    <style>
      .cls-1 {
        fill: #927b7c;
      }

      .cls-1, .cls-2, .cls-3, .cls-4, .cls-5, .cls-6 {
        fill-rule: evenodd;
      }

      .cls-2 {
        fill: #6cc067;
      }

      .cls-3 {
        fill: #4e423d;
      }

      .cls-4 {
        fill: #5fc3ac;
      }

      .cls-5 {
        fill: #ee4055;
      }

      .cls-6 {
        fill: #fff;
      }
    </style>
  </defs>
  <g>
    <path d="M54.000,94.000 L54.000,93.993 L53.986,93.993 L53.986,86.014 L57.000,86.000 L57.000,92.000 L61.000,92.000 L61.000,94.000 L54.000,94.000 ZM19.000,73.000 L23.000,73.000 L23.000,82.000 L30.000,82.000 L30.000,85.000 L19.000,85.000 L19.000,73.000 Z" class="cls-1"/>
    <path d="M62.019,73.000 L69.000,86.000 L42.000,86.000 L49.548,73.000 L44.000,73.000 L52.101,59.000 L49.000,59.000 L56.000,48.000 L63.000,59.000 L59.509,59.000 L67.000,73.000 L62.019,73.000 ZM-0.000,73.000 L11.053,53.000 L3.000,53.000 L15.000,31.000 L11.000,31.000 L21.000,12.000 L32.000,31.000 L27.333,31.000 L40.000,53.000 L31.421,53.000 L43.000,73.000 L-0.000,73.000 Z" class="cls-2"/>
    <path d="M131.250,48.781 L159.277,0.650 L186.000,48.781 L131.250,48.781 Z" class="cls-3"/>
    <path d="M150.804,14.959 L156.670,11.707 L159.277,16.260 L161.884,11.707 L167.098,14.309 L159.277,-0.000 L150.804,14.959 Z" class="cls-4"/>
    <path d="M113.000,80.000 L137.247,38.017 L162.011,80.000 L113.000,80.000 Z" class="cls-5"/>
    <path d="M127.961,53.888 L133.120,51.329 L137.247,55.937 L140.343,50.816 L147.049,54.401 L137.247,36.993 L127.961,53.888 Z" class="cls-6"/>
  </g>
</svg>
