<svg xmlns="http://www.w3.org/2000/svg" xmlns:xlink="http://www.w3.org/1999/xlink" preserveAspectRatio="xMidYMid" width="158.969" height="132" viewBox="0 0 158.969 132">
  <defs>
    <style>
      .cls-1 {
        fill: #4e423d;
      }

      .cls-1, .cls-2, .cls-3, .cls-4 {
        fill-rule: evenodd;
      }

      .cls-2 {
        fill: #fff;
      }

      .cls-3 {
        fill: #5fc3ac;
      }

      .cls-4 {
        fill: #ee4055;
      }
    </style>
  </defs>
  <g>
    <path d="M-0.009,117.006 L63.456,7.480 L123.969,117.006 L-0.009,117.006 Z" class="cls-1"/>
    <path d="M98.964,120.003 L129.681,67.005 L158.969,120.003 L98.964,120.003 Z" class="cls-1"/>
    <path d="M50.961,28.081 L59.606,23.281 L63.448,30.001 L67.291,23.281 L74.976,27.121 L63.448,6.000 L50.961,28.081 Z" class="cls-2"/>
    <path d="M119.962,83.481 L126.807,79.681 L129.849,85.001 L132.890,79.681 L138.974,82.721 L129.849,66.000 L119.962,83.481 Z" class="cls-3"/>
    <path d="M132.969,132.000 L100.969,132.000 L91.969,132.000 L38.969,132.000 L71.275,75.080 L96.676,123.770 L112.557,96.000 L132.969,132.000 Z" class="cls-4"/>
    <path d="M116.934,114.293 L112.557,121.610 L106.722,115.024 L99.428,118.683 L112.557,94.537 L126.416,119.415 L116.934,114.293 ZM70.763,99.820 L65.646,92.604 L58.483,96.727 L71.710,73.317 L84.067,98.789 L75.368,92.604 L70.763,99.820 Z" class="cls-2"/>
    <path d="M156.969,39.000 L130.424,39.000 L131.969,42.000 L87.969,42.000 L111.026,1.325 L129.729,37.649 L143.029,14.021 L156.969,39.000 Z" class="cls-4"/>
    <path d="M145.102,21.032 L143.318,24.006 L140.941,21.329 L137.969,22.816 L143.318,13.003 L148.965,23.113 L145.102,21.032 ZM110.645,19.873 L106.835,14.463 L101.501,17.555 L111.351,0.003 L120.552,19.100 L114.075,14.463 L110.645,19.873 Z" class="cls-2"/>
  </g>
</svg>
