<svg xmlns="http://www.w3.org/2000/svg" xmlns:xlink="http://www.w3.org/1999/xlink" preserveAspectRatio="xMidYMid" width="20" height="16" viewBox="0 0 20 16">
  <defs>
    <style>
      .cls-1 {
        fill: #fff;
        fill-rule: evenodd;
      }
    </style>
  </defs>
  <path d="M56.864,6.425 L52.008,9.900 L53.875,15.544 C53.919,15.679 53.872,15.825 53.755,15.908 C53.697,15.949 53.629,15.970 53.561,15.970 C53.493,15.970 53.425,15.949 53.367,15.908 L48.500,12.423 L43.622,15.908 C43.507,15.990 43.350,15.990 43.234,15.908 C43.119,15.825 43.071,15.678 43.115,15.544 L44.982,9.899 L40.136,6.425 C40.021,6.342 39.972,6.195 40.016,6.062 C40.060,5.928 40.187,5.837 40.330,5.837 L46.319,5.837 L48.186,0.223 C48.231,0.090 48.358,-0.001 48.500,-0.000 C48.643,-0.000 48.770,0.091 48.814,0.224 L50.671,5.837 L56.670,5.837 C56.813,5.837 56.940,5.929 56.984,6.062 C57.028,6.195 56.980,6.343 56.864,6.425 ZM32.008,9.900 L33.875,15.544 C33.919,15.679 33.872,15.825 33.755,15.908 C33.697,15.949 33.629,15.970 33.561,15.970 C33.493,15.970 33.425,15.949 33.367,15.908 L28.500,12.423 L23.622,15.908 C23.507,15.990 23.350,15.990 23.234,15.908 C23.119,15.825 23.071,15.678 23.115,15.544 L24.982,9.899 L20.136,6.425 C20.021,6.342 19.972,6.195 20.016,6.062 C20.060,5.928 20.187,5.837 20.330,5.837 L26.319,5.837 L28.187,0.223 C28.231,0.090 28.358,-0.001 28.500,-0.000 C28.643,-0.000 28.770,0.091 28.814,0.224 L30.671,5.837 L36.670,5.837 C36.813,5.837 36.940,5.929 36.984,6.062 C37.028,6.195 36.980,6.343 36.864,6.425 L32.008,9.900 ZM12.008,9.900 L13.875,15.544 C13.919,15.679 13.872,15.825 13.755,15.908 C13.697,15.949 13.629,15.970 13.561,15.970 C13.493,15.970 13.425,15.949 13.367,15.908 L8.500,12.423 L3.622,15.908 C3.507,15.990 3.350,15.990 3.234,15.908 C3.119,15.825 3.071,15.678 3.115,15.544 L4.982,9.899 L0.136,6.425 C0.021,6.342 -0.028,6.195 0.016,6.062 C0.060,5.928 0.187,5.837 0.330,5.837 L6.319,5.837 L8.187,0.223 C8.231,0.090 8.358,-0.001 8.500,-0.000 C8.643,-0.000 8.770,0.091 8.814,0.224 L10.671,5.837 L16.670,5.837 C16.813,5.837 16.940,5.929 16.984,6.062 C17.028,6.195 16.980,6.343 16.864,6.425 L12.008,9.900 Z" class="cls-1"/>
</svg>
