<svg xmlns="http://www.w3.org/2000/svg" style="display: none;">
    <symbol id="icon_arrow-down" viewBox="0 0 512 512">
      <title>Layer 1</title><path d="M5.364 181.667l72.803-77.17L254.747 279.1l176.524-174.603 72.824 77.17L254.748 424.95z"/>
    </symbol>
    <symbol id="icon_arrow-down2" viewBox="0 0 20 11">
      <defs><style>.cls-1 { fill: #666; fill-rule: evenodd; }</style></defs><path d="M10 11l10-9-1-2-9 8-9-8-1 2 10 9z" class="cls-1"/>
    </symbol>
    <symbol id="icon_arrow-slider" viewBox="0 0 512 512">
      <title>Layer 1</title><path d="M179.102 505.59l-32.187-29.816 205.58-221.927-205.58-221.93 32.187-29.814 233.205 251.744z"/>
    </symbol>
    <symbol id="icon_arrow" viewBox="0 0 512 512">
      <title>Layer 1</title><path d="M178.083 6.27l-51.215 51.227L324.106 254.76l-197.25 197.237 51.227 51.238 248.22-248.22-.27-.256.27-.283z"/>
    </symbol>
    <symbol id="icon_arrow_acc" viewBox="0 0 61 12">
      <defs><style>.cls-1 { fill: #333; fill-rule: evenodd; }</style></defs><path d="M61 6l-9 6V7H0V5h52V0l9 6z" class="cls-1"/>
    </symbol>
    <symbol id="icon_arrow_basket" viewBox="0 0 18 16.5">
      <defs><style>.cls-1 { fill: #bcb5b2; fill-rule: evenodd; }</style></defs><path d="M9.758 16.492L8.436 15.25l6-6H0v-2h14.436l-6-6L9.758.008 18 8.25l-8.242 8.242z" class="cls-1"/>
    </symbol>
    <symbol id="icon_baloon" viewBox="0 0 23 21">
      <path fill="#fff" d="M2 0h19c1.105 0 2 .895 2 2v13c0 1.105-.895 2-2 2h-8l-4 4v-4H2c-1.105 0-2-.895-2-2V2C0 .895.895 0 2 0z" class="cls-1"/><path fill="#60c3ae" d="M4 5h15v1H4V5zm0 3h15v1H4V8zm0 3h9v1H4v-1z" class="cls-2"/>
    </symbol>
    <symbol id="icon_cart" viewBox="0 0 550 480">
      <title>Layer 1</title><path d="M75.78 82.02l44.125 258c1.143 6.963 7.657 11.16 14.485 9.313l392.064-106.44c6.797-1.866 12.388-9.134 12.388-16.204V93.934c0-7.07-5.79-12.44-12.858-12.44H138.407l-11.35-64.704H35.252c-17.977 0-32.535 14.632-32.535 32.567 0 17.988 14.558 32.557 32.536 32.557l40.53.106z"/><circle cx="168.216" cy="423.414" r="56.586"/><circle cx="455.835" cy="423.414" r="56.586"/>
    </symbol>
    <symbol id="icon_cat_block" viewBox="0 0 15 15">
      <defs><style>.cls-1 { fill: #d8d3d1; fill-rule: evenodd; }</style></defs><path d="M9 15V9h6v6H9zM9 0h6v6H9V0zM0 9h6v6H0V9zm0-9h6v6H0V0z" class="cls-1"/>
    </symbol>
    <symbol id="icon_cat_table" viewBox="0 0 15 15">
      <defs><style>.cls-1 { fill: #7d7470; fill-rule: evenodd; }</style></defs><path d="M8 15v-2h7v2H8zm0-6h7v2H8V9zm0-5h7v2H8V4zm0-4h7v2H8V0zM0 9h6v6H0V9zM0 .058L6 0v6H0V.058z" class="cls-1"/>
    </symbol>
    <symbol id="icon_check" viewBox="0 0 512 512">
      <title>Layer 1</title><path d="M203.308 440.88L5.368 242.953l70.187-70.218L203.308 300.51 439.634 64.16l70.186 70.23z"/>
    </symbol>
    <symbol id="icon_cross" viewBox="0 0 512 512">
      <title>Layer 1</title><path d="M498.44 61.26L440.927 3.737 250.94 193.726 60.965 3.735 3.455 61.26l189.974 189.975L3.453 441.225l57.51 57.524L250.94 308.76l189.988 189.99 57.51-57.526-189.974-189.99z"/>
    </symbol>
    <symbol id="icon_elki_centr" viewBox="0 0 214.906 82">
      <defs><style>.cls-1 { fill: #5fc3ac; } .cls-1, .cls-2, .cls-3 { fill-rule: evenodd; } .cls-2 { fill: #927b7c; } .cls-3 { fill: #6cc067; }</style></defs><path d="M183.95 66.996c-1.743 0-3.485-.644-4.812-1.934-.095-.092-.175-.194-.24-.302-1.508-1.35-3.865-1.314-5.326.11-.593.577-1.542.565-2.12-.03-.578-.595-.565-1.546.03-2.125 2.652-2.583 6.97-2.583 9.624 0 .094.092.174.194.24.3 1.508 1.35 3.864 1.314 5.327-.108.595-.577 1.544-.564 2.12.032.578.594.564 1.545-.03 2.122-1.327 1.29-3.07 1.934-4.813 1.934zm-71.9 0c-1.743 0-3.485-.645-4.81-1.934-.095-.092-.176-.193-.24-.3-1.51-1.35-3.865-1.315-5.328.107-.593.577-1.543.566-2.12-.03-.578-.596-.565-1.547.03-2.125 2.653-2.582 6.97-2.582 9.624 0 .093.092.173.193.238.3 1.508 1.35 3.866 1.313 5.33-.108.594-.578 1.544-.564 2.12.032.577.594.563 1.545-.032 2.122-1.327 1.29-3.07 1.934-4.812 1.934zm48.384 0c-1.742 0-3.484-.645-4.81-1.934-.096-.092-.176-.194-.242-.303-1.508-1.35-3.864-1.313-5.326.11-.593.577-1.543.566-2.12-.03-.58-.596-.565-1.547.03-2.125 2.653-2.582 6.97-2.582 9.625 0 .095.092.175.194.24.302 1.51 1.348 3.865 1.31 5.327-.11.595-.577 1.543-.564 2.12.032.578.594.564 1.545-.03 2.122-1.327 1.29-3.07 1.934-4.813 1.934zm-23.95 0c-1.743 0-3.485-.645-4.812-1.934-.095-.092-.175-.194-.24-.303-1.51-1.35-3.866-1.313-5.327.11-.593.577-1.543.566-2.12-.03-.58-.596-.564-1.547.03-2.125 2.653-2.582 6.97-2.582 9.625 0 .094.092.174.194.24.302 1.506 1.346 3.863 1.31 5.327-.11.593-.577 1.542-.564 2.12.032.577.594.563 1.545-.032 2.122-1.326 1.29-3.07 1.934-4.812 1.934zm60.302-11.107c-1.743 0-3.485-.645-4.812-1.935-.093-.09-.17-.19-.236-.296-1.508-1.356-3.866-1.32-5.33.104-.593.58-1.543.566-2.12-.03-.578-.594-.565-1.544.028-2.123 2.654-2.583 6.972-2.583 9.626 0 .092.09.17.19.235.296 1.508 1.352 3.868 1.318 5.332-.106.594-.578 1.543-.564 2.12.032.577.596.562 1.546-.032 2.124-1.327 1.29-3.07 1.933-4.812 1.933zm-95.416 0c-1.743 0-3.486-.645-4.812-1.934-.094-.092-.173-.192-.238-.3-1.51-1.353-3.865-1.315-5.328.108-.593.58-1.543.566-2.12-.03-.578-.594-.565-1.544.03-2.123 2.652-2.583 6.97-2.583 9.624 0 .093.092.172.192.236.298 1.51 1.35 3.87 1.315 5.332-.108.594-.578 1.543-.564 2.12.032.577.596.563 1.546-.032 2.124-1.326 1.29-3.07 1.933-4.812 1.933zm71.9 0c-1.742 0-3.485-.645-4.81-1.934-.094-.09-.174-.19-.238-.297-1.508-1.354-3.866-1.32-5.33.105-.594.578-1.543.564-2.12-.03-.578-.595-.565-1.546.03-2.124 2.652-2.583 6.97-2.583 9.623 0 .093.09.172.19.236.296 1.51 1.352 3.87 1.316 5.334-.106.594-.578 1.542-.564 2.12.032.577.596.563 1.546-.032 2.124-1.326 1.29-3.07 1.933-4.81 1.933zm-23.95 0c-1.743 0-3.486-.645-4.812-1.934-.093-.09-.173-.19-.237-.297-1.507-1.354-3.866-1.32-5.33.105-.593.578-1.542.564-2.12-.03-.577-.595-.564-1.546.03-2.124 2.653-2.583 6.97-2.583 9.624 0 .093.09.172.19.236.296 1.51 1.352 3.868 1.316 5.333-.106.595-.578 1.543-.564 2.12.032.577.596.563 1.546-.032 2.124-1.325 1.29-3.068 1.933-4.81 1.933zm-24.433 0c-1.743 0-3.486-.645-4.812-1.934-.093-.09-.172-.19-.237-.297-1.508-1.354-3.866-1.32-5.33.105-.594.578-1.543.564-2.12-.03-.578-.595-.565-1.546.03-2.124 2.652-2.583 6.97-2.583 9.623 0 .094.09.173.19.237.296 1.51 1.352 3.868 1.316 5.333-.106.594-.578 1.543-.564 2.12.032.577.596.563 1.546-.032 2.124-1.326 1.29-3.07 1.933-4.81 1.933zm84.735-9.97c-1.743 0-3.485-.645-4.812-1.935-.094-.09-.173-.19-.238-.298-1.508-1.353-3.865-1.32-5.33.107-.592.577-1.54.564-2.12-.03-.577-.595-.563-1.546.03-2.124 2.655-2.584 6.972-2.584 9.626 0 .093.09.17.19.236.297 1.508 1.353 3.867 1.316 5.33-.107.596-.578 1.545-.564 2.122.032s.563 1.546-.032 2.124c-1.327 1.29-3.07 1.933-4.812 1.933zm-23.516 0c-1.743 0-3.485-.645-4.812-1.935-.094-.09-.173-.19-.238-.298-1.508-1.354-3.864-1.32-5.33.107-.592.577-1.54.564-2.12-.03-.577-.595-.564-1.546.03-2.124 2.655-2.584 6.972-2.584 9.626 0 .093.09.172.19.236.297 1.51 1.353 3.868 1.316 5.33-.107.596-.578 1.545-.564 2.122.032s.563 1.546-.032 2.124c-1.327 1.29-3.07 1.933-4.812 1.933zm-23.95 0c-1.744 0-3.487-.645-4.813-1.934-.095-.092-.175-.193-.24-.3-1.51-1.354-3.864-1.317-5.326.107-.593.58-1.542.565-2.12-.03-.578-.594-.565-1.545.03-2.123 2.653-2.584 6.97-2.584 9.623 0 .094.09.173.192.238.3 1.51 1.35 3.867 1.312 5.33-.11.595-.578 1.544-.564 2.12.032.578.596.564 1.546-.03 2.124-1.328 1.29-3.07 1.933-4.813 1.933zm-24.434 0c-1.743 0-3.486-.645-4.812-1.934-.095-.092-.175-.193-.24-.3-1.508-1.352-3.864-1.315-5.326.108-.594.577-1.542.564-2.12-.03-.578-.595-.565-1.546.03-2.124 2.652-2.583 6.97-2.582 9.623 0 .094.09.173.192.238.3 1.51 1.35 3.867 1.312 5.33-.11.595-.578 1.544-.564 2.12.032.578.596.564 1.546-.03 2.124-1.327 1.29-3.07 1.933-4.813 1.933z" fill="#5fc3ac" class="cls-1"/><path d="M54 82v-.007h-.014v-7.98L57 74v6h4v2h-7zM19 61h4v9h7v3H19V61z" fill="#927b7c" class="cls-2"/><path d="M62.02 61L69 74H42l7.548-13H44l8.1-14H49l7-11 7 11h-3.49L67 61h-4.98zM0 61l11.053-20H3l12-22h-4L21 0l11 19h-4.667L40 41h-8.58L43 61H0z" fill="#6cc067" class="cls-3"/>
    </symbol>
    <symbol id="icon_elki_left" viewBox="0 0 296.563 154">
      <defs><style>.cls-1, .cls-2, .cls-3, .cls-4 { fill-rule: evenodd; }</style></defs><path d="M95.512 58.996c-1.742 0-3.485-.644-4.81-1.934-.096-.092-.176-.194-.24-.302-1.51-1.35-3.866-1.314-5.328.11-.593.577-1.542.565-2.12-.03-.578-.595-.564-1.546.03-2.125 2.653-2.583 6.97-2.583 9.624 0 .094.092.174.194.24.3 1.508 1.35 3.864 1.314 5.328-.108.594-.577 1.544-.564 2.12.032.577.594.563 1.545-.03 2.122-1.328 1.29-3.07 1.934-4.814 1.934zm-71.9 0c-1.742 0-3.484-.645-4.81-1.934-.095-.092-.175-.193-.24-.3-1.508-1.35-3.865-1.315-5.328.107-.593.577-1.543.566-2.12-.03-.578-.596-.564-1.547.03-2.125 2.654-2.582 6.97-2.582 9.624 0 .094.092.173.193.238.3 1.51 1.35 3.867 1.313 5.33-.108.595-.578 1.544-.564 2.12.032.577.594.563 1.545-.03 2.122-1.328 1.29-3.07 1.934-4.814 1.934zm48.385 0c-1.743 0-3.485-.645-4.81-1.934-.097-.092-.177-.194-.242-.303-1.51-1.35-3.865-1.313-5.327.11-.593.577-1.542.566-2.12-.03-.578-.596-.564-1.547.03-2.125 2.654-2.582 6.97-2.582 9.625 0 .095.092.174.194.24.302 1.51 1.348 3.865 1.31 5.327-.11.594-.577 1.543-.564 2.12.032.577.594.563 1.545-.03 2.122-1.328 1.29-3.07 1.934-4.813 1.934zm-23.95 0c-1.744 0-3.486-.645-4.812-1.934-.096-.092-.176-.194-.24-.303-1.51-1.35-3.866-1.313-5.328.11-.593.577-1.543.566-2.12-.03-.578-.596-.564-1.547.03-2.125 2.654-2.582 6.97-2.582 9.625 0 .094.092.174.194.24.302 1.507 1.346 3.863 1.31 5.327-.11.593-.577 1.542-.564 2.12.032.576.594.562 1.545-.033 2.122-1.326 1.29-3.068 1.934-4.81 1.934zm60.302-11.107c-1.744 0-3.487-.645-4.813-1.935-.093-.09-.172-.19-.237-.296-1.507-1.356-3.866-1.32-5.33.104-.592.58-1.543.566-2.12-.03-.578-.594-.565-1.544.03-2.123 2.653-2.583 6.97-2.583 9.624 0 .093.09.17.19.236.296 1.508 1.352 3.867 1.318 5.332-.106.595-.578 1.544-.564 2.12.032.577.596.563 1.546-.032 2.124-1.326 1.29-3.07 1.933-4.81 1.933zm-95.417 0c-1.743 0-3.486-.645-4.813-1.934-.094-.092-.173-.192-.238-.3-1.508-1.353-3.865-1.315-5.327.108-.594.58-1.543.566-2.12-.03-.58-.594-.566-1.544.028-2.123 2.654-2.583 6.972-2.583 9.625 0 .094.092.172.192.237.298 1.51 1.35 3.87 1.315 5.33-.108.596-.578 1.545-.564 2.122.032s.562 1.546-.032 2.124c-1.327 1.29-3.07 1.933-4.812 1.933zm71.9 0c-1.742 0-3.485-.645-4.812-1.934-.092-.09-.17-.19-.236-.297-1.507-1.354-3.866-1.32-5.33.105-.594.578-1.542.564-2.12-.03-.578-.595-.565-1.546.03-2.124 2.652-2.583 6.97-2.583 9.624 0 .093.09.17.19.236.296 1.51 1.352 3.868 1.316 5.332-.106.595-.578 1.543-.564 2.12.032.578.596.563 1.546-.03 2.124-1.328 1.29-3.07 1.933-4.813 1.933zm-23.95 0c-1.743 0-3.486-.645-4.813-1.934-.093-.09-.172-.19-.237-.297-1.507-1.354-3.867-1.32-5.33.105-.593.578-1.542.564-2.12-.03-.578-.595-.565-1.546.03-2.124 2.652-2.583 6.97-2.583 9.624 0 .093.09.17.19.236.296 1.508 1.352 3.868 1.316 5.332-.106.595-.578 1.543-.564 2.12.032.577.596.563 1.546-.03 2.124-1.328 1.29-3.07 1.933-4.813 1.933zm-24.434 0c-1.743 0-3.486-.645-4.813-1.934-.093-.09-.172-.19-.237-.297-1.507-1.354-3.866-1.32-5.33.105-.593.578-1.542.564-2.12-.03-.578-.595-.565-1.546.03-2.124 2.652-2.583 6.97-2.583 9.624 0 .093.09.17.19.236.296 1.51 1.352 3.867 1.316 5.332-.106.595-.578 1.543-.564 2.12.032.578.596.563 1.546-.03 2.124-1.328 1.29-3.07 1.933-4.813 1.933zm84.734-9.97c-1.743 0-3.485-.645-4.81-1.935-.095-.09-.175-.19-.24-.298-1.508-1.353-3.864-1.32-5.328.107-.594.577-1.543.564-2.12-.03-.578-.595-.565-1.546.03-2.124 2.653-2.584 6.97-2.584 9.624 0 .093.09.172.19.237.297 1.507 1.353 3.866 1.316 5.33-.107.596-.578 1.545-.564 2.122.032.575.596.56 1.546-.034 2.124-1.327 1.29-3.07 1.933-4.812 1.933zm-23.516 0c-1.743 0-3.485-.645-4.81-1.935-.095-.09-.175-.19-.24-.298-1.508-1.354-3.864-1.32-5.328.107-.594.577-1.542.564-2.12-.03-.578-.595-.565-1.546.03-2.124 2.653-2.584 6.97-2.584 9.624 0 .093.09.172.19.237.297 1.51 1.353 3.868 1.316 5.332-.107.595-.578 1.544-.564 2.12.032.577.596.563 1.546-.032 2.124-1.327 1.29-3.07 1.933-4.812 1.933zm-23.95 0c-1.744 0-3.486-.645-4.813-1.934-.095-.092-.174-.193-.24-.3-1.508-1.354-3.864-1.317-5.326.107-.593.58-1.543.565-2.122-.03-.577-.594-.563-1.545.03-2.123 2.654-2.584 6.97-2.584 9.625 0 .094.09.173.192.238.3 1.51 1.35 3.868 1.312 5.33-.11.596-.578 1.544-.564 2.122.032.576.596.562 1.546-.033 2.124-1.327 1.29-3.07 1.933-4.813 1.933zm-24.434 0c-1.743 0-3.485-.645-4.812-1.934-.094-.092-.174-.193-.24-.3-1.508-1.352-3.864-1.315-5.326.108-.593.577-1.542.564-2.12-.03-.577-.595-.564-1.546.03-2.124 2.653-2.583 6.97-2.582 9.624 0 .094.09.173.192.238.3 1.51 1.35 3.867 1.312 5.33-.11.595-.578 1.544-.564 2.12.032.577.596.563 1.546-.03 2.124-1.328 1.29-3.07 1.933-4.814 1.933z" fill="#5fc3ac"/><path d="M296.563 154h-150l19.208-33H98.563l69-119 32.405 60.253L224.563 20l72 134z" fill="#ee4055"/><path d="M216.562 154l32.688-56.11L279.563 154h-63z" fill="#4e423d" class="cls-3"/><path d="M178.562 145h-8.846l4.846 9h-30l4.847-9h-8.847l12.666-22h-4.668l11-18 11 18h-4.666l12.666 22zm-50 9h-10l1.334-2h-3.333l7-12 7 12h-3.334l1.333 2z" fill="#5fc3ac"/><path d="M252.562 115l-4 7-4-7-9 6 13-24 13 23-9-5zm-29-64l-6-9-9 5 16-28 16 30-11-7-6 9zm-57-1l-10-14-14 8 25-44 25 48-17-12-9 14z" fill="#fff"/>
    </symbol>
    <symbol id="icon_elki_right" viewBox="0 0 263 211">
      <defs><style>.cls-1 { fill: #5fc3ac; } .cls-1, .cls-2, .cls-3, .cls-4, .cls-5, .cls-6 { fill-rule: evenodd; } .cls-2 { fill: #927b7c; } .cls-3 { fill: #6cc067; } .cls-4 { fill: #4e423d; } .cls-5 { fill: #ee4055; } .cls-6 { fill: #fff; }</style></defs><path d="M150.95 64.996c-1.743 0-3.485-.644-4.812-1.934-.095-.092-.175-.194-.24-.302-1.508-1.35-3.865-1.314-5.326.11-.593.577-1.542.565-2.12-.03-.578-.595-.565-1.546.03-2.125 2.652-2.583 6.97-2.583 9.624 0 .094.092.174.194.24.3 1.508 1.35 3.864 1.314 5.327-.108.595-.577 1.544-.564 2.12.032.578.594.564 1.545-.03 2.122-1.327 1.29-3.07 1.934-4.813 1.934zm-71.9 0c-1.743 0-3.485-.645-4.81-1.934-.095-.092-.176-.193-.24-.3-1.51-1.35-3.865-1.315-5.328.107-.593.577-1.543.566-2.12-.03-.578-.596-.565-1.547.03-2.125 2.653-2.582 6.97-2.582 9.624 0 .093.092.173.193.238.3 1.508 1.35 3.866 1.313 5.33-.108.594-.578 1.544-.564 2.12.032.577.594.563 1.545-.032 2.122-1.327 1.29-3.07 1.934-4.812 1.934zm48.384 0c-1.742 0-3.484-.645-4.81-1.934-.096-.092-.176-.194-.242-.303-1.508-1.35-3.864-1.313-5.326.11-.593.577-1.543.566-2.12-.03-.58-.596-.565-1.547.03-2.125 2.653-2.582 6.97-2.582 9.625 0 .095.092.175.194.24.302 1.51 1.348 3.865 1.31 5.327-.11.595-.577 1.543-.564 2.12.032.578.594.564 1.545-.03 2.122-1.327 1.29-3.07 1.934-4.813 1.934zm-23.95 0c-1.743 0-3.485-.645-4.812-1.934-.095-.092-.175-.194-.24-.303-1.51-1.35-3.866-1.313-5.327.11-.593.577-1.543.566-2.12-.03-.58-.596-.564-1.547.03-2.125 2.653-2.582 6.97-2.582 9.625 0 .094.092.174.194.24.302 1.506 1.346 3.863 1.31 5.327-.11.593-.577 1.542-.564 2.12.032.577.594.563 1.545-.032 2.122-1.326 1.29-3.07 1.934-4.812 1.934zm60.302-11.107c-1.743 0-3.485-.645-4.812-1.935-.093-.09-.17-.19-.236-.296-1.508-1.356-3.866-1.32-5.33.104-.593.58-1.543.566-2.12-.03-.578-.594-.565-1.544.028-2.123 2.654-2.583 6.972-2.583 9.626 0 .092.09.17.19.235.296 1.508 1.352 3.868 1.318 5.332-.106.594-.578 1.543-.564 2.12.032.577.596.562 1.546-.032 2.124-1.327 1.29-3.07 1.933-4.812 1.933zm-95.416 0c-1.743 0-3.486-.645-4.812-1.934-.094-.092-.173-.192-.238-.3-1.51-1.353-3.865-1.315-5.328.108-.593.58-1.543.566-2.12-.03-.578-.594-.565-1.544.03-2.123 2.652-2.583 6.97-2.583 9.624 0 .093.092.172.192.236.298 1.51 1.35 3.87 1.315 5.332-.108.594-.578 1.543-.564 2.12.032.577.596.563 1.546-.032 2.124-1.326 1.29-3.07 1.933-4.812 1.933zm71.9 0c-1.742 0-3.485-.645-4.81-1.934-.094-.09-.174-.19-.238-.297-1.508-1.354-3.866-1.32-5.33.105-.594.578-1.543.564-2.12-.03-.578-.595-.565-1.546.03-2.124 2.652-2.583 6.97-2.583 9.623 0 .093.09.172.19.236.296 1.51 1.352 3.87 1.316 5.334-.106.594-.578 1.542-.564 2.12.032.577.596.563 1.546-.032 2.124-1.326 1.29-3.07 1.933-4.81 1.933zm-23.95 0c-1.743 0-3.486-.645-4.812-1.934-.093-.09-.173-.19-.237-.297-1.507-1.354-3.866-1.32-5.33.105-.593.578-1.542.564-2.12-.03-.577-.595-.564-1.546.03-2.124 2.653-2.583 6.97-2.583 9.624 0 .093.09.172.19.236.296 1.51 1.352 3.868 1.316 5.333-.106.595-.578 1.543-.564 2.12.032.577.596.563 1.546-.032 2.124-1.325 1.29-3.068 1.933-4.81 1.933zm-24.433 0c-1.743 0-3.486-.645-4.812-1.934-.093-.09-.172-.19-.237-.297-1.508-1.354-3.866-1.32-5.33.105-.594.578-1.543.564-2.12-.03-.578-.595-.565-1.546.03-2.124 2.652-2.583 6.97-2.583 9.623 0 .094.09.173.19.237.296 1.51 1.352 3.868 1.316 5.333-.106.594-.578 1.543-.564 2.12.032.577.596.563 1.546-.032 2.124-1.326 1.29-3.07 1.933-4.81 1.933zm84.735-9.97c-1.743 0-3.485-.645-4.812-1.935-.094-.09-.173-.19-.238-.298-1.508-1.353-3.865-1.32-5.33.107-.592.577-1.54.564-2.12-.03-.577-.595-.563-1.546.03-2.124 2.655-2.584 6.972-2.584 9.626 0 .093.09.17.19.236.297 1.508 1.353 3.867 1.316 5.33-.107.596-.578 1.545-.564 2.122.032s.563 1.546-.032 2.124c-1.327 1.29-3.07 1.933-4.812 1.933zm-23.516 0c-1.743 0-3.485-.645-4.812-1.935-.094-.09-.173-.19-.238-.298-1.508-1.354-3.864-1.32-5.33.107-.592.577-1.54.564-2.12-.03-.577-.595-.564-1.546.03-2.124 2.655-2.584 6.972-2.584 9.626 0 .093.09.172.19.236.297 1.51 1.353 3.868 1.316 5.33-.107.596-.578 1.545-.564 2.122.032s.563 1.546-.032 2.124c-1.327 1.29-3.07 1.933-4.812 1.933zm-23.95 0c-1.744 0-3.487-.645-4.813-1.934-.095-.092-.175-.193-.24-.3-1.51-1.354-3.864-1.317-5.326.107-.593.58-1.542.565-2.12-.03-.578-.594-.565-1.545.03-2.123 2.653-2.584 6.97-2.584 9.623 0 .094.09.173.192.238.3 1.51 1.35 3.867 1.312 5.33-.11.595-.578 1.544-.564 2.12.032.578.596.564 1.546-.03 2.124-1.328 1.29-3.07 1.933-4.813 1.933zm-24.434 0c-1.743 0-3.486-.645-4.812-1.934-.095-.092-.175-.193-.24-.3-1.508-1.352-3.864-1.315-5.326.108-.594.577-1.542.564-2.12-.03-.578-.595-.565-1.546.03-2.124 2.652-2.583 6.97-2.582 9.623 0 .094.09.173.192.238.3 1.51 1.35 3.867 1.312 5.33-.11.595-.578 1.544-.564 2.12.032.578.596.564 1.546-.03 2.124-1.327 1.29-3.07 1.933-4.813 1.933z" fill="#5fc3ac"/><path d="M248 82v-.007h-.014v-7.98L251 74v6h4v2h-7zm-35-21h4v9h7v3h-11V61z" fill="#927b7c"/><path d="M256.02 61L263 74h-27l7.548-13H238l8.1-14H243l7-11 7 11h-3.49L261 61h-4.98zM194 61l11.053-20H197l12-22h-4l10-19 11 19h-4.667L234 41h-8.58L237 61h-43z" class="cls-3" fill="#6cc067"/><path d="M86 163l43-74 41 74H86z" fill="#4e423d" class="cls-4"/><path d="M116 111l9-5 4 7 4-7 8 4-12-22-13 23z" fill="#5fc3ac" class="cls-1"/><path d="M153 211H58l15.476-27H0l48.403-83.59 35.185 65.948L105 129l48 82z" fill="#ee4055" class="cls-5"/><path d="M111 154l-6 10-8-9-10 5 18-33 19 34-13-7zm-63.3-19.78l-7.013-9.862-9.82 5.636L49 98l16.94 34.81-11.925-8.452-6.314 9.862z" fill="#fff" class="cls-6"/>
    </symbol>
    <symbol id="icon_elki_yellow" viewBox="0 0 211 82">
      <title>Group</title><g fill="none" fill-rule="evenodd"><path d="M95.95 66.996c-1.743 0-3.485-.644-4.812-1.934-.095-.092-.175-.194-.24-.302-1.508-1.35-3.865-1.314-5.326.11-.593.577-1.542.565-2.12-.03-.578-.595-.565-1.546.03-2.125 2.652-2.583 6.97-2.583 9.624 0 .094.092.174.194.24.3 1.508 1.35 3.864 1.314 5.327-.108.595-.577 1.544-.564 2.12.032.578.594.564 1.545-.03 2.122-1.327 1.29-3.07 1.934-4.813 1.934zm-71.9 0c-1.743 0-3.485-.645-4.81-1.934-.095-.092-.176-.193-.24-.3-1.51-1.35-3.865-1.315-5.328.107-.593.577-1.543.566-2.12-.03-.578-.596-.565-1.547.03-2.125 2.653-2.582 6.97-2.582 9.624 0 .093.092.173.193.238.3 1.508 1.35 3.866 1.313 5.33-.108.594-.578 1.544-.564 2.12.032.577.594.563 1.545-.032 2.122-1.327 1.29-3.07 1.934-4.812 1.934zm48.384 0c-1.742 0-3.484-.645-4.81-1.934-.096-.092-.176-.194-.242-.303-1.508-1.35-3.864-1.313-5.326.11-.593.577-1.543.566-2.12-.03-.58-.596-.565-1.547.03-2.125 2.653-2.582 6.97-2.582 9.625 0 .095.092.175.194.24.302 1.51 1.348 3.865 1.31 5.327-.11.595-.577 1.543-.564 2.12.032.578.594.564 1.545-.03 2.122-1.327 1.29-3.07 1.934-4.813 1.934zm-23.95 0c-1.743 0-3.485-.645-4.812-1.934-.095-.092-.175-.194-.24-.303-1.51-1.35-3.866-1.313-5.327.11-.593.577-1.543.566-2.12-.03-.58-.596-.564-1.547.03-2.125 2.653-2.582 6.97-2.582 9.625 0 .094.092.174.194.24.302 1.506 1.346 3.863 1.31 5.327-.11.593-.577 1.542-.564 2.12.032.577.594.563 1.545-.032 2.122-1.326 1.29-3.07 1.934-4.812 1.934zm60.302-11.107c-1.743 0-3.485-.645-4.812-1.935-.093-.09-.17-.19-.236-.296-1.508-1.356-3.866-1.32-5.33.104-.593.58-1.543.566-2.12-.03-.578-.594-.565-1.544.028-2.123 2.654-2.583 6.972-2.583 9.626 0 .092.09.17.19.235.296 1.508 1.352 3.868 1.318 5.332-.106.594-.578 1.543-.564 2.12.032.577.596.562 1.546-.032 2.124-1.327 1.29-3.07 1.933-4.812 1.933zm-95.416 0c-1.743 0-3.486-.645-4.812-1.934-.094-.092-.173-.192-.238-.3-1.51-1.353-3.865-1.315-5.328.108-.593.58-1.543.566-2.12-.03-.578-.594-.565-1.544.03-2.123 2.652-2.583 6.97-2.583 9.624 0 .093.092.172.192.236.298 1.51 1.35 3.87 1.315 5.332-.108.594-.578 1.543-.564 2.12.032.577.596.563 1.546-.032 2.124-1.326 1.29-3.07 1.933-4.812 1.933zm71.9 0c-1.742 0-3.485-.645-4.81-1.934-.094-.09-.174-.19-.238-.297-1.508-1.354-3.866-1.32-5.33.105-.594.578-1.543.564-2.12-.03-.578-.595-.565-1.546.03-2.124 2.652-2.583 6.97-2.583 9.623 0 .093.09.172.19.236.296 1.51 1.352 3.87 1.316 5.334-.106.594-.578 1.542-.564 2.12.032.577.596.563 1.546-.032 2.124-1.326 1.29-3.07 1.933-4.81 1.933zm-23.95 0c-1.743 0-3.486-.645-4.812-1.934-.093-.09-.173-.19-.237-.297-1.507-1.354-3.866-1.32-5.33.105-.593.578-1.542.564-2.12-.03-.577-.595-.564-1.546.03-2.124 2.653-2.583 6.97-2.583 9.624 0 .093.09.172.19.236.296 1.51 1.352 3.868 1.316 5.333-.106.595-.578 1.543-.564 2.12.032.577.596.563 1.546-.032 2.124-1.325 1.29-3.068 1.933-4.81 1.933zm-24.433 0c-1.743 0-3.486-.645-4.812-1.934-.093-.09-.172-.19-.237-.297-1.508-1.354-3.866-1.32-5.33.105-.594.578-1.543.564-2.12-.03-.578-.595-.565-1.546.03-2.124 2.652-2.583 6.97-2.583 9.623 0 .094.09.173.19.237.296 1.51 1.352 3.868 1.316 5.333-.106.594-.578 1.543-.564 2.12.032.577.596.563 1.546-.032 2.124-1.326 1.29-3.07 1.933-4.81 1.933zm84.735-9.97c-1.743 0-3.485-.645-4.812-1.935-.094-.09-.173-.19-.238-.298-1.508-1.353-3.865-1.32-5.33.107-.592.577-1.54.564-2.12-.03-.577-.595-.563-1.546.03-2.124 2.655-2.584 6.972-2.584 9.626 0 .093.09.17.19.236.297 1.508 1.353 3.867 1.316 5.33-.107.596-.578 1.545-.564 2.122.032s.563 1.546-.032 2.124c-1.327 1.29-3.07 1.933-4.812 1.933zm-23.516 0c-1.743 0-3.485-.645-4.812-1.935-.094-.09-.173-.19-.238-.298-1.508-1.354-3.864-1.32-5.33.107-.592.577-1.54.564-2.12-.03-.577-.595-.564-1.546.03-2.124 2.655-2.584 6.972-2.584 9.626 0 .093.09.172.19.236.297 1.51 1.353 3.868 1.316 5.33-.107.596-.578 1.545-.564 2.122.032s.563 1.546-.032 2.124c-1.327 1.29-3.07 1.933-4.812 1.933zm-23.95 0c-1.744 0-3.487-.645-4.813-1.934-.095-.092-.175-.193-.24-.3-1.51-1.354-3.864-1.317-5.326.107-.593.58-1.542.565-2.12-.03-.578-.594-.565-1.545.03-2.123 2.653-2.584 6.97-2.584 9.623 0 .094.09.173.192.238.3 1.51 1.35 3.867 1.312 5.33-.11.595-.578 1.544-.564 2.12.032.578.596.564 1.546-.03 2.124-1.328 1.29-3.07 1.933-4.813 1.933zm-24.434 0c-1.743 0-3.486-.645-4.812-1.934-.095-.092-.175-.193-.24-.3-1.508-1.352-3.864-1.315-5.326.108-.594.577-1.542.564-2.12-.03-.578-.595-.565-1.546.03-2.124 2.652-2.583 6.97-2.582 9.623 0 .094.09.173.192.238.3 1.51 1.35 3.867 1.312 5.33-.11.595-.578 1.544-.564 2.12.032.578.596.564 1.546-.03 2.124-1.327 1.29-3.07 1.933-4.813 1.933z" fill="#5FC3AC"/><path d="M196 82v-.007h-.014v-7.98L199 74v6h4v2h-7zm-35-21h4v9h7v3h-11V61z" fill="#927B7C"/><path d="M204.02 61L211 74h-27l7.548-13H186l8.1-14H191l7-11 7 11h-3.49L209 61h-4.98zM142 61l11.053-20H145l12-22h-4l10-19 11 19h-4.667L182 41h-8.58L185 61h-43z" fill="#6CC067"/></g>
    </symbol>
    <symbol id="icon_footer1" viewBox="0 0 158.969 132">
      <defs><style>.cls-1 { fill: #4e423d; } .cls-1, .cls-2, .cls-3, .cls-4 { fill-rule: evenodd; } .cls-2 { fill: #fff; } .cls-3 { fill: #5fc3ac; } .cls-4 { fill: #ee4055; }</style></defs><path d="M-.01 117.006L63.457 7.48l60.513 109.526H-.01z" class="cls-1" fill="#4e423d"/><path d="M98.964 120.003l30.717-52.998 29.29 52.998H98.963z" class="cls-1" fill="#4e423d"/><path d="M50.96 28.08l8.646-4.8L63.448 30l3.843-6.72 7.686 3.84L63.448 6 50.96 28.08z" class="cls-2" fill="#fff"/><path d="M119.962 83.48l6.845-3.8L129.85 85l3.04-5.32 6.084 3.04L129.85 66l-9.888 17.48z" class="cls-3" fill="#5fc3ac"/><path d="M132.97 132h-94l32.305-56.92 25.4 48.69L112.558 96l20.412 36z" class="cls-4" fill="#ee4055"/><path d="M116.934 114.293l-4.377 7.317-5.835-6.586-7.294 3.66 13.13-24.147 13.858 24.878-9.482-5.122zM70.764 99.82l-5.118-7.216-7.163 4.123 13.227-23.41L84.067 98.79l-8.7-6.186-4.604 7.216z" class="cls-2" fill="#fff"/><path d="M156.97 39h-26.546l1.545 3h-44l23.056-40.675L129.73 37.65l13.3-23.63L156.97 39z" class="cls-4" fill="#ee4055"/><path d="M145.102 21.032l-1.784 2.974-2.377-2.677-2.97 1.486 5.348-9.813 5.647 10.11-3.863-2.08zm-34.457-1.16l-3.81-5.41-5.334 3.093L111.35.003l9.202 19.097-6.477-4.637-3.43 5.41z" class="cls-2" fill="#fff"/>
    </symbol>
    <symbol id="icon_footer2" viewBox="0 0 186 94">
      <defs><style>.cls-1 { fill: #927b7c; } .cls-1, .cls-2, .cls-3, .cls-4, .cls-5, .cls-6 { fill-rule: evenodd; } .cls-2 { fill: #6cc067; } .cls-3 { fill: #4e423d; } .cls-4 { fill: #5fc3ac; } .cls-5 { fill: #ee4055; } .cls-6 { fill: #fff; }</style></defs><path d="M54 94v-.007h-.014v-7.98L57 86v6h4v2h-7zM19 73h4v9h7v3H19V73z" class="cls-1" fill="#927b7c"/><path d="M62.02 73L69 86H42l7.548-13H44l8.1-14H49l7-11 7 11h-3.49L67 73h-4.98zM0 73l11.053-20H3l12-22h-4l10-19 11 19h-4.667L40 53h-8.58L43 73H0z" class="cls-2" fill="#6cc067"/><path d="M131.25 48.78L159.277.65 186 48.78h-54.75z" class="cls-3" fill="#4e423d"/><path d="M150.804 14.96l5.866-3.253 2.607 4.553 2.607-4.553 5.214 2.602L159.278 0l-8.474 14.96z" class="cls-4" fill="#5fc3ac"/><path d="M113 80l24.247-41.983L162.01 80H113z" class="cls-5" fill="#ee4055"/><path d="M127.96 53.888l5.16-2.56 4.127 4.61 3.096-5.122 6.706 3.585-9.803-17.407-9.286 16.895z" class="cls-6" fill="#fff"/>
    </symbol>
    <symbol id="icon_hamburger" viewBox="0 0 512 512">
      <title>Layer 1</title><path d="M4.22 52.176h503.56v73.44H4.22zM4.22 386.396h503.56v73.428H4.22zM4.22 219.28h503.56v73.438H4.22z"/>
    </symbol>
    <symbol id="icon_heart" viewBox="0 0 550 550">
      <title>Layer 1</title><path d="M498.296 150.926c-51.922-47.653-136.096-47.653-188.04 0L275 183.29l-35.27-32.364c-51.91-47.653-136.096-47.653-188.017 0-58.42 53.618-58.42 140.53 0 194.148L275 550l223.296-204.926c58.407-53.617 58.407-140.53 0-194.148z"/>
    </symbol>
    <symbol id="icon_iron_2" viewBox="0 0 255.438 226">
      <path fill="#333" d="M61.438 0h179l15 17-46 186-130 23-79.43-30.57L42.44 15l19-15zm1 2h177l13.714 15.714-45.714 183.43-127.57 22.57L2.58 194 44.44 16l18-14z" class="cls-1"/>
    </symbol>
    <symbol id="icon_kav" viewBox="0 0 11.469 7.56">
      <defs><style>.cls-1 { fill: #968b88; fill-rule: evenodd; }</style></defs><path d="M3.465 5.768c.66-.85.99-1.787.99-2.813 0-.85-.263-1.552-.785-2.11C3.147.29 2.564.012 1.92.012 1.38.01.925.188.55.54.174.89-.014 1.3-.014 1.768c0 .42.146.777.44 1.07.292.293.644.44 1.054.44.215 0 .43-.04.645-.118.214-.078.37-.117.468-.117.127 0 .244.07.352.205.097.137.146.342.146.615 0 .596-.152 1.12-.46 1.575-.308.454-.955.96-1.94 1.516v.615c1.19-.352 2.116-.953 2.775-1.802zm7.03-.066c.65-.845.975-1.755.975-2.732 0-.83-.263-1.53-.79-2.102C10.15.298 9.555.01 8.89.01c-.527 0-.972.172-1.333.514-.362.342-.543.747-.543 1.215 0 .42.15.78.447 1.083.298.303.647.454 1.047.454.167 0 .362-.038.587-.117.215-.078.386-.117.513-.117.117 0 .224.064.322.19.098.137.147.377.147.718 0 .578-.19 1.112-.565 1.605-.376.494-.99.96-1.84 1.4v.614c1.232-.4 2.172-1.023 2.82-1.868z" class="cls-1"/>
    </symbol>
    <symbol id="icon_location" viewBox="0 0 512 512">
      <title>Layer 1</title><path d="M252.673 9.178c-83.295 0-153.586 67.866-153.586 151.59 0 135.484 123.807 142.99 148.01 337.957.726 5.88 10.407 5.88 11.134 0 24.233-194.967 148.03-202.463 148.03-337.956.01-83.726-70.3-151.592-153.587-151.592zm0 220.25c-36.35 0-65.823-29.465-65.823-65.833 0-36.358 29.474-65.833 65.823-65.833 36.368 0 65.832 29.474 65.832 65.833 0 36.368-29.464 65.832-65.832 65.832z"/>
    </symbol>
    <symbol id="icon_logo_full" viewBox="0 0 233.063 102.938">
      <defs><style>.cls-1 { fill: #ee4055; } .cls-1, .cls-2, .cls-3 { fill-rule: evenodd; } .cls-2 { fill: #837a77; } .cls-3 { fill: #4b413c; }</style></defs><path d="M156.79 15.732h-4.423l-4.266 16.55c-.12.464-.552.777-1.026.777-.086 0-.17-.01-.257-.032-.568-.137-.913-.693-.773-1.243l4.14-16.053h-4.005c-.587 0-1.06-.46-1.06-1.025 0-.566.473-1.025 1.06-1.025h10.61c.584 0 1.06.46 1.06 1.025 0 .566-.476 1.025-1.06 1.025zm-20.072 16.713c-.122.463-.553.772-1.027.772-.085 0-.172-.01-.26-.033-.568-.14-.91-.696-.766-1.244l3.87-14.72-23.278 15.38c-.364.242-.843.24-1.204-.004-.36-.244-.528-.676-.42-1.09l4.397-16.912c.142-.55.72-.882 1.284-.745.568.137.913.694.77 1.243l-3.717 14.293 23.288-15.39c.364-.24.843-.238 1.205.008.362.244.53.678.42 1.09l-4.562 17.35zm-2.34-21.44c-1.733 0-3.575-.632-5.046-1.61-1.652-1.1-4.066-1.493-5.484-.12-.413.4-1.085.4-1.498 0-.414-.4-.414-1.05 0-1.45 2.34-2.265 5.88-1.65 8.18-.12 1.912 1.27 4.698 1.794 6.058.478.414-.4 1.085-.4 1.5 0 .412.4.412 1.05 0 1.45-1 .965-2.32 1.373-3.71 1.373zM106.94 28.462c.318.71.864 1.74 1.278 2.518.218.412.407.767.524 1.003.255.513.033 1.124-.494 1.37-.147.068-.305.102-.458.102-.395 0-.772-.214-.956-.58-.112-.226-.292-.566-.5-.957-.17-.322-.356-.67-.538-1.02-1.164 1.488-3.013 2.488-4.895 2.488-1.335 0-2.492-.504-3.26-1.42-.783-.935-1.057-2.172-.77-3.484l2.72-10.745c.744-2.512 3.338-4.45 5.915-4.45 1.365 0 2.537.523 3.303 1.47.778.966 1.03 2.285.685 3.617-.035.134-2.108 8.334-2.553 10.09zm.198-12.442c-.356-.44-.936-.683-1.633-.683-1.654 0-3.39 1.313-3.87 2.926l-2.7 10.675c-.143.662-.02 1.292.353 1.738.357.427.93.66 1.613.66 1.69 0 3.476-1.39 3.9-3.037.04-.152 2.595-10.26 2.635-10.414.188-.734.084-1.393-.297-1.864zm-15.863 2.664c-.87-1.977-2.892-3.16-5.404-3.16-4.322 0-8.94 3.755-10.087 8.197-.522 2.026-.197 3.9.913 5.278 1.056 1.307 2.733 2.026 4.718 2.026 3.46 0 7.436-2.058 9.244-4.788.316-.477.972-.617 1.464-.31.493.305.636.94.32 1.415-2.2 3.323-6.84 5.734-11.028 5.734-2.652 0-4.92-1-6.387-2.814-1.522-1.885-1.982-4.384-1.3-7.037 1.363-5.284 6.924-9.748 12.144-9.748 3.39 0 6.14 1.646 7.355 4.404.23.52-.02 1.122-.56 1.344-.54.222-1.16-.02-1.39-.542zM67.913 28.795c-.663 2.57-3.278 4.588-5.955 4.588-1.334 0-2.49-.503-3.26-1.42-.783-.935-1.056-2.172-.77-3.484l2.72-10.745c.743-2.512 3.337-4.45 5.914-4.45 1.364 0 2.537.522 3.303 1.47.78.966 1.03 2.284.684 3.617-.02.082-2.597 10.27-2.637 10.423zm.283-12.777c-.356-.44-.937-.683-1.634-.683-1.654 0-3.39 1.313-3.868 2.926l-2.7 10.675c-.145.663-.023 1.292.352 1.74.357.425.93.66 1.612.66 1.69 0 3.476-1.392 3.9-3.04.05-.192 2.613-10.33 2.634-10.413.19-.734.083-1.394-.296-1.864zM50.37 32.165c-.124.46-.555.765-1.025.765-.09 0-.18-.01-.268-.033-.566-.144-.905-.704-.758-1.25l3.805-14.09L36.51 32.56c-.415.398-1.086.396-1.5-.005-.41-.402-.408-1.05.006-1.45l18.367-17.648c.34-.325.86-.39 1.276-.16.414.23.617.7.496 1.146L50.37 32.165zm-32.327-5.423c.18.727.504 1.39.97 1.967 1.037 1.283 2.683 1.99 4.635 1.99 3.405 0 7.314-2.026 9.094-4.712.316-.476.972-.614 1.463-.31.493.305.637.94.322 1.416-2.172 3.277-6.747 5.656-10.88 5.656-2.617 0-4.856-.988-6.304-2.78-1.502-1.858-1.96-4.327-1.284-6.945 1.31-5.087 6.67-9.228 11.944-9.228 3.347 0 6.06 1.626 7.26 4.35.226.513-.014 1.107-.54 1.336l-16.68 7.26zm9.96-10.896c-4.362 0-8.796 3.443-9.887 7.676-.09.346-.154.688-.193 1.024l14.89-6.478c-1.01-1.406-2.74-2.222-4.81-2.222zm-18.79 1.926c.66.376 1.242.862 1.72 1.454 1.28 1.582 1.666 3.677 1.095 5.897-1.105 4.282-5.615 7.766-10.056 7.766-.165 0-.32-.04-.46-.106-.136.06-.284.096-.438.096-.086 0-.17-.01-.257-.03-.568-.138-.914-.694-.773-1.243L6.17 7.843c.143-.55.72-.883 1.286-.747.068.017.132.04.193.068.072-.016.147-.025.224-.025 1.647 0 3.062.626 3.98 1.765.938 1.16 1.237 2.752.82 4.368-.48 1.86-1.793 3.48-3.46 4.5zm.76 6.855c.41-1.595.158-3.065-.71-4.138-.823-1.02-2.132-1.582-3.687-1.582-.018 0-.036-.004-.054-.005h-.018l-3.07 11.914c3.374-.228 6.693-2.914 7.54-6.19zm.212-14.46c-.485-.603-1.257-.943-2.178-.973l-1.96 7.608c2.055-.32 4.058-2.03 4.572-4.024.26-1.016.106-1.94-.435-2.612z" class="cls-1"/><path d="M102.434 52.98L99.83 63.216c-.094.373-.43.622-.798.622-.068 0-.136-.008-.204-.026-.442-.112-.71-.56-.597-1.003l2.604-10.237c.113-.442.562-.708 1.004-.597.44.113.708.562.596 1.004zM99.58 66.718c0 .88-.717 1.598-1.598 1.598-.88 0-1.597-.717-1.597-1.598 0-.88.716-1.597 1.597-1.597.88 0 1.598.718 1.598 1.598zm-1.598-.053c-.03 0-.053.024-.053.053 0 .03.023.054.052.054.03 0 .054-.024.054-.054s-.024-.053-.054-.053zm-6.78.418c-.1.367-.434.608-.797.608-.072 0-.145-.008-.217-.028-.44-.12-.7-.574-.58-1.014l.82-3.002c-1.248.983-4.202 3.238-5.242 4.03-.15.114-.325.17-.5.17-.25 0-.494-.113-.657-.326-.278-.363-.208-.88.155-1.157 1.34-1.022 3.234-2.47 4.46-3.42-.29-.184-.543-.417-.752-.698-.583-.785-.73-1.855-.407-2.935.587-1.955 2.554-3.374 4.677-3.374l.934.002c.35 0 .648.22.767.53.097.18.13.394.07.607l-2.733 10.008zm-2.135-7.298c-.175.584-.122 1.108.15 1.475.244.327.66.508 1.172.513.03 0 .06 0 .09.003h.46l1.14-4.182c-1.377.035-2.637.942-3.013 2.19zm-6.973-.654c-.5-1.17-1.616-1.84-3.065-1.84-2.468 0-5.207 2.305-5.863 4.934-.3 1.2-.117 2.302.513 3.108.596.763 1.547 1.184 2.678 1.184 2.015 0 4.33-1.24 5.38-2.882.247-.383.758-.495 1.142-.25.384.247.495.757.25 1.14-1.353 2.11-4.2 3.643-6.772 3.643-1.65 0-3.063-.646-3.98-1.818-.95-1.216-1.237-2.823-.813-4.525.85-3.412 4.2-6.187 7.464-6.187 2.11 0 3.824 1.064 4.583 2.847.178.42-.017.904-.436 1.082-.42.18-.904-.016-1.083-.436zm-14.652 8.107c-.096.374-.43.622-.8.622-.067 0-.136-.01-.204-.026-.442-.113-.71-.562-.597-1.004l2.066-8.118-12.8 8.746c-.284.193-.658.19-.94-.005-.28-.196-.41-.546-.327-.878l2.508-9.98c.112-.44.56-.71 1.002-.598.442.11.71.56.6 1.002l-1.98 7.867 12.81-8.75c.283-.195.656-.192.938.004.28.198.41.548.327.88l-2.603 10.237zM65.784 54.68c-1.018 0-2.076-.358-2.892-.912-.812-.55-2.046-.906-2.853-.1-.323.323-.846.323-1.168 0-.323-.322-.323-.845 0-1.167 1.25-1.25 3.19-1.288 4.946-.098.843.57 2.416.96 3.174.2.322-.322.845-.322 1.168 0 .322.323.322.846 0 1.168-.64.64-1.494.91-2.376.91zm-14.57 4.462c.01.095.007.192-.018.29l-1.425 5.516c.18.445.557 1.17.795 1.63.122.233.224.43.286.56.2.41.027.903-.384 1.1-.115.057-.238.084-.358.084-.307 0-.602-.172-.744-.467-.057-.12-.152-.3-.264-.516-.112-.216-.22-.425-.32-.625-.727.787-1.756 1.295-2.8 1.295-.852 0-1.59-.334-2.083-.94-.503-.62-.68-1.437-.497-2.3l.01-.034 1.572-6.124.006-.022c.465-1.62 2.05-2.842 3.684-2.842.87 0 1.62.347 2.11.976.5.64.66 1.507.442 2.383l-.01.035zm-1.732-1.402c-.174-.223-.454-.34-.81-.34-.877 0-1.834.747-2.094 1.635l-1.566 6.093c-.072.36-.013.68.167.9.174.217.45.33.8.33.915 0 1.883-.78 2.113-1.706l.523-2.033 1.006-3.91c.097-.387.047-.73-.14-.97zm-7.394-.003H38.04L35.69 67.08c-.094.373-.43.623-.8.623-.066 0-.134-.008-.202-.025-.442-.112-.71-.56-.598-1.003l2.25-8.938H32.4c-.455 0-.824-.37-.824-.825 0-.456.37-.826.825-.826h9.688c.456 0 .826.37.826.826 0 .456-.37.825-.826.825zm-13.21 1.404c.01.096.007.193-.018.29l-1.425 5.518c.178.445.555 1.17.794 1.63.12.233.223.43.285.56.198.41.026.903-.385 1.1-.115.057-.238.084-.358.084-.307 0-.602-.172-.744-.467-.057-.12-.152-.3-.264-.516-.112-.216-.22-.425-.32-.625-.727.787-1.757 1.295-2.8 1.295-.852 0-1.59-.334-2.084-.94-.502-.62-.68-1.437-.496-2.3l.008-.034 1.574-6.124.006-.022c.465-1.62 2.05-2.842 3.684-2.842.87 0 1.62.347 2.11.976.5.64.66 1.507.442 2.383 0 .004-.004.017-.01.034zm-1.732-1.4c-.174-.223-.454-.34-.81-.34-.877 0-1.834.747-2.094 1.635l-1.566 6.093c-.073.36-.014.68.167.9.175.217.452.33.8.33.915 0 1.883-.78 2.114-1.706.01-.04.24-.94.522-2.03.414-1.61.982-3.817 1.005-3.912.097-.388.047-.73-.14-.97zm-21.36 2.62l11.855 5.785c.41.2.58.694.38 1.104-.142.292-.436.463-.74.463-.123 0-.246-.027-.363-.084l-12.99-6.34-1.57 5.668c-.1.366-.432.605-.794.605-.073 0-.147-.01-.22-.03-.44-.12-.697-.576-.576-1.016l4.045-14.622c.122-.44.577-.697 1.016-.575.44.12.697.576.575 1.015l-1.878 6.79 16.64-7.68c.414-.192.904-.01 1.095.403.19.414.01.904-.403 1.095L5.785 60.36z" class="cls-2"/><path d="M227.386 21.923l3.12-1.91c.83-.5 2.06-.14 2.567.686l-34.337 20.54-4.673 18.846s-.773 3-1.115 4.47c14.803 9.83-1.18 25.43-1.18 25.43s4.095 2.666 6.896 4.75c3.098 2.307 2.968 5.46 2.152 6.93-.612 1.103-2.03 1.11-2.297 1.113 1.62-1.683.356-3.842.31-3.948-.093-.21-.338-.306-.548-.213-.21.09-.308.335-.215.546.008.017.555 1.254.184 2.562-.487 1.713-2.122 1.155-2.392 1.036.87-1.512.338-3.477.314-3.56-.06-.22-.287-.352-.512-.29-.223.062-.35.292-.29.513.005.012.254.943.105 1.92-.15 1-.9.58-1.137.294-.92-1.127-.795-2.605-.795-2.605l-10.395-6.578c.413-1.468 3.908-14.327 4.444-16.186-1.837-1.22-6.407-3.7-7.886-4.68-5.507-3.637-2.828-10.46-1.897-14.56 2.382-10.47 9.414-37.736 9.414-37.736s1.085-6.052 5.11-9.888c1.884-2.438 4.618-6.012 6.303-8.104.734-.91 1.29-.955 1.29-.955l-1.544 6.092c.522-.072 1.064-.273 1.634-.273 6.286 0 5.464 3.01 5.464 3.01h10.8s-.1 3.063-4.296 5.054c-2.828 1.343-6.292 1.696-10.24 1.956-.105.394-.367 1.602-.494 2.008 4.143 0 8.813-.097 8.813-.097s-2.91 3.038-5.926 3.038c-.597 2.388-2.627 10.053-2.627 10.053l25.78-15.296c.828-.5 1.958-.386 2.466.44l-3.325 2.05c-.524.383-.32 1.164-.214 1.24.268-.154.467-.283.67-.394l2.765-1.698h.002c.828-.497 1.85-.293 2.358.53l-4.333 2.67c-.372.224-.41.978-.29 1.193zm-31.324 9.7l2.123-2.397h-3.194l1.072 2.396zm-7.058.004l2.123-2.395h-3.193l1.07 2.395zm.238-9.363l1.07 2.395 2.122-2.396h-3.192zm2.917 3.903l1.07 2.397 2.123-2.397h-3.194zm4.46-2.995l1.072 2.395 2.12-2.395h-3.192zm5.368-12.207c1.47 0 1.267-2.148 1.267-2.148l-4.07.703s1.337 1.445 2.803 1.445zm-1.557-6.132c.636-1.01 1.49-2.294 2.798-3.974.643-.828 1.124-.887 1.498-.864-.225 1.383-.984 5.12-.984 5.12s-1.32-.375-3.31-.283zM172.074 64.1l2.063.044-.66 2.98s-4.74.07-5.986-.163c-3.693-.682-9.774-3.923-7.9-11.437 1.87-7.507 5.42-22.39 7.784-31.864 1.03-4.132 4.693-13.448 14.238-15.16-1.345 5.505-11.91 46.854-11.91 46.854s-2.557 9 2.37 8.745zm37.725 3.276l-10.532-.006c-.68-1.164-2.033-2.937-3.882-3.794l2.087-8.605c4.982.08 9.097.276 12.646.53 18.847 1.346 5.247 18.65 3.793 21.823 0 0 5.1 3.51 6.812 4.612 3.248 2.09 2.97 5.46 2.153 6.93-.613 1.102-2.03 1.108-2.3 1.112 1.623-1.682.36-3.84.313-3.946-.093-.21-.338-.306-.548-.214-.21.093-.307.338-.214.548.007.017.555 1.254.183 2.562-.488 1.714-2.124 1.154-2.394 1.035.87-1.51.338-3.475.314-3.56-.06-.22-.287-.35-.513-.286-.22.06-.35.29-.287.51.003.015.25.944.104 1.92-.152 1-.902.583-1.137.296-.92-1.13-.795-2.608-.795-2.608s-8.95-5.382-9.32-5.563c.295-1.032 3.516-13.294 3.516-13.294zm-2.615-29.122l21.224 12.718c.822.507 1.24 1.563.74 2.393l-3.346-2.018c-.582-.29-1.18.25-1.2.38.258.167.465.283.656.412l2.775 1.68v.002c.824.507 1.11 1.51.61 2.34l-4.358-2.63c-.368-.23-1.055.085-1.194.29l3.13 1.896c.823.508 1.095 1.544.594 2.37l-26.064-15.652c2.107-1.398 4.354-2.805 6.435-4.182z" class="cls-3"/><path d="M207.895 17.03s2.722-2.515 5.682-.943c2.96 1.573 5.58.733 6.572-.314-.158.63-1.71 3.896-5.314 3.666-1.65-.105-2.357-1.047-3.798-1.99-1.415-.927-3.143-.42-3.143-.42" class="cls-1"/>
    </symbol>
    <symbol id="icon_logo_symbol" viewBox="0 0 73.813 102.938">
      <path d="M68.137 21.923l3.12-1.91c.83-.5 2.06-.14 2.566.686L39.486 41.24l-4.672 18.846s-.774 3-1.115 4.47c14.8 9.83-1.183 25.43-1.183 25.43s4.097 2.666 6.897 4.75c3.098 2.307 2.97 5.46 2.153 6.93-.612 1.103-2.03 1.11-2.297 1.113 1.62-1.683.356-3.842.31-3.948-.093-.21-.338-.306-.548-.213-.21.09-.307.335-.214.546.007.017.555 1.254.183 2.562-.486 1.713-2.12 1.155-2.39 1.036.87-1.512.336-3.477.313-3.56-.06-.22-.288-.352-.513-.29-.222.062-.35.292-.288.513.003.012.252.943.104 1.92-.15 1-.902.58-1.138.294-.92-1.127-.794-2.605-.794-2.605L23.9 92.457c.41-1.468 3.906-14.327 4.442-16.186-1.836-1.22-6.407-3.7-7.885-4.68-5.508-3.637-2.828-10.46-1.897-14.56 2.382-10.47 9.414-37.736 9.414-37.736s1.085-6.052 5.11-9.888c1.884-2.438 4.62-6.012 6.304-8.104.733-.91 1.29-.955 1.29-.955L39.132 6.44c.522-.072 1.065-.273 1.635-.273 6.286 0 5.463 3.01 5.463 3.01h10.8s-.1 3.063-4.296 5.054c-2.828 1.343-6.29 1.696-10.24 1.956-.104.394-.367 1.602-.494 2.008 4.144 0 8.814-.097 8.814-.097s-2.912 3.038-5.927 3.038c-.596 2.388-2.627 10.053-2.627 10.053l25.78-15.296c.83-.5 1.958-.386 2.467.44l-3.325 2.05c-.525.383-.322 1.164-.215 1.24.267-.154.467-.283.67-.394L70.4 17.53h.003c.828-.497 1.85-.293 2.357.53l-4.332 2.67c-.373.224-.41.978-.29 1.193zm-31.325 9.7l2.123-2.397h-3.193l1.07 2.396zm-7.058.004l2.123-2.395h-3.192l1.07 2.395zm.238-9.363l1.07 2.395 2.122-2.396h-3.192zm2.918 3.903l1.07 2.397 2.123-2.397H32.91zm4.46-2.995l1.072 2.395 2.122-2.395H37.37zm5.37-12.207c1.467 0 1.265-2.148 1.265-2.148l-4.07.703s1.337 1.445 2.804 1.445zm-1.56-6.132c.636-1.01 1.49-2.294 2.798-3.974.644-.828 1.125-.887 1.5-.864-.226 1.383-.985 5.12-.985 5.12s-1.32-.375-3.312-.283zM12.825 64.1l2.062.044-.66 2.98s-4.74.07-5.985-.163C4.55 66.28-1.532 63.038.34 55.524c1.87-7.507 5.422-22.39 7.784-31.864 1.03-4.132 4.694-13.448 14.24-15.16-1.346 5.505-11.912 46.854-11.912 46.854s-2.556 9 2.372 8.745zm37.725 3.276l-10.533-.006c-.682-1.164-2.034-2.937-3.883-3.794l2.088-8.605c4.98.08 9.096.276 12.644.53 18.848 1.346 5.248 18.65 3.794 21.823 0 0 5.1 3.51 6.812 4.612 3.248 2.09 2.97 5.46 2.153 6.93-.613 1.102-2.03 1.108-2.298 1.112 1.622-1.682.358-3.84.31-3.946-.092-.21-.337-.306-.546-.214-.21.093-.307.338-.214.548.008.017.555 1.254.184 2.562-.488 1.714-2.124 1.154-2.393 1.035.87-1.51.337-3.475.314-3.56-.06-.22-.287-.35-.512-.286-.222.06-.35.29-.288.51.004.015.25.944.104 1.92-.152 1-.9.583-1.136.296-.92-1.13-.796-2.608-.796-2.608s-8.95-5.382-9.32-5.563c.296-1.032 3.517-13.294 3.517-13.294zm-2.616-29.122l21.223 12.718c.822.507 1.24 1.563.74 2.393l-3.346-2.018c-.58-.29-1.18.25-1.2.38.258.167.465.283.656.412l2.775 1.68v.002c.824.507 1.112 1.51.61 2.34l-4.358-2.63c-.368-.23-1.054.085-1.194.29l3.13 1.896c.823.508 1.096 1.544.595 2.37L41.5 42.437c2.106-1.398 4.353-2.805 6.434-4.182z" fill="#4b413c" class="cls-1"/><path d="M48.646 17.03s2.722-2.515 5.682-.943c2.96 1.573 5.578.733 6.57-.314-.156.63-1.708 3.896-5.31 3.666-1.65-.105-2.36-1.047-3.8-1.99-1.415-.927-3.142-.42-3.142-.42" fill="#ee4055" class="cls-2"/>
    </symbol>
    <symbol id="icon_logo_white" viewBox="0 0 129.875 114.16">
      <defs><style>.cls-1 { fill: #ee4055; } .cls-1, .cls-2 { fill-rule: evenodd; } .cls-2 { fill: #fff; }</style></defs><path fill="#ee4055" d="M129.018 99.072h-3.64l-3.51 14.08c-.098.397-.454.662-.844.662-.07 0-.14-.01-.212-.027-.468-.116-.752-.59-.635-1.056l3.405-13.658h-3.296c-.482 0-.87-.39-.87-.872s.388-.87.87-.87h8.732c.48 0 .872.388.872.87 0 .48-.39.872-.872.872zm-16.516 14.22c-.1.394-.455.656-.845.656-.07 0-.144-.008-.216-.027-.465-.117-.747-.592-.63-1.06l3.187-12.522-19.157 13.087c-.298.205-.694.203-.99-.005-.297-.207-.436-.576-.347-.927l3.618-14.39c.12-.467.595-.75 1.06-.633.467.118.75.592.633 1.058l-3.06 12.16 19.165-13.092c.3-.204.694-.202.992.006.297.208.435.578.345.928l-3.753 14.76zm-1.926-18.24c-1.426 0-2.942-.54-4.153-1.372-1.36-.934-3.346-1.27-4.513-.102-.34.34-.892.34-1.233 0-.34-.34-.34-.893 0-1.233 1.926-1.926 4.84-1.403 6.734-.102 1.57 1.08 3.865 1.527 4.985.406.34-.34.892-.34 1.233 0 .34.34.34.892 0 1.232-.822.823-1.908 1.17-3.052 1.17zm-22.58 14.85c.262.602.712 1.478 1.052 2.14.18.35.336.654.433.855.21.434.027.956-.406 1.165-.122.058-.25.086-.378.086-.325 0-.636-.18-.786-.493-.093-.19-.242-.48-.414-.817l-.44-.864c-.958 1.265-2.48 2.116-4.03 2.116-1.097 0-2.05-.43-2.68-1.207-.646-.796-.87-1.85-.636-2.966l2.237-9.14c.614-2.138 2.748-3.786 4.868-3.786 1.123 0 2.09.445 2.72 1.252.64.82.845 1.943.562 3.076l-2.1 8.584zm.163-10.587c-.293-.374-.77-.58-1.345-.58-1.36 0-2.788 1.116-3.182 2.49l-2.223 9.08c-.12.565-.018 1.1.29 1.48.292.363.764.56 1.327.56 1.39 0 2.86-1.182 3.21-2.583l2.167-8.86c.156-.625.068-1.187-.245-1.587zm-13.054 2.268c-.716-1.683-2.38-2.688-4.447-2.688-3.558 0-7.36 3.193-8.3 6.972-.432 1.726-.165 3.32.75 4.49.87 1.114 2.247 1.726 3.88 1.726 2.85 0 6.12-1.752 7.608-4.075.26-.405.8-.523 1.204-.263.406.26.524.798.265 1.204-1.812 2.825-5.628 4.877-9.076 4.877-2.182 0-4.048-.85-5.254-2.395-1.253-1.603-1.632-3.73-1.07-5.986 1.12-4.496 5.698-8.295 9.993-8.295 2.788 0 5.05 1.403 6.05 3.75.19.442-.017.954-.46 1.143-.443.19-.955-.017-1.144-.46zm-19.224 8.602c-.546 2.19-2.698 3.905-4.9 3.905-1.1 0-2.052-.43-2.683-1.207-.646-.796-.872-1.85-.636-2.966l2.238-9.14c.613-2.138 2.747-3.786 4.867-3.786 1.122 0 2.088.445 2.718 1.252.64.82.846 1.943.563 3.076-.014.064-2.13 8.718-2.168 8.867zm.23-10.87c-.29-.374-.77-.58-1.343-.58-1.36 0-2.79 1.116-3.184 2.49l-2.222 9.08c-.12.565-.018 1.1.29 1.48.293.363.764.56 1.327.56 1.392 0 2.86-1.182 3.21-2.583l2.168-8.86c.156-.625.068-1.187-.245-1.587zm-14.668 13.737c-.102.392-.456.652-.843.652-.072 0-.146-.01-.22-.028-.465-.122-.745-.598-.623-1.064l3.132-11.988-12.85 12.765c-.342.34-.894.336-1.233-.005-.34-.342-.338-.893.004-1.233l15.115-15.015c.28-.277.708-.334 1.05-.137.34.196.507.595.408.976l-3.94 15.076zm-26.602-4.614c.148.62.416 1.185.798 1.675.854 1.093 2.21 1.694 3.815 1.694 2.802 0 6.02-1.723 7.484-4.01.26-.404.798-.522 1.203-.26.406.257.524.797.264 1.202-1.786 2.787-5.552 4.81-8.952 4.81-2.155 0-3.997-.838-5.19-2.364-1.235-1.582-1.61-3.68-1.054-5.908 1.08-4.33 5.49-7.852 9.83-7.852 2.754 0 4.987 1.384 5.974 3.7.186.438-.012.943-.444 1.138l-13.728 6.174zm8.198-9.268c-3.59 0-7.24 2.93-8.137 6.53-.074.295-.127.585-.16.872l12.253-5.512c-.83-1.197-2.254-1.89-3.956-1.89zm-15.462 1.638c.543.32 1.02.733 1.414 1.237 1.052 1.347 1.372 3.13.9 5.016-.908 3.645-4.62 6.61-8.275 6.61-.14 0-.268-.036-.385-.094-.11.05-.228.086-.353.086-.072 0-.142-.01-.213-.026-.467-.116-.752-.59-.635-1.056l5.04-20.22c.118-.467.593-.75 1.058-.634.056.014.108.033.158.057.06-.014.123-.022.187-.022 1.355 0 2.518.534 3.275 1.503.772.988 1.018 2.343.675 3.717-.395 1.584-1.475 2.96-2.847 3.828zm.623 5.832c.34-1.357.132-2.607-.582-3.522-.677-.866-1.755-1.343-3.036-1.343-.014 0-.028-.004-.042-.005-.006 0-.01 0-.016.002l-2.528 10.135c2.777-.194 5.51-2.48 6.205-5.267zm.177-12.303c-.4-.512-1.035-.8-1.793-.827L4.97 99.983c1.692-.272 3.34-1.727 3.764-3.425.214-.862.088-1.65-.357-2.22z" class="cls-1"/><path fill="#fff" d="M90.224 17.667l2.5-1.54c.664-.402 1.65-.113 2.057.553L67.268 33.233 63.523 48.42s-.62 2.42-.893 3.602c11.86 7.923-.947 20.492-.947 20.492s3.282 2.15 5.526 3.828c2.482 1.86 2.378 4.4 1.724 5.586-.49.888-1.627.893-1.84.896 1.298-1.356.285-3.095.248-3.18-.074-.17-.27-.247-.44-.172-.167.073-.245.27-.17.44.005.014.444 1.01.146 2.065-.39 1.38-1.7.93-1.917.835.698-1.218.272-2.802.253-2.87-.05-.177-.23-.282-.41-.232-.18.05-.28.235-.232.413.004.01.203.76.085 1.546-.12.806-.723.468-.912.237-.736-.91-.636-2.1-.636-2.1l-8.33-5.3c.33-1.184 3.13-11.546 3.56-13.044-1.47-.985-5.133-2.983-6.318-3.772-4.414-2.93-2.267-8.43-1.52-11.733 1.908-8.437 7.543-30.41 7.543-30.41s.87-4.876 4.095-7.967c1.51-1.965 3.7-4.845 5.05-6.53.588-.734 1.033-.77 1.033-.77l-1.236 4.91c.418-.058.853-.22 1.31-.22 5.037 0 4.378 2.426 4.378 2.426h8.653s-.08 2.468-3.443 4.072c-2.266 1.082-5.04 1.366-8.204 1.576-.085.317-.295 1.29-.396 1.618 3.32 0 7.062-.08 7.062-.08s-2.333 2.45-4.75 2.45c-.477 1.924-2.104 8.1-2.104 8.1l20.657-12.325c.664-.403 1.57-.312 1.976.353l-2.664 1.654c-.422.308-.26.937-.173.998.214-.124.374-.228.536-.317l2.216-1.37c.663-.4 1.482-.235 1.89.43l-3.473 2.15c-.298.18-.327.788-.233.962zM65.28 25.89l1.702-1.932h-2.56l.86 1.93zm-5.78.034l1.7-1.93h-2.557l.857 1.93zm.19-7.95l.86 1.93 1.7-1.93h-2.56zm2.4 3.02l.86 1.93 1.7-1.93h-2.56zm3.575-2.008l.86 1.93 1.7-1.93h-2.56zm4.208-10.15c1.177 0 1.015-1.73 1.015-1.73l-3.26.566s1.07 1.164 2.245 1.164zm-1.248-4.94c.51-.814 1.194-1.85 2.24-3.204.517-.667.903-.714 1.202-.695-.18 1.114-.788 4.125-.788 4.125s-1.06-.3-2.655-.227zM45.903 51.653l1.653.036-.528 2.4s-3.8.057-4.797-.13c-2.958-.55-7.83-3.162-6.33-9.217 1.5-6.05 4.344-18.044 6.237-25.677.825-3.33 3.76-10.836 11.41-12.217-1.08 4.436-9.545 37.757-9.545 37.757s-2.048 7.253 1.9 7.047zm30.228 2.64l-8.438-.004c-.546-.938-1.63-2.367-3.11-3.057l1.672-6.935c3.99.063 7.288.222 10.132.427 15.102 1.084 4.204 15.03 3.04 17.586 0 0 4.086 2.83 5.458 3.717 2.603 1.684 2.38 4.4 1.725 5.585-.492.888-1.628.893-1.842.895 1.3-1.355.286-3.094.25-3.18-.076-.17-.272-.246-.44-.172-.168.075-.246.272-.17.44.004.015.443 1.012.146 2.066-.39 1.382-1.702.93-1.918.835.697-1.217.27-2.8.252-2.87-.05-.176-.23-.282-.412-.23-.177.05-.28.234-.23.412.003.01.2.76.084 1.546-.122.807-.723.47-.91.24-.738-.91-.638-2.103-.638-2.103s-7.173-4.337-7.468-4.483c.237-.83 2.817-10.712 2.817-10.712zm-2.094-23.467l17.006 10.248c.658.41.993 1.26.592 1.93l-2.68-1.627c-.467-.233-.947.2-.963.305.208.135.374.23.527.333l2.224 1.355v.002c.66.41.89 1.218.488 1.885l-3.49-2.118c-.296-.187-.846.067-.958.23l2.508 1.53c.66.41.878 1.244.476 1.91L68.88 34.198c1.688-1.126 3.488-2.26 5.156-3.37z" class="cls-2"/><path fill="#ee4055" d="M74.606 13.723s2.182-2.026 4.553-.76c2.372 1.268 4.47.59 5.265-.252-.126.507-1.37 3.14-4.257 2.954-1.322-.083-1.89-.842-3.043-1.602-1.134-.747-2.52-.34-2.52-.34" class="cls-1"/>
    </symbol>
    <symbol id="icon_minus" viewBox="0 0 512 512">
      <title>Layer 1</title><path d="M7.354 217.916h498.558v72.71H7.354z"/>
    </symbol>
    <symbol id="icon_phone" viewBox="0 0 512 512">
      <title>Layer 1</title><path d="M216.046 294.23c49.358 49.38 106.532 96.58 129.125 73.975 32.36-32.36 52.322-60.54 123.64-3.22 71.342 57.346 16.546 95.56-14.79 126.907-36.178 36.177-170.997 1.89-304.28-131.345C16.48 227.265-17.793 92.445 18.396 56.27c31.36-31.362 69.562-86.122 126.882-14.804 57.332 71.317 29.166 91.266-3.195 123.626-22.606 22.606 24.582 79.78 73.963 129.137z"/>
    </symbol>
    <symbol id="icon_play-rounded" viewBox="0 0 512 512">
      <title>Layer 1</title><path d="M211 158.25l158.667 104.766L211 367.786z"/><path fill="#fff" d="M255.33 507.078c-138.4 0-250.998-112.6-250.998-250.998 0-138.4 112.6-250.998 250.998-250.998s250.998 112.6 250.998 250.998c0 138.4-112.6 250.998-250.998 250.998zm0-488.212c-130.81 0-237.214 106.405-237.214 237.214S124.52 493.294 255.33 493.294 492.544 386.89 492.544 256.08 386.14 18.866 255.33 18.866z"/>
    </symbol>
    <symbol id="icon_play" viewBox="0 0 512 512">
      <title>Layer 1</title><path d="M89 11.25l367.667 242.767L89 496.793z"/>
    </symbol>
    <symbol id="icon_plus" viewBox="0 0 512 512">
      <title>Layer 1</title><path d="M507.537 219.172H292.484V4.094h-73.44v215.078H3.98V292.6h215.064V507.65h73.44V292.6h215.053z"/>
    </symbol>
    <symbol id="icon_question" viewBox="0 0 512 512">
      <title>Layer 1</title><path d="M254.75 2.5C115.298 2.5 2.25 115.548 2.25 255s113.048 252.5 252.5 252.5 252.5-113.048 252.5-252.5S394.202 2.5 254.75 2.5zm19.55 403.592c-6.312 6.252-15.077 9.366-26.343 9.366-11.52 0-20.44-3.054-26.753-9.15-6.313-6.12-9.475-14.73-9.475-25.84 0-11.53 3.1-20.247 9.27-26.14 6.167-5.903 15.16-8.85 26.944-8.85 11.387 0 20.224 3.02 26.465 9.066 6.24 6.05 9.342 14.682 9.342 25.924.012 10.846-3.14 19.395-9.45 25.624zm67.924-187.584c-6.866 10.978-19.9 23.314-39.102 37.045-13.18 9.75-21.522 17.146-25.022 22.232-3.486 5.074-5.242 11.723-5.242 19.947v12.35h-54.54v-15.223c0-13.18 2.813-24.65 8.43-34.378 5.626-9.74 15.918-20.104 30.875-31.08 14.393-10.28 23.904-18.674 28.51-25.106 4.592-6.457 6.89-13.66 6.89-21.607 0-8.935-3.295-15.716-9.884-20.37-6.58-4.69-15.788-7.02-27.572-7.02-20.597 0-44.056 6.732-70.388 20.187l-22.437-45.077c30.6-17.158 63.053-25.73 97.357-25.73 28.28 0 50.74 6.792 67.405 20.368 16.665 13.6 25.01 31.707 25.01 54.348.012 15.1-3.426 28.134-10.29 39.112z"/>
    </symbol>
    <symbol id="icon_question_mark" viewBox="0 0 191 312">
      <title>svg_3</title><path d="M112.3 302.092c-6.312 6.252-15.077 9.366-26.343 9.366-11.52 0-20.44-3.054-26.753-9.15-6.313-6.12-9.475-14.73-9.475-25.84 0-11.53 3.1-20.247 9.27-26.14 6.167-5.903 15.16-8.85 26.944-8.85 11.387 0 20.224 3.02 26.465 9.066 6.24 6.05 9.342 14.682 9.342 25.924.012 10.846-3.14 19.395-9.45 25.624zm67.924-187.584c-6.866 10.978-19.9 23.314-39.102 37.045-13.18 9.75-21.522 17.146-25.022 22.232-3.486 5.074-5.242 11.723-5.242 19.947v12.35h-54.54v-15.223c0-13.18 2.813-24.65 8.43-34.378 5.626-9.74 15.918-20.104 30.875-31.08 14.393-10.28 23.904-18.674 28.51-25.106 4.592-6.457 6.89-13.66 6.89-21.607 0-8.935-3.295-15.716-9.884-20.37-6.58-4.69-15.788-7.02-27.572-7.02-20.597 0-44.056 6.732-70.388 20.187L.743 26.41C31.343 9.252 63.796.68 98.1.68c28.28 0 50.74 6.792 67.405 20.368 16.665 13.6 25.01 31.707 25.01 54.348.012 15.1-3.426 28.134-10.29 39.112z" fill="#ee4055" fill-rule="evenodd"/>
    </symbol>
    <symbol id="icon_red_mountain" viewBox="0 0 198 154">
      <defs><style>.cls-1 { fill: #ee4055; } .cls-1, .cls-2, .cls-3, .cls-4 { fill-rule: evenodd; } .cls-2 { fill: #4e423d; } .cls-3 { fill: #5fc3ac; } .cls-4 { fill: #fff; }</style></defs><path d="M198 154H48l19.21-33H0L69 2l32.405 60.253L126 20l72 134z" class="cls-1"/><path d="M118 154l32.688-56.11L181 154h-63z" class="cls-2"/><path d="M80 145h-8.846L76 154H46l4.846-9H42l12.667-22H50l11-18 11 18h-4.667L80 145zm-50 9H20l1.333-2H18l7-12 7 12h-3.333L30 154z" class="cls-3"/><path d="M154 115l-4 7-4-7-9 6 13-24 13 23-9-5zm-29-64l-6-9-9 5 16-28 16 30-11-7-6 9zm-57-1L58 36l-14 8L69 0l25 48-17-12-9 14z" class="cls-4"/>
    </symbol>
    <symbol id="icon_rock_footer" viewBox="0 0 198 154">
      <defs><style>.cls-1 { fill: #ee4055; } .cls-1, .cls-2, .cls-3, .cls-4 { fill-rule: evenodd; } .cls-2 { fill: #4e423d; } .cls-3 { fill: #5fc3ac; } .cls-4 { fill: #fff; }</style></defs><path d="M198 154H48l19.21-33H0L69 2l32.405 60.253L126 20l72 134z" fill="#ee4055" class="cls-1"/><path d="M118 154l32.688-56.11L181 154h-63z" fill="#4e423d" class="cls-2"/><path d="M80 145h-8.846L76 154H46l4.846-9H42l12.667-22H50l11-18 11 18h-4.667L80 145zm-50 9H20l1.333-2H18l7-12 7 12h-3.333L30 154z" fill="#5fc3ac" class="cls-3"/><path d="M154 115l-4 7-4-7-9 6 13-24 13 23-9-5zm-29-64l-6-9-9 5 16-28 16 30-11-7-6 9zm-57-1L58 36l-14 8L69 0l25 48-17-12-9 14z" fill="#FFF" class="cls-4"/>
    </symbol>
    <symbol id="icon_search" viewBox="0 0 512 512">
      <title>Layer 1</title><path d="M339.287 70.375c-75.724-75.725-198.5-75.725-274.237 0-75.737 75.725-75.725 198.513 0 274.238 64.278 64.266 162.362 73.78 236.893 28.936l111.522 111.544c11.447 11.436 29.994 11.436 41.43 0L483.9 456.09c11.446-11.447 7.293-25.84-4.153-37.277L368.224 307.28c44.854-74.543 35.34-172.627-28.937-236.905zm-36.423 237.803c-55.607 55.62-145.784 55.62-201.39 0-55.61-55.607-55.61-145.772 0-201.39 55.618-55.608 145.794-55.608 201.39 0 55.62 55.63 55.62 145.794 0 201.39z"/>
    </symbol>
    <symbol id="icon_settings" viewBox="0 0 512 512">
      <title>Layer 1</title><path d="M458.27 256.684c0-31.318 19.265-56.044 48.296-73.034-5.204-17.48-12.14-34.236-20.675-49.984-32.56 8.512-58.895-4.25-81.046-26.39-22.15-22.13-28.92-48.51-20.397-81.047-15.77-8.547-32.516-15.483-50.006-20.7-16.99 29.044-47.686 48.32-79.004 48.32-31.306 0-61.992-19.265-79.004-48.32-17.49 5.228-34.214 12.164-49.984 20.676 8.512 32.56 1.742 58.917-20.41 81.068-22.15 22.15-48.496 34.902-81.056 26.39-8.534 15.75-15.448 32.506-20.675 49.985 29.032 16.99 48.286 41.715 48.286 73.033 0 31.295-19.254 62.002-48.286 78.993 5.227 17.49 12.14 34.226 20.675 49.983 32.56-8.513 58.907-1.72 81.057 20.42 22.15 22.15 28.92 48.508 20.408 81.057 15.758 8.534 32.494 15.48 49.995 20.675 17-29.03 47.687-48.32 78.993-48.32 31.318 0 62.015 19.278 79.005 48.32 17.49-5.227 34.237-12.15 50.007-20.696-8.534-32.527-1.753-58.885 20.397-81.036 22.15-22.14 48.486-34.902 81.047-26.4 8.546-15.748 15.482-32.506 20.676-49.984-29.032-16.98-48.297-41.717-48.297-73.012zM255.423 365.896c-60.327 0-109.212-48.907-109.212-109.224 0-60.338 48.885-109.223 109.212-109.223 60.328 0 109.224 48.884 109.224 109.222 0 60.316-48.896 109.224-109.224 109.224z"/>
    </symbol>
    <symbol id="icon_share" viewBox="0 0 512 512">
      <title>Layer 1</title><path d="M387.83 338.217c-19.01 0-36.478 6.457-50.476 17.205l-144.402-86.628c.722-4.43 1.19-8.942 1.19-13.594 0-4.64-.47-9.145-1.19-13.583L337.354 155c13.997 10.747 31.467 17.204 50.477 17.204 45.85 0 83.02-37.16 83.02-82.986 0-45.847-37.17-83.007-83.02-83.007-45.835 0-83.006 37.16-83.006 83.008 0 4.63.49 9.165 1.21 13.562l-144.41 86.65c-13.987-10.758-31.446-17.226-50.467-17.226-45.836 0-83.007 37.18-83.007 82.996 0 45.836 37.17 83.017 83.007 83.017 19.02 0 36.48-6.467 50.467-17.236l144.412 86.64c-.722 4.44-1.21 8.953-1.21 13.605 0 45.825 37.17 82.985 83.006 82.985 45.848 0 83.018-37.16 83.018-82.985 0-45.837-37.17-83.008-83.02-83.008z"/>
    </symbol>
    <symbol id="icon_star" viewBox="0 0 550 550">
      <title>Layer 1</title><path d="M276.118 6.396l72.38 203.788H542.88L384.286 329.87l56.69 210.083-164.858-125.96-164.88 125.96 56.69-210.084L9.322 210.183h194.405z"/>
    </symbol>
    <symbol id="icon_stats" viewBox="0 0 550 550">
      <title>Layer 1</title><path d="M8.65 529.317H540.94V550H8.65zM216.72 86.723h116.15v418.102H216.72zM54.13 250.252h116.15v254.572H54.13zM379.32 205.747h116.15v299.078H379.32z"/>
    </symbol>
    <symbol id="icon_trees" viewBox="0 0 69 82">
      <defs><style>.cls-1 { fill: #927b7c; } .cls-1, .cls-2 { fill-rule: evenodd; } .cls-2 { fill: #6cc067; }</style></defs><path d="M54 82v-.007h-.014v-7.98L57 74v6h4v2h-7zM19 61h4v9h7v3H19V61z" class="cls-1"/><path d="M62.02 61L69 74H42l7.548-13H44l8.1-14H49l7-11 7 11h-3.49L67 61h-4.98zM0 61l11.053-20H3l12-22h-4L21 0l11 19h-4.667L40 41h-8.58L43 61H0z" class="cls-2"/>
    </symbol>
    <symbol id="icon_user" viewBox="0 0 512 512">
      <title>Layer 1</title><path d="M413.278 426.037c-71.3-25.964-94.057-47.87-94.057-94.762 0-28.182 21.79-19.005 31.336-70.543 3.94-21.39 23.156-.326 26.814-49.184 0-19.467-10.427-24.26-10.427-24.26s5.297-28.876 7.38-51.014c2.563-27.645-15.947-98.987-114.872-98.987-98.86 0-117.434 71.342-114.827 98.987 2.082 22.127 7.41 51.013 7.41 51.013s-10.51 4.793-10.51 24.26c3.69 48.85 22.947 27.793 26.9 49.185 9.512 51.538 31.313 42.36 31.313 70.543 0 46.893-22.8 68.798-94.09 94.762-71.435 26.058-102.18 47.397-102.18 65.497V512h505.068v-20.466c-.01-18.1-23.766-39.44-95.256-65.497z"/>
    </symbol>
    <symbol id="icon_water" viewBox="0 0 126.469 27.28">
      <defs><style>.cls-1 { fill: #5fc3ac; fill-rule: evenodd; }</style></defs><path d="M95.512 27.276c-1.742 0-3.485-.644-4.81-1.934-.096-.092-.176-.194-.24-.302-1.51-1.35-3.866-1.314-5.328.11-.593.577-1.542.565-2.12-.03-.578-.595-.564-1.546.03-2.124 2.653-2.584 6.97-2.584 9.624 0 .094.09.174.193.24.3 1.508 1.35 3.864 1.313 5.328-.11.594-.576 1.544-.563 2.12.033.577.594.563 1.545-.03 2.123-1.328 1.288-3.07 1.933-4.814 1.933zm-71.9 0c-1.742 0-3.484-.645-4.81-1.934-.095-.092-.175-.193-.24-.3-1.508-1.35-3.865-1.315-5.328.108-.593.577-1.543.565-2.12-.03-.578-.596-.564-1.547.03-2.124 2.654-2.583 6.97-2.583 9.624 0 .094.09.173.19.24.3 1.507 1.35 3.865 1.312 5.328-.11.595-.577 1.544-.563 2.12.033.577.594.563 1.545-.03 2.123-1.328 1.288-3.07 1.933-4.814 1.933zm48.385 0c-1.743 0-3.485-.645-4.81-1.933-.097-.093-.177-.195-.242-.304-1.51-1.35-3.865-1.313-5.327.11-.593.577-1.542.565-2.12-.03-.578-.596-.564-1.547.03-2.124 2.654-2.583 6.97-2.583 9.625 0 .095.09.174.193.24.3 1.51 1.35 3.865 1.31 5.327-.11.594-.576 1.543-.563 2.12.033.577.594.563 1.545-.032 2.123-1.326 1.288-3.068 1.933-4.81 1.933zm-23.95 0c-1.744 0-3.486-.645-4.812-1.933-.096-.093-.176-.195-.24-.304-1.51-1.35-3.866-1.313-5.328.11-.593.577-1.543.565-2.12-.03-.578-.596-.564-1.547.03-2.124 2.654-2.583 6.97-2.583 9.625 0 .094.09.174.193.24.3 1.507 1.347 3.863 1.312 5.327-.11.593-.576 1.542-.563 2.12.033.576.594.562 1.545-.032 2.123-1.327 1.288-3.07 1.933-4.812 1.933zm60.302-11.107c-1.744 0-3.487-.645-4.813-1.935-.093-.09-.172-.19-.237-.296-1.507-1.356-3.866-1.32-5.33.104-.592.58-1.543.566-2.12-.03-.578-.594-.565-1.544.03-2.123 2.653-2.583 6.97-2.583 9.624 0 .093.09.17.19.236.296 1.508 1.352 3.867 1.318 5.332-.106.595-.578 1.544-.564 2.12.032.577.596.563 1.546-.032 2.124-1.326 1.288-3.07 1.933-4.81 1.933zm-95.417 0c-1.743 0-3.486-.645-4.813-1.934-.094-.09-.173-.192-.238-.3-1.508-1.353-3.865-1.315-5.327.108-.594.58-1.543.566-2.12-.03-.58-.594-.566-1.544.028-2.123 2.654-2.583 6.972-2.583 9.625 0 .094.092.172.192.237.298 1.51 1.35 3.87 1.315 5.33-.108.596-.578 1.545-.564 2.122.032s.562 1.546-.032 2.124c-1.327 1.29-3.07 1.933-4.812 1.933zm71.9 0c-1.742 0-3.485-.646-4.812-1.934-.092-.09-.17-.19-.236-.297-1.507-1.354-3.866-1.32-5.33.104-.594.578-1.542.565-2.12-.03-.578-.594-.565-1.545.03-2.123 2.652-2.582 6.97-2.582 9.624 0 .092.09.17.19.236.296 1.51 1.352 3.868 1.316 5.332-.106.595-.578 1.543-.564 2.12.032.578.596.563 1.546-.03 2.124-1.328 1.288-3.07 1.933-4.813 1.933zm-23.95 0c-1.743 0-3.486-.646-4.813-1.934-.093-.09-.172-.19-.237-.297-1.507-1.354-3.867-1.32-5.33.104-.593.578-1.542.565-2.12-.03-.578-.594-.565-1.545.03-2.123 2.652-2.582 6.97-2.582 9.624 0 .093.09.17.19.236.296 1.508 1.352 3.868 1.316 5.332-.106.595-.578 1.543-.564 2.12.032.578.596.563 1.546-.03 2.124-1.328 1.288-3.07 1.933-4.813 1.933zm-24.434 0c-1.743 0-3.486-.646-4.812-1.934-.094-.09-.173-.19-.238-.297-1.507-1.354-3.866-1.32-5.33.104-.593.578-1.542.565-2.12-.03-.578-.594-.565-1.545.03-2.123 2.652-2.582 6.97-2.582 9.624 0 .093.09.17.19.236.296 1.51 1.352 3.867 1.316 5.332-.106.595-.578 1.543-.564 2.12.032.578.596.563 1.546-.03 2.124-1.328 1.288-3.07 1.933-4.813 1.933zm84.734-9.97c-1.743 0-3.485-.645-4.81-1.935-.095-.09-.175-.19-.24-.298-1.508-1.353-3.864-1.32-5.328.107-.594.577-1.543.564-2.12-.03-.578-.595-.565-1.546.03-2.124 2.653-2.584 6.97-2.584 9.624 0 .093.09.172.19.237.297 1.507 1.352 3.866 1.316 5.33-.107.595-.577 1.545-.564 2.122.032.575.595.56 1.546-.034 2.124-1.327 1.29-3.07 1.933-4.812 1.933zm-23.516 0c-1.743 0-3.485-.645-4.81-1.935-.095-.09-.175-.19-.24-.298-1.508-1.354-3.864-1.32-5.328.107-.594.577-1.542.564-2.12-.03-.578-.595-.565-1.546.03-2.124 2.653-2.584 6.97-2.584 9.624 0 .093.09.172.19.237.297 1.51 1.352 3.868 1.316 5.332-.107.595-.577 1.544-.564 2.12.032.577.595.563 1.546-.032 2.124-1.327 1.29-3.07 1.933-4.812 1.933zm-23.95 0c-1.744 0-3.486-.645-4.813-1.934-.095-.092-.174-.193-.24-.3-1.508-1.354-3.864-1.317-5.326.107-.593.58-1.543.565-2.122-.03-.577-.594-.563-1.545.03-2.123 2.654-2.584 6.97-2.584 9.625 0 .094.09.173.192.238.3 1.51 1.35 3.868 1.312 5.33-.11.596-.577 1.544-.564 2.122.032.576.595.562 1.546-.033 2.124-1.327 1.29-3.07 1.933-4.813 1.933zm-24.434 0c-1.743 0-3.485-.645-4.812-1.934-.094-.092-.174-.193-.24-.3-1.507-1.352-3.864-1.315-5.326.108-.593.577-1.542.564-2.12-.03-.578-.595-.564-1.546.03-2.124 2.653-2.583 6.97-2.582 9.624 0 .094.09.173.192.238.3 1.51 1.35 3.867 1.312 5.33-.11.595-.577 1.544-.564 2.12.032.577.595.563 1.546-.03 2.124-1.328 1.29-3.07 1.933-4.814 1.933z" fill="#5fc3ac" class="cls-1"/>
    </symbol></svg>