<svg xmlns="http://www.w3.org/2000/svg" xmlns:xlink="http://www.w3.org/1999/xlink" preserveAspectRatio="xMidYMid" width="73.813" height="102.938" viewBox="0 0 73.813 102.938">
  <defs>
    <style>
      .cls-1 {
        fill: #4b413c;
      }

      .cls-1, .cls-2 {
        fill-rule: evenodd;
      }

      .cls-2 {
        fill: #ee4055;
      }
    </style>
  </defs>
  <g>
    <path d="M68.137,21.923 L71.257,20.012 C72.086,19.513 73.316,19.872 73.823,20.699 L39.486,41.239 L34.814,60.086 C34.814,60.086 34.040,63.087 33.699,64.556 C48.501,74.387 32.517,89.985 32.517,89.985 C32.517,89.985 36.614,92.652 39.414,94.736 C42.512,97.043 42.383,100.196 41.567,101.667 C40.955,102.769 39.536,102.775 39.270,102.779 C40.890,101.097 39.626,98.938 39.580,98.832 C39.487,98.622 39.242,98.526 39.032,98.619 C38.822,98.710 38.725,98.955 38.818,99.166 C38.825,99.183 39.373,100.420 39.001,101.728 C38.514,103.441 36.879,102.883 36.609,102.764 C37.479,101.252 36.946,99.287 36.923,99.203 C36.862,98.983 36.635,98.852 36.410,98.915 C36.188,98.976 36.060,99.206 36.122,99.427 C36.125,99.439 36.374,100.370 36.226,101.346 C36.075,102.347 35.324,101.928 35.088,101.641 C34.169,100.513 34.294,99.035 34.294,99.035 L23.899,92.457 C24.311,90.989 27.806,78.130 28.342,76.271 C26.506,75.049 21.935,72.569 20.457,71.591 C14.949,67.953 17.629,61.129 18.560,57.029 C20.942,46.560 27.974,19.294 27.974,19.294 C27.974,19.294 29.059,13.242 33.085,9.406 C34.968,6.968 37.703,3.394 39.388,1.302 C40.121,0.392 40.677,0.347 40.677,0.347 L39.133,6.439 C39.655,6.368 40.198,6.167 40.768,6.167 C47.054,6.167 46.231,9.178 46.231,9.178 L57.031,9.178 C57.031,9.178 56.931,12.240 52.734,14.231 C49.906,15.573 46.443,15.926 42.495,16.186 C42.390,16.580 42.127,17.788 42.000,18.194 C46.144,18.194 50.814,18.097 50.814,18.097 C50.814,18.097 47.902,21.135 44.887,21.135 C44.291,23.523 42.260,31.188 42.260,31.188 L68.040,15.892 C68.869,15.393 69.998,15.506 70.507,16.331 L67.182,18.383 C66.657,18.765 66.860,19.546 66.967,19.621 C67.234,19.468 67.434,19.339 67.636,19.228 L67.636,19.229 L70.401,17.530 L70.403,17.530 C71.231,17.033 72.253,17.237 72.760,18.061 L68.428,20.730 C68.055,20.954 68.019,21.708 68.137,21.923 ZM36.812,31.622 L38.935,29.226 L35.742,29.226 L36.812,31.622 ZM29.754,31.627 L31.877,29.232 L28.685,29.232 L29.754,31.627 ZM29.992,22.264 L31.063,24.659 L33.184,22.264 L29.992,22.264 ZM32.910,26.167 L33.981,28.564 L36.103,26.167 L32.910,26.167 ZM37.370,23.172 L38.442,25.567 L40.564,23.172 L37.370,23.172 ZM42.739,10.965 C44.207,10.965 44.005,8.817 44.005,8.817 L39.935,9.520 C39.935,9.520 41.272,10.965 42.739,10.965 ZM41.181,4.833 C41.816,3.824 42.671,2.539 43.978,0.859 C44.622,0.032 45.103,-0.027 45.477,-0.004 C45.252,1.379 44.493,5.115 44.493,5.115 C44.493,5.115 43.172,4.741 41.181,4.833 ZM12.824,64.099 L14.886,64.144 L14.227,67.123 C14.227,67.123 9.485,67.193 8.241,66.961 C4.548,66.278 -1.533,63.037 0.340,55.523 C2.211,48.016 5.762,33.132 8.124,23.659 C9.153,19.528 12.818,10.212 22.363,8.499 C21.018,14.005 10.452,55.354 10.452,55.354 C10.452,55.354 7.896,64.355 12.824,64.099 ZM50.549,67.376 L40.017,67.370 C39.335,66.206 37.983,64.433 36.134,63.576 L38.222,54.971 C43.203,55.049 47.318,55.246 50.866,55.500 C69.714,56.846 56.114,74.151 54.660,77.323 C54.660,77.323 59.760,80.833 61.472,81.935 C64.720,84.025 64.441,87.394 63.625,88.865 C63.012,89.967 61.594,89.973 61.327,89.977 C62.949,88.295 61.685,86.136 61.638,86.031 C61.545,85.820 61.300,85.724 61.091,85.816 C60.880,85.909 60.783,86.154 60.876,86.364 C60.884,86.381 61.431,87.618 61.060,88.926 C60.572,90.640 58.936,90.080 58.667,89.961 C59.537,88.451 59.004,86.485 58.981,86.401 C58.921,86.181 58.693,86.050 58.468,86.114 C58.246,86.175 58.118,86.405 58.180,86.625 C58.184,86.639 58.431,87.568 58.284,88.544 C58.132,89.545 57.383,89.127 57.148,88.840 C56.228,87.711 56.352,86.232 56.352,86.232 C56.352,86.232 47.402,80.850 47.033,80.669 C47.328,79.638 50.549,67.376 50.549,67.376 ZM47.934,38.254 L69.157,50.972 C69.979,51.479 70.397,52.535 69.896,53.365 L66.551,51.347 C65.969,51.058 65.370,51.596 65.350,51.726 C65.608,51.894 65.815,52.010 66.006,52.139 L68.781,53.821 L68.781,53.822 C69.604,54.329 69.892,55.333 69.390,56.161 L65.032,53.533 C64.664,53.302 63.978,53.617 63.838,53.821 L66.968,55.718 C67.791,56.226 68.064,57.262 67.563,58.089 L41.499,42.436 C43.606,41.038 45.853,39.631 47.934,38.254 Z" class="cls-1"/>
    <path d="M48.646,17.030 C48.646,17.030 51.368,14.515 54.328,16.087 C57.289,17.660 59.906,16.820 60.899,15.773 C60.742,16.402 59.190,19.669 55.587,19.439 C53.937,19.335 53.229,18.393 51.788,17.450 C50.373,16.523 48.646,17.030 48.646,17.030 " class="cls-2"/>
  </g>
</svg>
