<svg xmlns="http://www.w3.org/2000/svg" xmlns:xlink="http://www.w3.org/1999/xlink" preserveAspectRatio="xMidYMid" width="233.063" height="102.938" viewBox="0 0 233.063 102.938">
  <defs>
    <style>
      .cls-1 {
        fill: #ee4055;
      }

      .cls-1, .cls-2, .cls-3 {
        fill-rule: evenodd;
      }

      .cls-2 {
        fill: #837a77;
      }

      .cls-3 {
        fill: #4b413c;
      }
    </style>
  </defs>
  <g>
    <path d="M156.789,15.732 L152.367,15.732 L148.101,32.282 C147.981,32.746 147.548,33.059 147.074,33.059 C146.988,33.059 146.903,33.050 146.817,33.028 C146.249,32.891 145.904,32.335 146.044,31.785 L150.183,15.732 L146.179,15.732 C145.593,15.732 145.120,15.273 145.120,14.707 C145.120,14.141 145.593,13.682 146.179,13.682 L156.789,13.682 C157.374,13.682 157.849,14.141 157.849,14.707 C157.849,15.273 157.374,15.732 156.789,15.732 ZM136.718,32.445 C136.596,32.908 136.165,33.217 135.691,33.217 C135.605,33.217 135.518,33.207 135.430,33.184 C134.862,33.045 134.520,32.488 134.664,31.940 L138.535,17.220 L115.256,32.601 C114.892,32.842 114.413,32.840 114.052,32.596 C113.691,32.352 113.524,31.920 113.631,31.505 L118.029,14.594 C118.172,14.044 118.749,13.712 119.314,13.849 C119.882,13.987 120.227,14.544 120.084,15.093 L116.367,29.386 L139.655,13.997 C140.019,13.756 140.498,13.758 140.860,14.004 C141.222,14.248 141.389,14.682 141.280,15.095 L136.718,32.445 ZM134.379,11.006 C132.645,11.006 130.803,10.373 129.332,9.394 C127.680,8.296 125.266,7.902 123.848,9.274 C123.435,9.674 122.763,9.674 122.350,9.274 C121.936,8.875 121.936,8.226 122.350,7.825 C124.691,5.560 128.231,6.176 130.531,7.706 C132.442,8.975 135.228,9.499 136.588,8.183 C137.002,7.784 137.673,7.784 138.088,8.183 C138.500,8.583 138.500,9.232 138.088,9.632 C137.088,10.598 135.769,11.006 134.379,11.006 ZM106.940,28.461 C107.258,29.169 107.804,30.199 108.218,30.978 C108.436,31.390 108.625,31.745 108.742,31.981 C108.997,32.493 108.775,33.104 108.248,33.350 C108.101,33.418 107.943,33.452 107.790,33.452 C107.395,33.452 107.018,33.238 106.834,32.871 C106.722,32.646 106.542,32.306 106.333,31.915 C106.163,31.593 105.978,31.245 105.796,30.895 C104.632,32.383 102.783,33.383 100.901,33.383 C99.565,33.383 98.408,32.879 97.641,31.964 C96.857,31.028 96.583,29.791 96.870,28.479 L99.589,17.735 C100.334,15.223 102.928,13.286 105.505,13.286 C106.870,13.286 108.042,13.808 108.808,14.756 C109.586,15.721 109.837,17.040 109.493,18.372 C109.458,18.506 107.385,26.706 106.940,28.461 ZM107.138,16.018 C106.782,15.577 106.202,15.335 105.505,15.335 C103.851,15.335 102.115,16.648 101.636,18.261 L98.934,28.935 C98.792,29.597 98.914,30.227 99.288,30.673 C99.645,31.100 100.218,31.334 100.901,31.334 C102.591,31.334 104.376,29.943 104.800,28.296 C104.840,28.144 107.395,18.036 107.435,17.882 C107.623,17.148 107.519,16.489 107.138,16.018 ZM91.275,18.682 C90.404,16.705 88.383,15.523 85.871,15.523 C81.548,15.523 76.929,19.277 75.783,23.719 C75.261,25.746 75.586,27.621 76.696,28.998 C77.752,30.305 79.429,31.024 81.414,31.024 C84.875,31.024 88.850,28.966 90.658,26.236 C90.974,25.759 91.630,25.619 92.122,25.926 C92.615,26.231 92.758,26.865 92.443,27.341 C90.241,30.663 85.603,33.074 81.414,33.074 C78.762,33.074 76.493,32.075 75.027,30.260 C73.505,28.375 73.045,25.876 73.728,23.223 C75.090,17.939 80.651,13.475 85.871,13.475 C89.261,13.475 92.010,15.121 93.225,17.879 C93.454,18.400 93.204,19.002 92.665,19.224 C92.126,19.446 91.504,19.204 91.275,18.682 ZM67.913,28.795 C67.250,31.366 64.635,33.383 61.958,33.383 C60.624,33.383 59.467,32.880 58.699,31.964 C57.915,31.028 57.642,29.791 57.929,28.479 L60.647,17.735 C61.391,15.223 63.985,13.286 66.562,13.286 C67.926,13.286 69.099,13.807 69.865,14.755 C70.645,15.721 70.894,17.039 70.549,18.372 C70.530,18.454 67.953,28.641 67.913,28.795 ZM68.196,16.018 C67.840,15.577 67.259,15.335 66.562,15.335 C64.908,15.335 63.172,16.648 62.694,18.261 L59.994,28.935 C59.849,29.598 59.971,30.227 60.346,30.675 C60.703,31.100 61.275,31.334 61.958,31.334 C63.648,31.334 65.434,29.943 65.859,28.296 C65.909,28.103 68.471,17.965 68.492,17.882 C68.682,17.148 68.575,16.488 68.196,16.018 ZM50.369,32.165 C50.246,32.624 49.815,32.930 49.345,32.930 C49.256,32.930 49.166,32.919 49.077,32.897 C48.511,32.753 48.172,32.193 48.319,31.646 L52.125,17.556 L36.511,32.560 C36.095,32.958 35.424,32.956 35.011,32.555 C34.599,32.153 34.602,31.504 35.016,31.106 L53.383,13.457 C53.722,13.132 54.244,13.066 54.659,13.296 C55.074,13.527 55.277,13.997 55.156,14.443 L50.369,32.165 ZM18.043,26.742 C18.222,27.469 18.547,28.133 19.013,28.709 C20.050,29.993 21.696,30.701 23.648,30.701 C27.053,30.701 30.962,28.674 32.742,25.988 C33.058,25.512 33.714,25.374 34.205,25.678 C34.698,25.983 34.842,26.617 34.527,27.094 C32.355,30.371 27.780,32.750 23.648,32.750 C21.030,32.750 18.791,31.762 17.343,29.970 C15.841,28.112 15.384,25.643 16.059,23.025 C17.371,17.938 22.729,13.797 28.004,13.797 C31.351,13.797 34.064,15.423 35.265,18.147 C35.490,18.660 35.250,19.254 34.724,19.483 L18.043,26.742 ZM28.004,15.846 C23.641,15.846 19.207,19.289 18.116,23.522 C18.026,23.868 17.962,24.210 17.923,24.546 L32.812,18.068 C31.802,16.662 30.073,15.846 28.004,15.846 ZM9.214,17.772 C9.873,18.148 10.455,18.634 10.934,19.226 C12.212,20.808 12.599,22.903 12.028,25.123 C10.923,29.405 6.413,32.889 1.972,32.889 C1.807,32.889 1.652,32.849 1.512,32.784 C1.376,32.844 1.228,32.880 1.074,32.880 C0.988,32.880 0.903,32.871 0.817,32.849 C0.249,32.712 -0.097,32.156 0.044,31.607 L6.171,7.843 C6.313,7.293 6.890,6.960 7.456,7.096 C7.524,7.113 7.588,7.136 7.649,7.164 C7.722,7.148 7.797,7.139 7.874,7.139 C9.521,7.139 10.936,7.766 11.855,8.905 C12.792,10.066 13.091,11.657 12.675,13.273 C12.195,15.134 10.881,16.752 9.214,17.772 ZM9.973,24.627 C10.384,23.032 10.131,21.562 9.264,20.489 C8.440,19.470 7.131,18.908 5.576,18.908 C5.558,18.908 5.540,18.904 5.522,18.903 C5.516,18.903 5.510,18.904 5.504,18.904 L2.433,30.817 C5.808,30.589 9.127,27.903 9.973,24.627 ZM10.185,10.166 C9.700,9.564 8.928,9.224 8.007,9.194 L6.046,16.802 C8.102,16.481 10.105,14.771 10.619,12.778 C10.881,11.762 10.726,10.837 10.185,10.166 Z" class="cls-1"/>
    <path d="M102.434,52.980 L99.831,63.216 C99.736,63.589 99.400,63.838 99.032,63.838 C98.964,63.838 98.896,63.830 98.828,63.812 C98.386,63.700 98.119,63.251 98.231,62.809 L100.834,52.573 C100.947,52.131 101.396,51.865 101.838,51.976 C102.279,52.089 102.546,52.538 102.434,52.980 ZM99.580,66.718 C99.580,67.599 98.863,68.316 97.982,68.316 C97.101,68.316 96.385,67.599 96.385,66.718 C96.385,65.838 97.101,65.121 97.982,65.121 C98.863,65.121 99.580,65.838 99.580,66.718 ZM97.982,66.665 C97.953,66.665 97.929,66.689 97.929,66.718 C97.929,66.748 97.953,66.772 97.982,66.772 C98.012,66.772 98.036,66.748 98.036,66.718 C98.036,66.689 98.012,66.665 97.982,66.665 ZM91.201,67.083 C91.101,67.450 90.768,67.691 90.405,67.691 C90.333,67.691 90.260,67.682 90.188,67.662 C89.748,67.542 89.488,67.088 89.609,66.648 L90.428,63.646 C89.180,64.629 86.226,66.884 85.186,67.676 C85.036,67.790 84.861,67.845 84.686,67.845 C84.437,67.845 84.192,67.733 84.029,67.520 C83.752,67.157 83.822,66.639 84.185,66.363 C85.525,65.341 87.419,63.892 88.646,62.943 C88.356,62.759 88.102,62.526 87.893,62.245 C87.310,61.460 87.162,60.390 87.486,59.310 C88.073,57.355 90.040,55.936 92.163,55.936 L92.163,55.936 L93.097,55.938 C93.448,55.939 93.745,56.159 93.864,56.468 C93.961,56.647 93.993,56.862 93.935,57.075 L91.201,67.083 ZM89.067,59.785 C88.892,60.369 88.945,60.893 89.218,61.260 C89.461,61.587 89.877,61.768 90.389,61.773 C90.420,61.772 90.450,61.773 90.480,61.776 L90.939,61.776 L92.081,57.594 C90.703,57.629 89.443,58.536 89.067,59.785 ZM82.094,59.131 C81.595,57.960 80.478,57.289 79.029,57.289 C76.562,57.289 73.823,59.595 73.167,62.224 C72.868,63.423 73.050,64.526 73.680,65.332 C74.276,66.095 75.227,66.516 76.358,66.516 C78.373,66.516 80.687,65.277 81.739,63.634 C81.985,63.251 82.496,63.139 82.880,63.385 C83.264,63.631 83.375,64.141 83.129,64.525 C81.777,66.635 78.929,68.167 76.358,68.167 C74.708,68.167 73.295,67.521 72.379,66.349 C71.429,65.134 71.141,63.527 71.565,61.825 C72.415,58.413 75.764,55.638 79.029,55.638 C81.141,55.638 82.854,56.702 83.613,58.485 C83.791,58.904 83.596,59.389 83.177,59.567 C82.757,59.746 82.273,59.551 82.094,59.131 ZM67.442,67.237 C67.346,67.611 67.011,67.859 66.642,67.859 C66.575,67.859 66.506,67.851 66.438,67.834 C65.996,67.721 65.729,67.272 65.841,66.830 L67.906,58.712 L55.105,67.458 C54.822,67.651 54.448,67.649 54.167,67.453 C53.886,67.257 53.755,66.907 53.839,66.575 L56.348,56.596 C56.460,56.154 56.908,55.886 57.350,55.997 C57.792,56.108 58.061,56.557 57.949,56.999 L55.971,64.867 L68.779,56.116 C69.063,55.922 69.436,55.925 69.718,56.121 C69.999,56.318 70.129,56.668 70.045,57.001 L67.442,67.237 ZM65.784,54.679 C64.766,54.679 63.708,54.322 62.892,53.768 C62.080,53.218 60.846,52.862 60.039,53.668 C59.717,53.991 59.194,53.991 58.872,53.668 C58.549,53.346 58.549,52.823 58.872,52.501 C60.122,51.251 62.063,51.212 63.818,52.402 C64.661,52.973 66.234,53.361 66.992,52.603 C67.314,52.280 67.837,52.280 68.160,52.603 C68.482,52.925 68.482,53.448 68.160,53.770 C67.519,54.411 66.666,54.679 65.784,54.679 ZM51.215,59.142 C51.225,59.237 51.221,59.334 51.196,59.431 L49.771,64.948 C49.950,65.393 50.327,66.118 50.565,66.578 C50.687,66.811 50.789,67.008 50.851,67.137 C51.049,67.548 50.877,68.041 50.466,68.239 C50.351,68.295 50.228,68.322 50.108,68.322 C49.801,68.322 49.506,68.150 49.364,67.855 C49.307,67.736 49.212,67.554 49.100,67.339 C48.988,67.124 48.880,66.915 48.779,66.715 C48.053,67.502 47.024,68.010 45.979,68.010 C45.128,68.010 44.389,67.676 43.897,67.069 C43.394,66.449 43.218,65.633 43.400,64.771 C43.403,64.759 43.406,64.747 43.409,64.736 L44.982,58.612 C44.984,58.605 44.986,58.597 44.988,58.590 C45.453,56.970 47.037,55.748 48.672,55.748 C49.542,55.748 50.292,56.095 50.783,56.724 C51.282,57.363 51.443,58.231 51.224,59.107 C51.224,59.110 51.220,59.124 51.215,59.142 ZM49.482,57.740 C49.308,57.517 49.028,57.399 48.672,57.399 C47.795,57.399 46.838,58.147 46.578,59.035 L45.012,65.128 C44.940,65.487 44.999,65.807 45.179,66.029 C45.354,66.245 45.631,66.359 45.979,66.359 C46.895,66.359 47.863,65.577 48.093,64.652 C48.103,64.613 48.335,63.711 48.616,62.619 C49.031,61.010 49.598,58.805 49.622,58.710 C49.719,58.323 49.669,57.979 49.482,57.740 ZM42.088,57.737 L38.041,57.737 L35.688,67.079 C35.594,67.453 35.258,67.703 34.888,67.703 C34.822,67.703 34.754,67.695 34.686,67.678 C34.244,67.566 33.976,67.117 34.088,66.675 L36.338,57.737 L32.401,57.737 C31.945,57.737 31.576,57.368 31.576,56.912 C31.576,56.456 31.945,56.086 32.401,56.086 L42.088,56.086 C42.544,56.086 42.914,56.456 42.914,56.912 C42.914,57.368 42.544,57.737 42.088,57.737 ZM28.879,59.141 C28.889,59.236 28.885,59.333 28.860,59.431 L27.435,64.948 C27.613,65.393 27.990,66.118 28.229,66.578 C28.350,66.811 28.453,67.008 28.515,67.137 C28.713,67.548 28.541,68.041 28.130,68.239 C28.015,68.295 27.892,68.322 27.772,68.322 C27.465,68.322 27.170,68.150 27.028,67.855 C26.971,67.736 26.876,67.554 26.764,67.339 C26.652,67.124 26.544,66.915 26.443,66.715 C25.717,67.502 24.687,68.010 23.643,68.010 C22.792,68.010 22.053,67.676 21.560,67.069 C21.058,66.449 20.881,65.633 21.064,64.771 C21.066,64.759 21.069,64.747 21.072,64.736 L22.646,58.612 C22.648,58.605 22.650,58.597 22.652,58.590 C23.117,56.970 24.701,55.748 26.336,55.748 C27.206,55.748 27.956,56.095 28.447,56.724 C28.946,57.363 29.107,58.231 28.888,59.107 C28.887,59.111 28.884,59.124 28.879,59.141 ZM27.146,57.740 C26.972,57.517 26.692,57.399 26.336,57.399 C25.459,57.399 24.502,58.147 24.242,59.035 L22.676,65.128 C22.603,65.487 22.662,65.807 22.843,66.029 C23.018,66.245 23.295,66.359 23.643,66.359 C24.558,66.359 25.526,65.577 25.757,64.652 C25.767,64.613 25.998,63.712 26.279,62.622 C26.694,61.011 27.262,58.805 27.285,58.710 C27.382,58.322 27.332,57.979 27.146,57.740 ZM5.785,60.361 L17.641,66.145 C18.051,66.345 18.221,66.839 18.021,67.249 C17.878,67.542 17.584,67.713 17.279,67.713 C17.157,67.713 17.034,67.686 16.917,67.629 L3.926,61.290 L2.358,66.958 C2.257,67.324 1.925,67.563 1.563,67.563 C1.490,67.563 1.416,67.554 1.343,67.533 C0.903,67.412 0.646,66.957 0.767,66.517 L4.812,51.895 C4.934,51.455 5.389,51.198 5.828,51.320 C6.267,51.441 6.525,51.896 6.403,52.335 L4.525,59.124 L21.165,51.444 C21.579,51.253 22.069,51.434 22.260,51.848 C22.451,52.262 22.271,52.752 21.857,52.943 L5.785,60.361 Z" class="cls-2"/>
    <g>
      <path d="M227.386,21.923 L230.507,20.012 C231.335,19.513 232.565,19.872 233.073,20.699 L198.736,41.239 L194.063,60.086 C194.063,60.086 193.290,63.087 192.948,64.556 C207.751,74.387 191.767,89.985 191.767,89.985 C191.767,89.985 195.863,92.652 198.664,94.736 C201.762,97.043 201.632,100.196 200.816,101.667 C200.204,102.769 198.785,102.775 198.519,102.779 C200.140,101.097 198.876,98.938 198.829,98.832 C198.737,98.622 198.492,98.526 198.282,98.619 C198.071,98.710 197.974,98.955 198.067,99.166 C198.075,99.183 198.622,100.420 198.251,101.728 C197.763,103.441 196.128,102.883 195.858,102.764 C196.728,101.252 196.196,99.287 196.172,99.203 C196.112,98.983 195.885,98.852 195.660,98.915 C195.437,98.976 195.310,99.206 195.371,99.427 C195.375,99.439 195.624,100.370 195.475,101.346 C195.324,102.347 194.574,101.928 194.338,101.641 C193.419,100.513 193.543,99.035 193.543,99.035 L183.148,92.457 C183.561,90.989 187.056,78.130 187.592,76.271 C185.755,75.049 181.185,72.569 179.706,71.591 C174.199,67.953 176.878,61.129 177.809,57.029 C180.192,46.560 187.224,19.294 187.224,19.294 C187.224,19.294 188.309,13.242 192.335,9.406 C194.218,6.968 196.952,3.394 198.637,1.302 C199.371,0.392 199.926,0.347 199.926,0.347 L198.383,6.439 C198.905,6.368 199.447,6.167 200.017,6.167 C206.303,6.167 205.481,9.178 205.481,9.178 L216.280,9.178 C216.280,9.178 216.180,12.240 211.984,14.231 C209.156,15.573 205.692,15.926 201.744,16.186 C201.639,16.580 201.377,17.788 201.250,18.194 C205.393,18.194 210.063,18.097 210.063,18.097 C210.063,18.097 207.152,21.135 204.137,21.135 C203.540,23.523 201.510,31.188 201.510,31.188 L227.289,15.892 C228.118,15.393 229.248,15.506 229.756,16.331 L226.431,18.383 C225.906,18.765 226.109,19.546 226.216,19.621 C226.484,19.468 226.683,19.339 226.885,19.228 L226.885,19.229 L229.651,17.530 L229.652,17.530 C230.480,17.033 231.502,17.237 232.010,18.061 L227.677,20.730 C227.305,20.954 227.268,21.708 227.386,21.923 ZM196.062,31.622 L198.185,29.226 L194.991,29.226 L196.062,31.622 ZM189.004,31.627 L191.127,29.232 L187.934,29.232 L189.004,31.627 ZM189.242,22.264 L190.313,24.659 L192.434,22.264 L189.242,22.264 ZM192.159,26.167 L193.230,28.564 L195.353,26.167 L192.159,26.167 ZM196.620,23.172 L197.692,25.567 L199.813,23.172 L196.620,23.172 ZM201.988,10.965 C203.457,10.965 203.255,8.817 203.255,8.817 L199.185,9.520 C199.185,9.520 200.522,10.965 201.988,10.965 ZM200.431,4.833 C201.066,3.824 201.921,2.539 203.228,0.859 C203.871,0.032 204.352,-0.027 204.726,-0.004 C204.501,1.379 203.742,5.115 203.742,5.115 C203.742,5.115 202.422,4.741 200.431,4.833 ZM172.073,64.099 L174.136,64.144 L173.477,67.123 C173.477,67.123 168.735,67.193 167.490,66.961 C163.797,66.278 157.716,63.037 159.589,55.523 C161.461,48.016 165.011,33.132 167.374,23.659 C168.403,19.528 172.067,10.212 181.612,8.499 C180.267,14.005 169.701,55.354 169.701,55.354 C169.701,55.354 167.145,64.355 172.073,64.099 ZM209.798,67.376 L199.266,67.370 C198.585,66.206 197.233,64.433 195.384,63.576 L197.471,54.971 C202.452,55.049 206.567,55.246 210.116,55.500 C228.963,56.846 215.363,74.151 213.909,77.323 C213.909,77.323 219.010,80.833 220.722,81.935 C223.970,84.025 223.691,87.394 222.875,88.865 C222.262,89.967 220.844,89.973 220.576,89.977 C222.198,88.295 220.934,86.136 220.888,86.031 C220.795,85.820 220.550,85.724 220.340,85.816 C220.130,85.909 220.033,86.154 220.126,86.364 C220.133,86.381 220.681,87.618 220.309,88.926 C219.822,90.640 218.186,90.080 217.916,89.961 C218.786,88.451 218.254,86.485 218.230,86.401 C218.170,86.181 217.943,86.050 217.717,86.114 C217.496,86.175 217.368,86.405 217.430,86.625 C217.433,86.639 217.680,87.568 217.534,88.544 C217.382,89.545 216.632,89.127 216.397,88.840 C215.477,87.711 215.602,86.232 215.602,86.232 C215.602,86.232 206.651,80.850 206.282,80.669 C206.577,79.638 209.798,67.376 209.798,67.376 ZM207.183,38.254 L228.407,50.972 C229.229,51.479 229.647,52.535 229.146,53.365 L225.801,51.347 C225.218,51.058 224.619,51.596 224.599,51.726 C224.858,51.894 225.065,52.010 225.256,52.139 L228.031,53.821 L228.031,53.822 C228.854,54.329 229.141,55.333 228.639,56.161 L224.282,53.533 C223.914,53.302 223.227,53.617 223.088,53.821 L226.217,55.718 C227.041,56.226 227.313,57.262 226.812,58.089 L200.748,42.436 C202.855,41.038 205.102,39.631 207.183,38.254 Z" class="cls-3"/>
      <path d="M207.895,17.030 C207.895,17.030 210.617,14.515 213.577,16.087 C216.538,17.660 219.156,16.820 220.149,15.773 C219.992,16.402 218.439,19.669 214.836,19.439 C213.187,19.335 212.479,18.393 211.038,17.450 C209.623,16.523 207.895,17.030 207.895,17.030 " class="cls-1"/>
    </g>
  </g>
</svg>
