<svg xmlns="http://www.w3.org/2000/svg" xmlns:xlink="http://www.w3.org/1999/xlink" preserveAspectRatio="xMidYMid" width="210" height="37.969" viewBox="0 0 210 37.969">
  <defs>
    <style>
      .cls-1 {
        fill: #ee4055;
        fill-rule: evenodd;
      }
    </style>
  </defs>
  <path d="M208.585,13.160 L202.702,13.160 L197.025,36.346 C196.865,36.996 196.289,37.434 195.658,37.434 C195.544,37.434 195.431,37.421 195.316,37.390 C194.561,37.198 194.102,36.420 194.288,35.650 L199.795,13.160 L194.467,13.160 C193.688,13.160 193.058,12.517 193.058,11.723 C193.058,10.931 193.688,10.288 194.467,10.288 L208.585,10.288 C209.363,10.288 209.996,10.931 209.996,11.723 C209.996,12.517 209.363,13.160 208.585,13.160 ZM181.878,36.573 C181.716,37.222 181.143,37.655 180.513,37.655 C180.398,37.655 180.282,37.642 180.165,37.610 C179.409,37.414 178.954,36.635 179.146,35.866 L184.297,15.244 L153.322,36.793 C152.837,37.130 152.200,37.127 151.720,36.785 C151.240,36.444 151.017,35.839 151.160,35.258 L157.012,11.565 C157.202,10.795 157.970,10.330 158.721,10.522 C159.478,10.716 159.936,11.496 159.746,12.264 L154.799,32.289 L185.787,10.729 C186.271,10.391 186.908,10.394 187.390,10.738 C187.871,11.081 188.093,11.689 187.949,12.267 L181.878,36.573 ZM178.766,6.539 C176.460,6.539 174.009,5.651 172.051,4.281 C169.853,2.742 166.641,2.190 164.754,4.113 C164.204,4.673 163.311,4.673 162.761,4.113 C162.211,3.553 162.211,2.644 162.761,2.082 C165.876,-1.090 170.586,-0.228 173.647,1.916 C176.189,3.693 179.897,4.428 181.706,2.584 C182.256,2.025 183.150,2.025 183.701,2.584 C184.250,3.144 184.250,4.053 183.701,4.613 C182.371,5.968 180.616,6.539 178.766,6.539 ZM142.256,30.992 C142.680,31.984 143.406,33.428 143.957,34.518 C144.247,35.096 144.499,35.593 144.654,35.924 C144.994,36.641 144.699,37.497 143.997,37.842 C143.801,37.938 143.592,37.984 143.387,37.984 C142.862,37.984 142.360,37.686 142.116,37.171 C141.967,36.856 141.727,36.380 141.449,35.831 C141.222,35.380 140.977,34.892 140.735,34.403 C139.186,36.487 136.725,37.887 134.222,37.887 C132.444,37.887 130.904,37.182 129.884,35.900 C128.841,34.589 128.475,32.855 128.858,31.018 L132.475,15.966 C133.466,12.446 136.918,9.733 140.347,9.733 C142.163,9.733 143.723,10.464 144.742,11.792 C145.778,13.144 146.111,14.992 145.653,16.858 C145.608,17.046 142.848,28.534 142.256,30.992 ZM142.520,13.560 C142.046,12.942 141.275,12.603 140.347,12.603 C138.147,12.603 135.836,14.443 135.199,16.703 L131.604,31.656 C131.415,32.584 131.577,33.467 132.075,34.092 C132.549,34.689 133.313,35.017 134.222,35.017 C136.470,35.017 138.844,33.069 139.410,30.762 C139.462,30.548 142.862,16.387 142.915,16.172 C143.166,15.144 143.026,14.221 142.520,13.560 ZM121.413,17.293 C120.254,14.522 117.565,12.868 114.223,12.868 C108.470,12.868 102.324,18.126 100.800,24.349 C100.105,27.189 100.537,29.816 102.014,31.745 C103.420,33.575 105.651,34.583 108.291,34.583 C112.897,34.583 118.186,31.699 120.592,27.875 C121.012,27.207 121.885,27.011 122.539,27.441 C123.196,27.869 123.386,28.757 122.966,29.423 C120.038,34.077 113.866,37.455 108.291,37.455 C104.763,37.455 101.744,36.055 99.794,33.512 C97.768,30.871 97.156,27.371 98.065,23.655 C99.878,16.251 107.277,9.997 114.223,9.997 C118.733,9.997 122.390,12.304 124.007,16.167 C124.312,16.897 123.979,17.742 123.262,18.052 C122.546,18.363 121.718,18.024 121.413,17.293 ZM90.327,31.461 C89.446,35.062 85.965,37.887 82.404,37.887 C80.629,37.887 79.089,37.184 78.068,35.900 C77.024,34.589 76.661,32.855 77.043,31.018 L80.659,15.966 C81.649,12.446 85.101,9.733 88.530,9.733 C90.345,9.733 91.905,10.462 92.925,11.791 C93.962,13.144 94.294,14.991 93.835,16.858 C93.809,16.973 90.381,31.244 90.327,31.461 ZM90.704,13.560 C90.230,12.942 89.458,12.603 88.530,12.603 C86.329,12.603 84.019,14.443 83.383,16.703 L79.791,31.656 C79.597,32.586 79.760,33.467 80.258,34.094 C80.734,34.689 81.495,35.017 82.404,35.017 C84.653,35.017 87.029,33.069 87.594,30.762 C87.661,30.490 91.071,16.289 91.098,16.172 C91.351,15.144 91.209,14.219 90.704,13.560 ZM66.984,36.181 C66.820,36.825 66.247,37.253 65.622,37.253 C65.503,37.253 65.383,37.238 65.265,37.208 C64.511,37.006 64.060,36.221 64.257,35.455 L69.320,15.716 L48.544,36.735 C47.991,37.293 47.098,37.290 46.549,36.728 C46.001,36.165 46.004,35.256 46.556,34.697 L70.995,9.973 C71.446,9.518 72.139,9.424 72.693,9.747 C73.244,10.070 73.515,10.729 73.354,11.353 L66.984,36.181 ZM23.971,28.584 C24.209,29.602 24.641,30.532 25.261,31.340 C26.641,33.139 28.831,34.131 31.429,34.131 C35.959,34.131 41.162,31.291 43.530,27.528 C43.949,26.861 44.823,26.667 45.477,27.094 C46.132,27.521 46.324,28.409 45.904,29.078 C43.014,33.669 36.926,37.001 31.429,37.001 C27.945,37.001 24.966,35.618 23.039,33.107 C21.041,30.503 20.433,27.045 21.331,23.377 C23.077,16.250 30.206,10.449 37.225,10.449 C41.678,10.449 45.288,12.727 46.886,16.544 C47.186,17.262 46.866,18.094 46.166,18.415 L23.971,28.584 ZM37.225,13.320 C31.420,13.320 25.520,18.143 24.068,24.073 C23.948,24.557 23.864,25.037 23.812,25.508 L43.623,16.432 C42.278,14.463 39.978,13.320 37.225,13.320 ZM12.226,16.016 C13.103,16.543 13.875,17.226 14.512,18.055 C16.212,20.271 16.728,23.206 15.968,26.316 C14.497,32.315 8.496,37.196 2.587,37.196 C2.367,37.196 2.161,37.141 1.976,37.049 C1.795,37.133 1.597,37.184 1.393,37.184 C1.279,37.184 1.165,37.171 1.050,37.140 C0.295,36.948 -0.166,36.170 0.022,35.400 L8.174,2.108 C8.363,1.338 9.130,0.871 9.884,1.062 C9.974,1.085 10.060,1.117 10.141,1.156 C10.238,1.134 10.337,1.122 10.441,1.122 C12.632,1.122 14.514,2.000 15.738,3.595 C16.985,5.222 17.383,7.452 16.828,9.715 C16.190,12.321 14.443,14.587 12.226,16.016 ZM13.233,25.621 C13.780,23.387 13.444,21.327 12.290,19.824 C11.194,18.397 9.452,17.609 7.383,17.609 C7.358,17.609 7.335,17.603 7.311,17.602 C7.303,17.602 7.295,17.603 7.286,17.604 L3.200,34.293 C7.691,33.973 12.107,30.210 13.233,25.621 ZM13.515,5.362 C12.869,4.518 11.843,4.043 10.617,4.000 L8.008,14.658 C10.744,14.210 13.409,11.813 14.093,9.021 C14.441,7.598 14.235,6.302 13.515,5.362 Z" class="cls-1"/>
</svg>
