<?xml version="1.0" encoding="UTF-8" standalone="no"?>
<svg width="20px" height="17px" viewBox="0 0 20 17" version="1.1" xmlns="http://www.w3.org/2000/svg" xmlns:xlink="http://www.w3.org/1999/xlink" xmlns:sketch="http://www.bohemiancoding.com/sketch/ns">
    <!-- Generator: Sketch 3.3.1 (12002) - http://www.bohemiancoding.com/sketch -->
    <title>A4</title>
    <desc>Created with Sketch.</desc>
    <defs></defs>
    <g id="Page-1" stroke="none" stroke-width="1" fill="none" fill-rule="evenodd" sketch:type="MSPage">
        <g id="A4" sketch:type="MSArtboardGroup" fill="#EE4055">
            <path d="M16.9839901,6.21800816 C16.9399901,6.08500816 16.8129901,5.99400816 16.6699901,5.99400816 L10.7329901,5.99400816 L8.81399011,0.22400816 C8.76999011,0.0910081602 8.64299011,8.16021807e-06 8.49999011,8.16021807e-06 C8.35799011,-0.000991839782 8.23099011,0.0900081602 8.18599011,0.22300816 L6.25699011,5.99400816 L0.329990113,5.99400816 C0.186990113,5.99400816 0.0599901127,6.08500816 0.0159901127,6.21800816 C-0.0280098873,6.35100816 0.0209901127,6.49800816 0.135990113,6.58100816 L4.98199011,9.90000816 L3.11499011,15.5450082 C3.07099011,15.6780082 3.11899011,15.8250082 3.23399011,15.9080082 C3.34999011,15.9900082 3.50699011,15.9900082 3.62199011,15.9080082 L8.49999011,12.4220082 L13.3669901,15.9080082 C13.4249901,15.9490082 13.4929901,15.9700082 13.5609901,15.9700082 C13.6289901,15.9700082 13.6969901,15.9490082 13.7549901,15.9080082 C13.8719901,15.8250082 13.9189901,15.6790082 13.8749901,15.5450082 L12.0079901,9.90000816 L16.8639901,6.58100816 C16.9799901,6.49900816 17.0279901,6.35200816 16.9839901,6.21800816 L16.9839901,6.21800816 Z" id="Shape" sketch:type="MSShapeGroup"></path>
        </g>
    </g>
</svg>