<?xml version="1.0" encoding="UTF-8" standalone="no"?>
<svg width="437px" height="77px" viewBox="0 0 437 77" version="1.1" xmlns="http://www.w3.org/2000/svg" xmlns:xlink="http://www.w3.org/1999/xlink" xmlns:sketch="http://www.bohemiancoding.com/sketch/ns">
    <!-- Generator: Sketch 3.3.1 (12002) - http://www.bohemiancoding.com/sketch -->
    <title>Shape</title>
    <desc>Created with Sketch.</desc>
    <defs></defs>
    <g id="Page-1" stroke="none" stroke-width="1" fill="none" fill-rule="evenodd" sketch:type="MSPage">
        <path d="M436.890333,8.09616161 L425.707834,53.7702501 C425.299713,55.4346146 423.856256,56.5456783 422.275326,56.5456783 C421.983198,56.5456783 421.69107,56.5099815 421.398942,56.4296637 C419.500108,55.9299081 418.353075,53.9264238 418.834227,51.9541741 L430.016726,6.2800856 C430.502175,4.30783597 432.431081,3.12091652 434.329915,3.61620997 C436.224452,4.12042764 437.371486,6.12391198 436.890333,8.09616161 L436.890333,8.09616161 Z M424.629537,69.3965356 C424.629537,73.3276486 421.549302,76.5269766 417.764522,76.5269766 C413.979742,76.5269766 410.903803,73.3276486 410.903803,69.3965356 C410.903803,65.4698848 413.979742,62.2705568 417.764522,62.2705568 C421.549302,62.2705568 424.629537,65.4698848 424.629537,69.3965356 L424.629537,69.3965356 Z M417.764522,69.1600441 C417.639938,69.1600441 417.536834,69.2671346 417.536834,69.3965356 C417.536834,69.5303987 417.639938,69.6374892 417.764522,69.6374892 C417.893402,69.6374892 417.996506,69.5303987 417.996506,69.3965356 C417.996506,69.2671346 417.893402,69.1600441 417.764522,69.1600441 L417.764522,69.1600441 Z M388.633317,71.0252033 C388.203716,72.6627952 386.773147,73.7381621 385.213697,73.7381621 C384.904385,73.7381621 384.590777,73.6980031 384.281464,73.6087611 C382.391223,73.0733087 381.274261,71.0475138 381.794078,69.0841884 L385.312505,55.6889545 C379.951092,60.075202 367.260695,70.1372448 362.792851,73.6712305 C362.14845,74.1799103 361.39665,74.4253259 360.644849,74.4253259 C359.575144,74.4253259 358.522623,73.9255704 357.822374,72.9751424 C356.632381,71.3553989 356.933101,69.0440295 358.492551,67.812489 C364.249196,63.2522195 372.385829,56.7866319 377.657026,52.552096 C376.411185,51.731069 375.319999,50.6913989 374.422135,49.4375479 C371.917564,45.9347969 371.281755,41.1603465 372.673661,36.341275 C375.195415,27.6178632 383.645656,21.2861387 392.766073,21.2861387 L392.766073,21.2861387 L396.778541,21.2950629 C398.286438,21.299525 399.562352,22.2811877 400.073576,23.6599776 C400.490289,24.4586941 400.627761,25.4180463 400.378593,26.3684743 L388.633317,71.0252033 L388.633317,71.0252033 Z M379.465644,38.460774 C378.713843,41.0666423 378.941531,43.4047844 380.11434,45.0423763 C381.158269,46.501484 382.945407,47.3091247 385.144961,47.3314352 C385.278137,47.3269731 385.407018,47.3314352 385.535898,47.3448215 L387.507764,47.3448215 L392.413801,28.6843059 C386.493907,28.8404795 381.080941,32.8876071 379.465644,38.460774 L379.465644,38.460774 Z M349.509606,35.5425585 C347.365899,30.3174356 342.567263,27.3233644 336.342352,27.3233644 C325.74411,27.3233644 313.977354,37.6129744 311.159175,49.3438438 C309.87467,54.6939055 310.656543,59.6156054 313.363025,63.2120606 C315.923444,66.6166453 320.008944,68.4951908 324.867725,68.4951908 C333.524174,68.4951908 343.465128,62.9666449 347.984524,55.6354093 C349.041341,53.9264238 351.236599,53.4266682 352.886265,54.5243456 C354.535931,55.622023 355.012787,57.8976956 353.95597,59.6111433 C348.147772,69.0261811 335.912752,75.8621232 324.867725,75.8621232 C317.779318,75.8621232 311.709064,72.9796045 307.773924,67.7500195 C303.69272,62.3285641 302.455471,55.1579642 304.276976,47.5634646 C307.92858,32.3387684 322.315898,19.956432 336.342352,19.956432 C345.415514,19.956432 352.774569,24.7041098 356.035236,32.6600398 C356.799925,34.5296611 355.962204,36.6937811 354.162178,37.4880355 C352.357856,38.286752 350.27859,37.4166419 349.509606,35.5425585 L349.509606,35.5425585 Z M286.564551,71.7123672 C286.152134,73.3811938 284.712973,74.4877954 283.127747,74.4877954 C282.839915,74.4877954 282.543491,74.4520986 282.251362,74.3762428 C280.352528,73.8720251 279.205495,71.8685408 279.686648,69.8962912 L288.557897,33.6729373 L233.564746,72.698492 C232.348976,73.5596779 230.742271,73.5507537 229.535094,72.6761815 C228.327916,71.8016093 227.76514,70.2398731 228.126004,68.7584549 L238.904679,24.2311268 C239.385831,22.2588772 241.310441,21.0630336 243.209275,21.558327 C245.108109,22.0536205 246.263734,24.0571048 245.782582,26.0293544 L237.285085,61.1371826 L292.308308,22.0893173 C293.528374,21.2236693 295.130783,21.2370556 296.342256,22.1116278 C297.549434,22.9906621 298.107914,24.5523983 297.74705,26.0382786 L286.564551,71.7123672 L286.564551,71.7123672 Z M279.441776,15.677275 C275.068443,15.677275 270.523271,14.0843041 267.017731,11.6122989 C263.529376,9.15814217 258.228106,7.56963343 254.761231,11.1660886 C253.377917,12.607348 251.131107,12.607348 249.747794,11.1660886 C248.360184,9.72929138 248.360184,7.3956114 249.747794,5.95881416 C255.117799,0.381185141 263.456344,0.207163115 270.995831,5.51706594 C274.617363,8.06492688 281.374977,9.79622293 284.631349,6.41394869 C286.014662,4.97268935 288.261472,4.97268935 289.649082,6.41394869 C291.032395,7.85074593 291.032395,10.1844259 289.649082,11.6212231 C286.895343,14.4814313 283.230851,15.677275 279.441776,15.677275 L279.441776,15.677275 Z M216.853289,35.5916416 C216.896249,36.0155414 216.879065,36.4483655 216.771665,36.8811895 L210.649859,61.4986129 C211.418843,63.4842489 213.038437,66.7192737 214.060886,68.7718412 C214.584999,69.8115112 215.023191,70.6905456 215.289543,71.2661569 C216.140152,73.1000813 215.401239,75.2998982 213.635582,76.1833946 C213.141541,76.4332724 212.613133,76.5537492 212.097612,76.5537492 C210.778739,76.5537492 209.511418,75.7862674 208.901385,74.469947 C208.656513,73.9389567 208.248392,73.1268539 207.76724,72.1675017 C207.286087,71.2081495 206.822119,70.27557 206.388222,69.3831493 C203.269323,72.8948245 198.848735,75.161573 194.35941,75.161573 C190.703511,75.161573 187.528764,73.6712305 185.415129,70.9627338 C183.254239,68.1962299 182.498143,64.5551536 183.280015,60.7088207 C183.292903,60.6552754 183.305791,60.6017302 183.318679,60.552647 L190.076294,33.2267269 C190.084886,33.1954922 190.093478,33.1597954 190.10207,33.1285607 C192.099712,25.8999534 198.904583,20.4472633 205.92855,20.4472633 C209.666074,20.4472633 212.888077,21.9956131 214.997415,24.8022761 C217.141121,27.65356 217.832778,31.5266656 216.891953,35.435468 C216.891953,35.4488543 216.874769,35.5113238 216.853289,35.5916416 L216.853289,35.5916416 Z M209.408313,29.3357729 C208.660809,28.3407239 207.457928,27.8141957 205.92855,27.8141957 C202.160954,27.8141957 198.049678,31.1518489 196.932717,35.1141966 L190.205174,62.3017915 C189.895862,63.9036866 190.149326,65.3315596 190.922607,66.3221465 C191.674408,67.2859608 192.864401,67.7946406 194.35941,67.7946406 C198.29455,67.7946406 202.453083,64.3052758 203.441163,60.1778304 C203.484124,60.0038083 204.480797,55.9789912 205.687974,51.1063745 C207.470816,43.9268504 209.90665,34.0879129 210.009754,33.664013 C210.426466,31.9371791 210.211666,30.4022156 209.408313,29.3357729 L209.408313,29.3357729 Z M177.643658,29.3223866 L160.257728,29.3223866 L150.14923,71.0073549 C149.745406,72.6761815 148.301948,73.7917073 146.712427,73.7917073 C146.42889,73.7917073 146.136762,73.7560105 145.844634,73.6801547 C143.9458,73.1803991 142.794471,71.1769148 143.275623,69.2046652 L152.941633,29.3223866 L136.028264,29.3223866 C134.069286,29.3223866 132.484061,27.6758705 132.484061,25.6411515 C132.484061,23.6064324 134.069286,21.9554542 136.028264,21.9554542 L177.643658,21.9554542 C179.602636,21.9554542 181.192157,23.6064324 181.192157,25.6411515 C181.192157,27.6758705 179.602636,29.3223866 177.643658,29.3223866 L177.643658,29.3223866 Z M120.897737,35.5871795 C120.940697,36.0110793 120.923513,36.4439034 120.816113,36.8811895 L114.694307,61.4986129 C115.458995,63.4842489 117.078589,66.7192737 118.105334,68.7718412 C118.625151,69.8115112 119.067639,70.6905456 119.333991,71.2661569 C120.1846,73.1000813 119.445687,75.2998982 117.68003,76.1833946 C117.185989,76.4332724 116.657581,76.5537492 116.14206,76.5537492 C114.823187,76.5537492 113.555866,75.7862674 112.945833,74.469947 C112.700961,73.9389567 112.29284,73.1268539 111.811688,72.1675017 C111.330535,71.2081495 110.866567,70.27557 110.43267,69.3831493 C107.313771,72.8948245 102.888887,75.161573 98.4038584,75.161573 C94.7479587,75.161573 91.5732116,73.6712305 89.4552815,70.9627338 C87.2986873,68.1962299 86.5382945,64.5551536 87.3244633,60.7088207 C87.3330553,60.6552754 87.3459433,60.6017302 87.3588314,60.552647 L94.1207421,33.2267269 C94.1293341,33.1954922 94.1379261,33.1597954 94.1465181,33.1285607 C96.1441601,25.8999534 102.949031,20.4472633 109.972998,20.4472633 C113.710522,20.4472633 116.932525,21.9956131 119.041863,24.8022761 C121.185569,27.65356 121.877226,31.5266656 120.936401,35.435468 C120.932105,35.4533164 120.919217,35.5113238 120.897737,35.5871795 L120.897737,35.5871795 Z M113.452761,29.3357729 C112.705257,28.3407239 111.502376,27.8141957 109.972998,27.8141957 C106.205402,27.8141957 102.094126,31.1518489 100.977165,35.1141966 L94.2496223,62.3017915 C93.9360139,63.9036866 94.1894782,65.3315596 94.967055,66.3221465 C95.7188557,67.2859608 96.9088489,67.7946406 98.4038584,67.7946406 C102.334702,67.7946406 106.493235,64.3052758 107.485611,60.1778304 C107.528572,60.0038083 108.520949,55.9834533 109.728126,51.1197608 C111.510968,43.9313126 113.951098,34.0879129 114.049906,33.664013 C114.466618,31.932717 114.251818,30.4022156 113.452761,29.3357729 L113.452761,29.3357729 Z M21.6858136,41.0309455 L72.6192406,66.8397505 C74.3806024,67.7321711 75.1109231,69.9364501 74.2517222,71.7659124 C73.6373936,73.0733087 72.3743684,73.8363283 71.0640871,73.8363283 C70.5399745,73.8363283 70.011566,73.7158515 69.5089335,73.4615117 L13.6995417,45.1762393 L6.96340692,70.4674404 C6.52951049,72.1005702 5.10323706,73.1670128 3.5480835,73.1670128 C3.23447519,73.1670128 2.91657087,73.1268539 2.60296256,73.0331497 C0.712720666,72.4932353 -0.391352439,70.4629783 0.128464081,68.4996529 L17.5058015,3.25477961 C18.029914,1.2914542 19.9845959,0.14469367 21.8705418,0.689070263 C23.7564877,1.22898475 24.8648568,3.25924172 24.3407443,5.21810503 L16.2728482,35.5113238 L87.7583598,1.24237106 C89.5369055,0.390109347 91.6419476,1.19775003 92.4624845,3.04506076 C93.2830213,4.89237149 92.5097405,7.07880207 90.7311947,7.93106379 L21.6858136,41.0309455 L21.6858136,41.0309455 Z" id="Shape" fill="#FFFFFF" sketch:type="MSShapeGroup"></path>
    </g>
</svg>