<svg xmlns="http://www.w3.org/2000/svg" xmlns:xlink="http://www.w3.org/1999/xlink" preserveAspectRatio="xMidYMid" width="20" height="57" viewBox="0 0 20 57">
  <defs>
    <style>
      .cls-1 {
        fill: #60c3ae;
        filter: url(#color-overlay-1);
      }

      .cls-1, .cls-2, .cls-3 {
        fill-rule: evenodd;
      }

      .cls-2 {
        fill: #ece8e7;
      }

      .cls-3 {
        fill: #fff;
      }
    </style>

    <filter id="color-overlay-1" filterUnits="userSpaceOnUse">
      <feFlood flood-color="#ee4055"/>
      <feComposite operator="in" in2="SourceGraphic"/>
      <feBlend in2="SourceGraphic" result="solidFill"/>
    </filter>
  </defs>
  <path d="M92.008,66.900 L93.875,72.545 C93.919,72.679 93.872,72.825 93.755,72.908 C93.697,72.949 93.629,72.970 93.561,72.970 C93.493,72.970 93.425,72.949 93.367,72.908 L88.500,69.423 L83.622,72.908 C83.507,72.990 83.350,72.990 83.234,72.908 C83.119,72.825 83.071,72.678 83.115,72.545 L84.982,66.899 L80.136,63.425 C80.021,63.342 79.972,63.195 80.016,63.062 C80.060,62.928 80.187,62.837 80.330,62.837 L86.319,62.837 L88.187,57.223 C88.231,57.090 88.358,56.999 88.500,56.999 C88.643,57.000 88.770,57.090 88.814,57.224 L90.671,62.837 L96.670,62.837 C96.813,62.837 96.940,62.929 96.984,63.062 C97.028,63.195 96.980,63.343 96.864,63.425 L92.008,66.900 ZM92.008,9.900 L93.875,15.545 C93.919,15.679 93.872,15.825 93.755,15.908 C93.697,15.949 93.629,15.970 93.561,15.970 C93.493,15.970 93.425,15.949 93.367,15.908 L88.500,12.422 L83.622,15.908 C83.507,15.990 83.350,15.990 83.234,15.908 C83.119,15.825 83.071,15.678 83.115,15.545 L84.982,9.900 L80.136,6.425 C80.021,6.342 79.972,6.195 80.016,6.062 C80.060,5.928 80.187,5.837 80.330,5.837 L86.319,5.837 L88.187,0.223 C88.231,0.090 88.358,-0.001 88.500,-0.000 C88.643,-0.000 88.770,0.091 88.814,0.224 L90.671,5.837 L96.670,5.837 C96.813,5.837 96.940,5.928 96.984,6.062 C97.028,6.195 96.980,6.343 96.864,6.425 L92.008,9.900 ZM72.008,123.900 L73.875,129.545 C73.919,129.679 73.872,129.825 73.755,129.908 C73.697,129.949 73.629,129.970 73.561,129.970 C73.493,129.970 73.425,129.949 73.367,129.908 L68.500,126.422 L63.622,129.908 C63.507,129.990 63.350,129.990 63.234,129.908 C63.119,129.825 63.070,129.678 63.115,129.545 L64.982,123.900 L60.136,120.425 C60.021,120.342 59.972,120.195 60.016,120.062 C60.060,119.928 60.187,119.838 60.330,119.838 L66.319,119.838 L68.187,114.223 C68.231,114.090 68.358,113.999 68.500,114.000 C68.643,114.000 68.770,114.091 68.814,114.224 L70.671,119.838 L76.670,119.838 C76.813,119.838 76.940,119.929 76.984,120.062 C77.028,120.195 76.980,120.343 76.864,120.425 L72.008,123.900 ZM72.008,66.900 L73.875,72.545 C73.919,72.679 73.872,72.825 73.755,72.908 C73.697,72.949 73.629,72.970 73.561,72.970 C73.493,72.970 73.425,72.949 73.367,72.908 L68.500,69.423 L63.622,72.908 C63.507,72.990 63.350,72.990 63.234,72.908 C63.119,72.825 63.070,72.678 63.115,72.545 L64.982,66.899 L60.136,63.425 C60.021,63.342 59.972,63.195 60.016,63.062 C60.060,62.928 60.187,62.837 60.330,62.837 L66.319,62.837 L68.187,57.223 C68.231,57.090 68.358,56.999 68.500,56.999 C68.643,57.000 68.770,57.090 68.814,57.224 L70.671,62.837 L76.670,62.837 C76.813,62.837 76.940,62.929 76.984,63.062 C77.028,63.195 76.980,63.343 76.864,63.425 L72.008,66.900 ZM72.008,9.900 L73.875,15.545 C73.919,15.679 73.872,15.825 73.755,15.908 C73.697,15.949 73.629,15.970 73.561,15.970 C73.493,15.970 73.425,15.949 73.367,15.908 L68.500,12.422 L63.622,15.908 C63.507,15.990 63.350,15.990 63.234,15.908 C63.119,15.825 63.070,15.678 63.115,15.545 L64.982,9.900 L60.136,6.425 C60.021,6.342 59.972,6.195 60.016,6.062 C60.060,5.928 60.187,5.837 60.330,5.837 L66.319,5.837 L68.187,0.223 C68.231,0.090 68.358,-0.001 68.500,-0.000 C68.643,-0.000 68.770,0.091 68.814,0.224 L70.671,5.837 L76.670,5.837 C76.813,5.837 76.940,5.928 76.984,6.062 C77.028,6.195 76.980,6.343 76.864,6.425 L72.008,9.900 ZM52.008,123.900 L53.875,129.545 C53.919,129.679 53.872,129.825 53.755,129.908 C53.697,129.949 53.629,129.970 53.561,129.970 C53.493,129.970 53.425,129.949 53.367,129.908 L48.500,126.422 L43.622,129.908 C43.507,129.990 43.350,129.990 43.234,129.908 C43.119,129.825 43.070,129.678 43.115,129.545 L44.982,123.900 L40.136,120.425 C40.021,120.342 39.972,120.195 40.016,120.062 C40.060,119.928 40.188,119.838 40.330,119.838 L46.319,119.838 L48.186,114.223 C48.231,114.090 48.358,113.999 48.500,114.000 C48.643,114.000 48.770,114.091 48.814,114.224 L50.671,119.838 L56.670,119.838 C56.813,119.838 56.940,119.929 56.984,120.062 C57.028,120.195 56.980,120.343 56.864,120.425 L52.008,123.900 ZM52.008,66.900 L53.875,72.545 C53.919,72.679 53.872,72.825 53.755,72.908 C53.697,72.949 53.629,72.970 53.561,72.970 C53.493,72.970 53.425,72.949 53.367,72.908 L48.500,69.423 L43.622,72.908 C43.507,72.990 43.350,72.990 43.234,72.908 C43.119,72.825 43.070,72.678 43.115,72.545 L44.982,66.899 L40.136,63.425 C40.021,63.342 39.972,63.195 40.016,63.062 C40.060,62.928 40.188,62.837 40.330,62.837 L46.319,62.837 L48.186,57.223 C48.231,57.090 48.358,56.999 48.500,56.999 C48.643,57.000 48.770,57.090 48.814,57.224 L50.671,62.837 L56.670,62.837 C56.813,62.837 56.940,62.929 56.984,63.062 C57.028,63.195 56.980,63.343 56.864,63.425 L52.008,66.900 ZM52.008,9.900 L53.875,15.545 C53.919,15.679 53.872,15.825 53.755,15.908 C53.697,15.949 53.629,15.970 53.561,15.970 C53.493,15.970 53.425,15.949 53.367,15.908 L48.500,12.422 L43.622,15.908 C43.507,15.990 43.350,15.990 43.234,15.908 C43.119,15.825 43.070,15.678 43.115,15.545 L44.982,9.900 L40.136,6.425 C40.021,6.342 39.972,6.195 40.016,6.062 C40.060,5.928 40.188,5.837 40.330,5.837 L46.319,5.837 L48.186,0.223 C48.231,0.090 48.358,-0.001 48.500,-0.000 C48.643,-0.000 48.770,0.091 48.814,0.224 L50.671,5.837 L56.670,5.837 C56.813,5.837 56.940,5.928 56.984,6.062 C57.028,6.195 56.980,6.343 56.864,6.425 L52.008,9.900 ZM32.008,123.900 L33.875,129.545 C33.919,129.679 33.872,129.825 33.755,129.908 C33.697,129.949 33.629,129.970 33.561,129.970 C33.493,129.970 33.425,129.949 33.367,129.908 L28.500,126.422 L23.622,129.908 C23.507,129.990 23.350,129.990 23.234,129.908 C23.119,129.825 23.070,129.678 23.115,129.545 L24.982,123.900 L20.136,120.425 C20.021,120.342 19.972,120.195 20.016,120.062 C20.060,119.928 20.188,119.838 20.330,119.838 L26.319,119.838 L28.186,114.223 C28.231,114.090 28.358,113.999 28.500,114.000 C28.643,114.000 28.770,114.091 28.814,114.224 L30.671,119.838 L36.670,119.838 C36.813,119.838 36.940,119.929 36.984,120.062 C37.028,120.195 36.980,120.343 36.864,120.425 L32.008,123.900 ZM32.008,66.900 L33.875,72.545 C33.919,72.679 33.872,72.825 33.755,72.908 C33.697,72.949 33.629,72.970 33.561,72.970 C33.493,72.970 33.425,72.949 33.367,72.908 L28.500,69.423 L23.622,72.908 C23.507,72.990 23.350,72.990 23.234,72.908 C23.119,72.825 23.070,72.678 23.115,72.545 L24.982,66.899 L20.136,63.425 C20.021,63.342 19.972,63.195 20.016,63.062 C20.060,62.928 20.188,62.837 20.330,62.837 L26.319,62.837 L28.186,57.223 C28.231,57.090 28.358,56.999 28.500,56.999 C28.643,57.000 28.770,57.090 28.814,57.224 L30.671,62.837 L36.670,62.837 C36.813,62.837 36.940,62.929 36.984,63.062 C37.028,63.195 36.980,63.343 36.864,63.425 L32.008,66.900 ZM32.008,9.900 L33.875,15.545 C33.919,15.679 33.872,15.825 33.755,15.908 C33.697,15.949 33.629,15.970 33.561,15.970 C33.493,15.970 33.425,15.949 33.367,15.908 L28.500,12.422 L23.622,15.908 C23.507,15.990 23.350,15.990 23.234,15.908 C23.119,15.825 23.070,15.678 23.115,15.545 L24.982,9.900 L20.136,6.425 C20.021,6.342 19.972,6.195 20.016,6.062 C20.060,5.928 20.188,5.837 20.330,5.837 L26.319,5.837 L28.186,0.223 C28.231,0.090 28.358,-0.001 28.500,-0.000 C28.643,-0.000 28.770,0.091 28.814,0.224 L30.671,5.837 L36.670,5.837 C36.813,5.837 36.940,5.928 36.984,6.062 C37.028,6.195 36.980,6.343 36.864,6.425 L32.008,9.900 ZM12.008,123.900 L13.875,129.545 C13.919,129.679 13.872,129.825 13.755,129.908 C13.697,129.949 13.629,129.970 13.561,129.970 C13.493,129.970 13.425,129.949 13.367,129.908 L8.500,126.422 L3.622,129.908 C3.507,129.990 3.350,129.990 3.234,129.908 C3.119,129.825 3.071,129.678 3.115,129.545 L4.982,123.900 L0.136,120.425 C0.021,120.342 -0.028,120.195 0.016,120.062 C0.060,119.928 0.187,119.838 0.330,119.838 L6.319,119.838 L8.186,114.223 C8.231,114.090 8.358,113.999 8.500,114.000 C8.643,114.000 8.770,114.091 8.814,114.224 L10.671,119.838 L16.670,119.838 C16.813,119.838 16.940,119.929 16.984,120.062 C17.028,120.195 16.980,120.343 16.864,120.425 L12.008,123.900 ZM12.008,66.900 L13.875,72.545 C13.919,72.679 13.872,72.825 13.755,72.908 C13.697,72.949 13.629,72.970 13.561,72.970 C13.493,72.970 13.425,72.949 13.367,72.908 L8.500,69.423 L3.622,72.908 C3.507,72.990 3.350,72.990 3.234,72.908 C3.119,72.825 3.071,72.678 3.115,72.545 L4.982,66.899 L0.136,63.425 C0.021,63.342 -0.028,63.195 0.016,63.062 C0.060,62.928 0.187,62.837 0.330,62.837 L6.319,62.837 L8.186,57.223 C8.231,57.090 8.358,56.999 8.500,56.999 C8.643,57.000 8.770,57.090 8.814,57.224 L10.671,62.837 L16.670,62.837 C16.813,62.837 16.940,62.929 16.984,63.062 C17.028,63.195 16.980,63.343 16.864,63.425 L12.008,66.900 ZM12.008,9.900 L13.875,15.545 C13.919,15.679 13.872,15.825 13.755,15.908 C13.697,15.949 13.629,15.970 13.561,15.970 C13.493,15.970 13.425,15.949 13.367,15.908 L8.500,12.422 L3.622,15.908 C3.507,15.990 3.350,15.990 3.234,15.908 C3.119,15.825 3.071,15.678 3.115,15.545 L4.982,9.900 L0.136,6.425 C0.021,6.342 -0.028,6.195 0.016,6.062 C0.060,5.928 0.187,5.837 0.330,5.837 L6.319,5.837 L8.186,0.223 C8.231,0.090 8.358,-0.001 8.500,-0.000 C8.643,-0.000 8.770,0.091 8.814,0.224 L10.671,5.837 L16.670,5.837 C16.813,5.837 16.940,5.928 16.984,6.062 C17.028,6.195 16.980,6.343 16.864,6.425 L12.008,9.900 ZM80.330,119.838 L86.319,119.838 L88.187,114.223 C88.231,114.090 88.358,113.999 88.500,114.000 C88.643,114.000 88.770,114.091 88.814,114.224 L90.671,119.838 L96.670,119.838 C96.813,119.838 96.940,119.929 96.984,120.062 C97.028,120.195 96.980,120.343 96.864,120.425 L92.008,123.900 L93.875,129.545 C93.919,129.679 93.872,129.825 93.755,129.908 C93.697,129.949 93.629,129.970 93.561,129.970 C93.493,129.970 93.425,129.949 93.367,129.908 L88.500,126.422 L83.622,129.908 C83.507,129.990 83.350,129.990 83.234,129.908 C83.119,129.825 83.071,129.678 83.115,129.545 L84.982,123.900 L80.136,120.425 C80.021,120.342 79.972,120.195 80.016,120.062 C80.060,119.928 80.187,119.838 80.330,119.838 Z" class="cls-1"/>
  <path d="M16.984,25.062 C16.940,24.929 16.813,24.837 16.670,24.837 L10.671,24.837 L8.814,19.224 C8.770,19.091 8.643,19.000 8.500,19.000 C8.358,18.999 8.231,19.090 8.187,19.223 L6.319,24.837 L0.330,24.837 C0.187,24.837 0.060,24.928 0.016,25.062 C-0.028,25.195 0.021,25.342 0.136,25.425 L4.982,28.899 L3.115,34.544 C3.071,34.678 3.119,34.825 3.234,34.908 C3.350,34.990 3.507,34.990 3.622,34.908 L8.500,31.423 L13.367,34.908 C13.425,34.949 13.493,34.970 13.561,34.970 C13.629,34.970 13.697,34.949 13.755,34.908 C13.872,34.825 13.919,34.679 13.875,34.544 L12.008,28.900 L16.864,25.425 C16.980,25.343 17.028,25.195 16.984,25.062 Z" class="cls-2"/>
  <path d="M56.864,44.425 L52.008,47.900 L53.875,53.544 C53.919,53.679 53.872,53.825 53.755,53.908 C53.697,53.949 53.629,53.970 53.561,53.970 C53.493,53.970 53.425,53.949 53.367,53.908 L48.500,50.423 L43.622,53.908 C43.507,53.990 43.350,53.990 43.234,53.908 C43.119,53.825 43.071,53.678 43.115,53.544 L44.982,47.899 L40.136,44.425 C40.021,44.342 39.972,44.195 40.016,44.062 C40.060,43.928 40.187,43.837 40.330,43.837 L46.319,43.837 L48.186,38.223 C48.231,38.090 48.358,37.999 48.500,38.000 C48.643,38.000 48.770,38.091 48.814,38.224 L50.671,43.837 L56.670,43.837 C56.813,43.837 56.940,43.929 56.984,44.062 C57.028,44.195 56.980,44.343 56.864,44.425 ZM32.008,47.900 L33.875,53.544 C33.919,53.679 33.872,53.825 33.755,53.908 C33.697,53.949 33.629,53.970 33.561,53.970 C33.493,53.970 33.425,53.949 33.367,53.908 L28.500,50.423 L23.622,53.908 C23.507,53.990 23.350,53.990 23.234,53.908 C23.119,53.825 23.071,53.678 23.115,53.544 L24.982,47.899 L20.136,44.425 C20.021,44.342 19.972,44.195 20.016,44.062 C20.060,43.928 20.187,43.837 20.330,43.837 L26.319,43.837 L28.187,38.223 C28.231,38.090 28.358,37.999 28.500,38.000 C28.643,38.000 28.770,38.091 28.814,38.224 L30.671,43.837 L36.670,43.837 C36.813,43.837 36.940,43.929 36.984,44.062 C37.028,44.195 36.980,44.343 36.864,44.425 L32.008,47.900 ZM12.008,47.900 L13.875,53.544 C13.919,53.679 13.872,53.825 13.755,53.908 C13.697,53.949 13.629,53.970 13.561,53.970 C13.493,53.970 13.425,53.949 13.367,53.908 L8.500,50.423 L3.622,53.908 C3.507,53.990 3.350,53.990 3.234,53.908 C3.119,53.825 3.071,53.678 3.115,53.544 L4.982,47.899 L0.136,44.425 C0.021,44.342 -0.028,44.195 0.016,44.062 C0.060,43.928 0.187,43.837 0.330,43.837 L6.319,43.837 L8.187,38.223 C8.231,38.090 8.358,37.999 8.500,38.000 C8.643,38.000 8.770,38.091 8.814,38.224 L10.671,43.837 L16.670,43.837 C16.813,43.837 16.940,43.929 16.984,44.062 C17.028,44.195 16.980,44.343 16.864,44.425 L12.008,47.900 Z" class="cls-3"/>
</svg>
