<svg xmlns="http://www.w3.org/2000/svg" xmlns:xlink="http://www.w3.org/1999/xlink" preserveAspectRatio="xMidYMid" width="50" height="4" viewBox="0 0 50 4">
  <defs>
    <style>
      .cls-1 {
        fill: #bcb5b2;
        fill-rule: evenodd;
      }
    </style>
  </defs>
  <path d="M45.000,4.000 C42.529,4.000 42.004,1.000 40.000,1.000 C37.983,1.000 37.469,4.000 35.000,4.000 C32.529,4.000 32.004,1.000 30.000,1.000 C27.983,1.000 27.469,4.000 25.000,4.000 C22.529,4.000 22.004,1.000 20.000,1.000 C17.983,1.000 17.469,4.000 15.000,4.000 C12.529,4.000 12.004,1.000 10.000,1.000 C7.983,1.000 7.469,4.000 5.000,4.000 C2.529,4.000 2.004,1.000 0.000,1.000 C0.000,0.629 0.000,0.287 0.000,-0.000 C2.427,-0.000 2.944,3.000 5.000,3.000 C6.984,3.000 7.456,-0.000 10.000,-0.000 C12.427,-0.000 12.944,3.000 15.000,3.000 C16.984,3.000 17.456,-0.000 20.000,-0.000 C22.427,-0.000 22.944,3.000 25.000,3.000 C26.984,3.000 27.456,-0.000 30.000,-0.000 C32.427,-0.000 32.944,3.000 35.000,3.000 C36.984,3.000 37.456,-0.000 40.000,-0.000 C42.427,-0.000 42.944,3.000 45.000,3.000 C46.984,3.000 47.456,-0.000 50.000,-0.000 C50.000,0.286 50.000,1.000 50.000,1.000 C47.983,1.000 47.469,4.000 45.000,4.000 Z" class="cls-1"/>
</svg>
