<?xml version="1.0" encoding="UTF-8" standalone="no"?><svg width="178" height="172" viewBox="0 0 178 172" xmlns="http://www.w3.org/2000/svg" xmlns:xlink="http://www.w3.org/1999/xlink"><svg width="12" height="2" viewBox="0 0 12 2" id="accord_minus" x="158" y="153"><title>add copy 5</title><path d="M0 2V0h12v2H0z" fill="#767676" fill-rule="evenodd"/></svg><svg width="12" height="12" viewBox="0 0 12 12" id="accord_plus" x="117" y="91"><title>add copy 4</title><path d="M12 6.857H6.857V12H5.143V6.857H0V5.143h5.143V0h1.714v5.143H12v1.714z" fill="#767676" fill-rule="evenodd"/></svg><svg width="15" height="14" viewBox="0 0 15 14" id="action_icon" x="44" y="115"><title>%</title><path d="M.88 2.832c0-.798.293-1.466.88-2.005C2.348.287 3.15.02 4.17.02c1.025 0 1.832.266 2.42.802.587.536.88 1.206.88 2.01v.72c0 .797-.293 1.462-.88 1.995-.588.532-1.388.8-2.4.8-1.025 0-1.833-.268-2.424-.8C1.174 5.014.88 4.35.88 3.55v-.718zm1.804.72c0 .398.13.736.39 1.013.26.278.633.416 1.117.416.47 0 .832-.136 1.085-.41.253-.274.38-.614.38-1.02v-.718c0-.405-.13-.748-.39-1.028s-.625-.42-1.095-.42c-.478 0-.845.14-1.1.42-.257.28-.386.623-.386 1.028v.72zm5.674 6.934c0-.79.295-1.457.886-1.995.59-.538 1.393-.808 2.404-.808 1.026 0 1.832.268 2.42.804.588.536.88 1.202.88 2v.73c0 .803-.292 1.47-.88 2.003-.588.532-1.387.8-2.398.8-1.026 0-1.835-.27-2.426-.805-.59-.536-.886-1.203-.886-2v-.73zm1.805.73c0 .398.134.737.4 1.018.268.28.636.42 1.107.42.498 0 .868-.135 1.11-.406.243-.272.364-.616.364-1.033v-.73c0-.398-.13-.737-.39-1.018-.26-.28-.63-.42-1.106-.42-.477 0-.844.14-1.1.42-.257.28-.385.62-.385 1.02v.728zm-5.438 1.588L3.39 12.13l7.596-10.635 1.335.673-7.595 10.636z" fill="#FFCD00" fill-rule="evenodd"/></svg><svg width="28" height="28" viewBox="0 0 28 28" id="actions_icon" x="106"><title>info</title><path d="M0 14c0 7.7 6.3 14 14 14s14-6.3 14-14S21.7 0 14 0 0 6.3 0 14zm12.25-.857c-.496.497-1.096.745-1.802.745-.702 0-1.302-.248-1.798-.745-.497-.497-.745-1.096-.745-1.798 0-.7.248-1.3.745-1.797.496-.497 1.096-.746 1.798-.746.7 0 1.3.25 1.797.746.497.496.746 1.096.746 1.797 0 .702-.247 1.3-.74 1.798zm4.842 5.722c-.702 0-1.3-.248-1.798-.745-.496-.497-.745-1.096-.745-1.798 0-.706.248-1.307.744-1.8.497-.496 1.096-.743 1.798-.743s1.3.247 1.798.744c.497.497.745 1.096.745 1.798s-.248 1.3-.745 1.798c-.497.497-1.096.745-1.798.745zm-.81-10.698h1.75l-5.834 10.5h-1.75l5.833-10.5zm-5.065 3.947c.212-.21.318-.468.318-.77 0-.3-.106-.556-.318-.768-.212-.212-.47-.318-.77-.318-.3 0-.557.106-.768.318-.213.212-.32.47-.32.77 0 .3.107.557.32.768.21.212.467.318.768.318.3 0 .557-.106.77-.318zm6.644 3.44c-.21-.213-.467-.32-.768-.32-.3 0-.557.107-.77.32-.21.21-.317.467-.317.768 0 .3.106.557.318.77.212.21.468.317.77.317.3 0 .556-.107.768-.32.213-.21.32-.467.32-.768 0-.3-.107-.557-.32-.77z" fill="#F6A623" fill-rule="evenodd"/></svg><svg width="24" height="24" viewBox="0 0 24 24" id="apps_icon" x="134" y="24"><title>apps</title><path d="M0 6h6V0H0v6zm9 18h6v-6H9v6zm-9 0h6v-6H0v6zm0-9h6V9H0v6zm9 0h6V9H9v6zm9-15v6h6V0h-6zM9 6h6V0H9v6zm9 9h6V9h-6v6zm0 9h6v-6h-6v6z" fill="#F6A623" fill-rule="evenodd"/></svg><svg width="8" height="12" viewBox="0 0 8 12" id="arrow" x="140" y="115"><title>chevron-right copy 3</title><path d="M2 0L.6 1.4 5.2 6 .6 10.6 2 12l6-6-6-6z" fill="#3C3C39" fill-rule="evenodd"/></svg><svg width="9" height="14" viewBox="0 0 9 14" id="arrow_back" x="115" y="115"><title>chevron-left</title><path d="M8.633 1.633L7 0 0 7l7 7 1.633-1.633L3.267 7l5.366-5.367z" fill="#FFCD00" fill-rule="evenodd"/></svg><svg width="8" height="12" viewBox="0 0 8 12" id="arrow_black" x="132" y="115"><title>chevron-right copy 7</title><path d="M2 0L.6 1.4 5.2 6 .6 10.6 2 12l6-6-6-6z" fill="#000" fill-rule="evenodd"/></svg><svg width="12" height="8" viewBox="0 0 12 8" id="arrow_bottom" x="24" y="107"><title>Shape Copy 5</title><path d="M1.41 0L6 4.77 10.59 0 12 1.47 6 7.72 0 1.47 1.41 0z" fill-opacity=".7" fill="#000" fill-rule="evenodd"/></svg><svg width="20" height="20" viewBox="0 0 20 20" id="cancel" x="158" y="20"><title>cancel</title><path d="M10 0C4.5 0 0 4.5 0 10s4.5 10 10 10 10-4.5 10-10S15.5 0 10 0zm5 13.6L13.6 15 10 11.4 6.4 15 5 13.6 8.6 10 5 6.4 6.4 5 10 8.6 13.6 5 15 6.4 11.4 10l3.6 3.6z" fill="#000" fill-rule="evenodd"/></svg><svg width="20" height="20" viewBox="0 0 20 20" id="cancel_close" x="158" y="40"><title>cancel</title><path d="M10 0C4.5 0 0 4.5 0 10s4.5 10 10 10 10-4.5 10-10S15.5 0 10 0zm5 13.6L13.6 15 10 11.4 6.4 15 5 13.6 8.6 10 5 6.4 6.4 5 10 8.6 13.6 5 15 6.4 11.4 10l3.6 3.6z" fill="#000" fill-rule="evenodd"/></svg><svg width="15" height="15" viewBox="0 0 15 15" id="cancel_small" y="157"><title>cancel</title><path d="M7.5 0C3.375 0 0 3.375 0 7.5S3.375 15 7.5 15 15 11.625 15 7.5 11.625 0 7.5 0zm3.75 10.2l-1.05 1.05-2.7-2.7-2.7 2.7-1.05-1.05 2.7-2.7-2.7-2.7L4.8 3.75l2.7 2.7 2.7-2.7 1.05 1.05-2.7 2.7 2.7 2.7z" fill="#000" fill-rule="evenodd"/></svg><svg width="24" height="16" viewBox="0 0 24 16" id="car" x="24" y="91"><title>Car</title><g fill="#3C3C39" fill-rule="evenodd"><path d="M20.98 14c-.512 0-.927-.43-.927-.957 0-.53.415-.958.927-.958h1.167V1.915h-12.2l.015 1.425c.004.34-.167.657-.45.832L1.876 8.9l-.017 3.185h1.358c.512 0 .927.43.927.958S3.73 14 3.218 14H.928c-.248 0-.484-.102-.658-.282-.174-.18-.27-.426-.27-.68L.026 8.35c0-.335.172-.644.45-.816l7.627-4.722-.02-1.844C8.08.712 8.177.466 8.35.284 8.526.102 8.763 0 9.01 0h14.063c.512 0 .927.43.927.957v12.086c0 .528-.415.957-.927.957H20.98z"/><path d="M9 12h7v2H9zM9 10c-.552 0-1-.404-1-.903V3.903C8 3.403 8.448 3 9 3s1 .404 1 .903v5.194c0 .5-.448.903-1 .903M6 12c-.55 0-1 .45-1 1s.45 1 1 1 1-.45 1-1-.45-1-1-1m0 4c-1.654 0-3-1.346-3-3s1.346-3 3-3 3 1.346 3 3-1.346 3-3 3M19 12c-.55 0-1 .45-1 1s.45 1 1 1 1-.45 1-1-.45-1-1-1m0 4c-1.654 0-3-1.346-3-3s1.346-3 3-3 3 1.346 3 3-1.346 3-3 3"/></g></svg><svg width="14" height="2" viewBox="0 0 14 2" id="card_minus" x="158" y="151"><title>Shape Copy</title><path d="M8 2H0V0h14v2H8z" fill-opacity=".7" fill="#000" opacity=".254" fill-rule="evenodd"/></svg><svg width="14" height="14" viewBox="0 0 14 14" id="card_plus" x="101" y="115"><title>Shape</title><path d="M8 8v6H6V8H0V6h6V0h2v6h6v2H8z" fill-opacity=".7" fill="#000" opacity=".254" fill-rule="evenodd"/></svg><svg width="24" height="24" viewBox="0 0 24 24" id="card_triangle" x="134"><title>Rectangle 100 + Shape</title><g fill="none" fill-rule="evenodd"><path d="M0 2.99C0 1.34 1.342 0 2.99 0H24L0 24V2.99z" fill="#FFCD00"/><path d="M6.17 9.89L3.06 6.78 2 7.83 6.17 12l8.947-8.95L14.067 2 6.168 9.89z" fill="#FEFEFE"/></g></svg><svg width="24" height="24" viewBox="0 0 24 24" id="card_triangle_dis" x="134" y="72"><title>Rectangle 100 Copy + Shape Copy</title><g fill="none" fill-rule="evenodd"><path d="M0 2.99C0 1.34 1.342 0 2.99 0H24L0 24V2.99z" fill="#DADADA"/><path d="M6.17 9.89L3.06 6.78 2 7.83 6.17 12l8.947-8.95L14.067 2 6.168 9.89z" fill="#FEFEFE"/></g></svg><svg width="22" height="20" viewBox="0 0 22 20" id="cart_small" x="84" y="61"><title>cart</title><g transform="matrix(-1 0 0 1 22 0)" fill="none" fill-rule="evenodd"><path d="M21.34.02c-.033.002-.068.005-.1.01h-.003l-3.362.545c-.214.035-.393.174-.472.366v.003l-1.56 3.796L.618 5.1c-.175.004-.34.08-.453.204-.114.125-.17.29-.147.457l.84 6.6c.035.276.276.495.57.517l10.853.82 2.152 1.605.008.006.007.003.008.006c.392.28.49.657.434.868-.032.12-.08.208-.195.276-.115.068-.313.117-.652.1h-.004c-.012-.002-.024-.002-.035 0H14l-12.946.034c-.342-.002-.628.27-.627.592.002.323.29.593.63.588l.947-.002c-.35.213-.587.585-.587 1.008 0 .657.567 1.195 1.26 1.195.692 0 1.26-.538 1.26-1.195 0-.425-.237-.8-.592-1.013l10.66-.03c-.384.207-.646.597-.646 1.043 0 .657.567 1.195 1.26 1.195.692 0 1.26-.538 1.26-1.195 0-.57-.428-1.052-.995-1.17.536-.18.947-.55 1.202-1.116l.01-.02c.194-.742-.152-1.548-.866-2.072l-.005-.005-.003-.005-.02-.02-1.525-1.135L18.43 1.68l3.017-.486h.002c.315-.05.547-.33.52-.633-.027-.304-.307-.543-.63-.54zm-5.956 5.63l-.876 2.133h-1.143V5.698l2.02-.048zm-2.455.06v2.073h-2.11V5.76l2.11-.05zm-2.547.058v2.015h-2.11V5.818l2.11-.05zm-2.546.06v1.955h-2.11V5.88l2.11-.05zM5.29 5.89v1.893H3.18V5.94l2.11-.05zm-2.545.06v1.833H1.198l-.23-1.79 1.777-.044zM1.25 8.194h1.495v1.873H1.49l-.24-1.873zm1.93 0h2.11v1.873H3.18V8.195zm2.547 0h2.11v1.873h-2.11V8.195zm2.546 0h2.11v1.873h-2.11V8.195zm2.546 0h2.11v1.873h-2.11V8.195zm2.545 0h.975l-.77 1.873h-.205V8.195zM1.542 10.48h1.203v1.345l-1.043-.08-.16-1.265zm1.64 0h2.11v1.536l-2.11-.16V10.48zm2.545 0h2.11v1.728l-2.11-.157v-1.57zm2.546 0h2.11v1.922l-2.11-.16V10.48zm2.546 0h2.11v1.14l-.402.974c-.052-.024-.108-.04-.166-.043l-1.543-.116V10.48zm2.545 0h.078l-.078.1v-.1zM2.677 18.077c.41 0 .74.312.74.703 0 .39-.33.7-.74.7-.412 0-.74-.31-.74-.7 0-.39.328-.703.74-.703zm11.942 0c.41 0 .74.312.74.703 0 .39-.33.7-.74.7-.413 0-.74-.31-.74-.7 0-.39.327-.703.74-.703zm-11.943.333c-.224 0-.402.17-.402.382s.178.38.402.38c.223 0 .402-.168.402-.38s-.18-.382-.403-.382zm11.942 0c-.225 0-.403.17-.403.382s.178.38.402.38c.223 0 .4-.168.4-.38s-.177-.382-.4-.382z" fill="#3C3C39"/><path fill="#FFF" d="M5.727 9.22V9.218"/><path fill="#000" d="M5.625 9.125c-.027 0-.053.01-.073.03-.02.018-.03.044-.03.07 0 .026.01.052.03.07.02.02.046.03.073.03.027 0 .053-.01.072-.03.018-.016.03-.04.03-.064v-.01c0-.025-.012-.048-.03-.065-.02-.02-.045-.03-.072-.03"/></g></svg><svg width="18" height="10" viewBox="0 0 18 10" id="catalog_icon" x="106" y="80"><title>Shape</title><defs><path d="M2 6.5v-2H0v2h2zm0 4v-2H0v2h2zm0-8v-2H0v2h2zm16 4v-2H4v2h14zm0 4v-2H4v2h14zm-14-8h14v-2H4v2z" id="asa"/></defs><g transform="translate(0 -.5)" fill="none" fill-rule="evenodd"><use fill="#FFCD00" xlink:href="#asa"/><use xlink:href="#asa"/></g></svg><svg width="24" height="24" viewBox="0 0 24 24" id="check_big" y="91"><title>Bounds</title><path d="M0 0h24v24H0V0z" fill-opacity=".1" fill="#FFF" fill-rule="evenodd"/></svg><svg width="30" height="24" viewBox="0 0 30 24" id="check_dis" x="30" y="61"><title>Rectangle 34</title><path d="M10 24L0 14l4-4 6 6L26 0l4 4-20 20z" stroke="#D8D8D8" fill="#FFF" fill-rule="evenodd"/></svg><svg width="30" height="24" viewBox="0 0 30 24" id="checkbox_ok" x="41" y="35"><title>Rectangle 34</title><path d="M10 24L0 14l4-4 6 6L26 0l4 4-20 20z" fill="#FFCD00" fill-rule="evenodd"/></svg><svg width="24" height="24" viewBox="0 0 24 24" id="clock_event" x="60" y="61"><title>Bounds</title><path d="M0 0h24v24H0V0z" fill-opacity=".1" fill="#FFF" fill-rule="evenodd"/></svg><svg width="14" height="14" viewBox="0 0 14 14" id="close_black" x="87" y="115"><title>Shape</title><path d="M14 1.41L12.59 0 7 5.59 1.41 0 0 1.41 5.59 7 0 12.59 1.41 14 7 8.41 12.59 14 14 12.59 8.41 7 14 1.41z" fill-opacity=".7" fill="#000" fill-rule="evenodd"/></svg><svg width="14" height="14" viewBox="0 0 14 14" id="close_light" x="73" y="115"><title>close</title><path d="M14 1.4L12.6 0 7 5.6 1.4 0 0 1.4 5.6 7 0 12.6 1.4 14 7 8.4l5.6 5.6 1.4-1.4L8.4 7 14 1.4z" fill="#000" fill-rule="evenodd"/></svg><svg width="18" height="18" viewBox="0 0 18 18" id="compare_edit" x="40" y="139"><title>ic_edit</title><g transform="translate(-3 -3)" fill="none" fill-rule="evenodd"><path d="M0 0h24v24H0V0z" fill="none"/><path d="M3 17.25V21h3.75L17.81 9.94l-3.75-3.75L3 17.25zM20.71 7.04c.39-.39.39-1.02 0-1.41l-2.34-2.34c-.39-.39-1.02-.39-1.41 0l-1.83 1.83 3.75 3.75 1.83-1.83z" fill="#3C3C39"/></g></svg><svg width="20" height="16" viewBox="0 0 20 16" id="credit_card_icon" x="24" y="115"><title>credit-card</title><path d="M18 0H2C.9 0 0 .9 0 2v12c0 1.1.9 2 2 2h16c1.1 0 2-.9 2-2V2c0-1.1-.9-2-2-2zm0 14H2V8h16v6zm0-10H2V2h16v2z" fill="#999B9B" fill-rule="evenodd"/></svg><svg width="10" height="11" viewBox="0 0 10 11" id="delete" x="148" y="115"><title>Shape</title><path d="M10 1.145L8.993.138 5 4.13 1.007.14 0 1.145l3.993 3.993L0 9.13l1.007 1.008L5 6.145l3.993 3.993L10 9.13 6.007 5.14 10 1.145z" fill-opacity=".7" fill="#000" fill-rule="evenodd"/></svg><svg width="18" height="16" viewBox="0 0 18 16" id="directions_icon" x="158" y="129"><title>directions-car</title><path d="M15.9 1c-.2-.6-.8-1-1.4-1h-11c-.7 0-1.2.4-1.4 1L0 7v8c0 .6.4 1 1 1h1c.6 0 1-.4 1-1v-1h12v1c0 .6.4 1 1 1h1c.6 0 1-.4 1-1V7l-2.1-6zM3.5 11C2.7 11 2 10.3 2 9.5S2.7 8 3.5 8 5 8.7 5 9.5 4.3 11 3.5 11zm11 0c-.8 0-1.5-.7-1.5-1.5S13.7 8 14.5 8s1.5.7 1.5 1.5-.7 1.5-1.5 1.5zM2 6l1.5-4.5h11L16 6H2z" fill="#999B9B" fill-rule="evenodd"/></svg><svg width="24" height="24" viewBox="0 0 24 24" id="done" x="134" y="48"><title>ic_done</title><g fill="none" fill-rule="evenodd"><path d="M0 0h24v24H0V0z" fill-opacity=".1" fill="#FFF"/><path d="M9 16.17L4.83 12l-1.42 1.41L9 19 21 7l-1.41-1.41L9 16.17z" fill="#FA7146"/></g></svg><svg width="10" height="5" viewBox="0 0 10 5" id="dropdown_icon" x="124" y="80"><title>arrow-drop-down</title><path d="M0 0l5 5 5-5H0z" fill="#3C3C39" fill-rule="evenodd"/></svg><svg width="17" height="15" viewBox="0 0 17 15" id="filter" x="70" y="91"><title>Filter ico</title><path d="M16.617 0H.383C.228 0 .087.1.03.25-.03.404.003.576.113.69L7.156 7v7.5c0 .144.073.277.19.35.06.037.127.054.194.054.065 0 .13-.017.19-.052l2.077-2.15c.12-.07.193-.204.193-.35V7L16.887.69c.11-.115.143-.288.085-.44-.06-.15-.2-.25-.355-.25z" fill="#247096" fill-rule="evenodd"/></svg><svg width="17" height="17" viewBox="0 0 17 17" id="geoip" x="108" y="139"><title>GeoIp</title><g fill="#000" fill-rule="evenodd"><path d="M8.5 1.962c-3.596 0-6.538 2.942-6.538 6.538s2.942 6.538 6.538 6.538 6.538-2.942 6.538-6.538S12.096 1.962 8.5 1.962zm0 11.77c-2.877 0-5.23-2.355-5.23-5.232 0-2.877 2.353-5.23 5.23-5.23 2.877 0 5.23 2.353 5.23 5.23 0 2.877-2.353 5.23-5.23 5.23z"/><path d="M9.154 17v-5.23H7.846V17h1.308zm0-11.77V0H7.846v5.23h1.308zm2.615 3.924H17V7.846h-5.23v1.308zM0 9.154h5.23V7.846H0v1.308z"/></g></svg><svg width="15" height="13" viewBox="0 0 15 13" id="hamb_small" x="87" y="91"><title>apps</title><path d="M15 3V0H0v3h15zM0 8h15V5H0v3zm15 5v-3H0v3h15z" fill="#247096" fill-rule="evenodd"/></svg><svg width="20" height="20" viewBox="0 0 20 20" id="help_icon" x="158"><title>help</title><path d="M10 0C4.5 0 0 4.5 0 10s4.5 10 10 10 10-4.5 10-10S15.5 0 10 0zm1 17H9v-2h2v2zm2.1-7.7l-.9.9c-.8.7-1.2 1.3-1.2 2.8H9v-.5c0-1.1.4-2.1 1.2-2.8l1.2-1.3c.4-.3.6-.8.6-1.4 0-1.1-.9-2-2-2s-2 .9-2 2H6c0-2.2 1.8-4 4-4s4 1.8 4 4c0 .9-.4 1.7-.9 2.3z" fill="#999B9B" fill-rule="evenodd"/></svg><svg width="35" height="35" viewBox="0 0 35 35" id="ic_event" x="41"><title>Rectangle 112 + ic_event</title><defs><linearGradient x1="50%" y1="1.326%" x2="50%" y2="98.521%" id="bjd"><stop stop-color="#FFEB00" offset="0%"/><stop stop-color="#FFCD00" offset="100%"/></linearGradient><linearGradient x1="50%" y1="0%" x2="50%" y2="100%" id="bjb"><stop stop-color="#FFCF09" offset="0%"/><stop stop-color="#D7AE05" offset="99.416%"/></linearGradient><filter x="-50%" y="-50%" width="200%" height="200%" filterUnits="objectBoundingBox" id="bja"><feOffset dy="2" in="SourceAlpha" result="shadowOffsetInner1"/><feGaussianBlur in="shadowOffsetInner1" result="shadowBlurInner1"/><feComposite in="shadowBlurInner1" in2="SourceAlpha" operator="arithmetic" k2="-1" k3="1" result="shadowInnerInner1"/><feColorMatrix values="0 0 0 0 1 0 0 0 0 1 0 0 0 0 1 0 0 0 0.525 0" in="shadowInnerInner1" result="shadowMatrixInner1"/><feMerge><feMergeNode in="SourceGraphic"/><feMergeNode in="shadowMatrixInner1"/></feMerge></filter><rect id="bjc" width="35" height="35" rx="3"/></defs><g fill="none" fill-rule="evenodd"><g filter="url(#bja)"><use stroke="url(#bjb)" xlink:href="#bjc"/><use fill="url(#bjd)" xlink:href="#bjc"/></g><g transform="translate(6 6)"><path d="M0 0h24v24H0V0z" fill-opacity=".1" fill="#FFF"/><path d="M17 12h-5v5h5v-5zM16 1v2H8V1H6v2H5c-1.11 0-1.99.9-1.99 2L3 19c0 1.1.89 2 2 2h14c1.1 0 2-.9 2-2V5c0-1.1-.9-2-2-2h-1V1h-2zm3 18H5V8h14v11z" fill-opacity=".7" fill="#000"/></g></g></svg><svg width="35" height="35" viewBox="0 0 35 35" id="ic_time" y="26"><title>Rectangle 112 Copy + ic_schedule</title><defs><linearGradient x1="50%" y1="1.326%" x2="50%" y2="98.521%" id="bkd"><stop stop-color="#FFEB00" offset="0%"/><stop stop-color="#FFCD00" offset="100%"/></linearGradient><linearGradient x1="50%" y1="0%" x2="50%" y2="100%" id="bkb"><stop stop-color="#FFCF09" offset="0%"/><stop stop-color="#D7AE05" offset="99.416%"/></linearGradient><filter x="-50%" y="-50%" width="200%" height="200%" filterUnits="objectBoundingBox" id="bka"><feOffset dy="2" in="SourceAlpha" result="shadowOffsetInner1"/><feGaussianBlur in="shadowOffsetInner1" result="shadowBlurInner1"/><feComposite in="shadowBlurInner1" in2="SourceAlpha" operator="arithmetic" k2="-1" k3="1" result="shadowInnerInner1"/><feColorMatrix values="0 0 0 0 1 0 0 0 0 1 0 0 0 0 1 0 0 0 0.525 0" in="shadowInnerInner1" result="shadowMatrixInner1"/><feMerge><feMergeNode in="SourceGraphic"/><feMergeNode in="shadowMatrixInner1"/></feMerge></filter><rect id="bkc" width="35" height="35" rx="3"/></defs><g fill="none" fill-rule="evenodd"><g filter="url(#bka)"><use stroke="url(#bkb)" xlink:href="#bkc"/><use fill="url(#bkd)" xlink:href="#bkc"/></g><g transform="translate(6 6)"><path d="M0 0h24v24H0V0z" fill-opacity=".1" fill="#FFF"/><path d="M11.99 2C6.47 2 2 6.48 2 12s4.47 10 9.99 10C17.52 22 22 17.52 22 12S17.52 2 11.99 2zM12 20c-4.42 0-8-3.58-8-8s3.58-8 8-8 8 3.58 8 8-3.58 8-8 8z" id="bkShape" fill-opacity=".7" fill="#000"/><path d="M12.5 7H11v6l5.25 3.15.75-1.23-4.5-2.67V7z" fill-opacity=".7" fill="#000"/></g></g></svg><svg width="8" height="12" viewBox="0 0 8 12" id="left_arrow" x="124" y="115"><title>chevron-right copy 22</title><path d="M6 0l1.4 1.4L2.8 6l4.6 4.6L6 12 0 6l6-6z" fill="#3C3C39" fill-rule="evenodd"/></svg><svg width="19" height="16" viewBox="0 0 19 16" id="like" x="158" y="96"><title>Fill 1</title><path d="M15.69 7.562L9.144 14.11 2.595 7.562c-1.37-1.368-1.37-3.595 0-4.965C3.26 1.934 4.14 1.57 5.078 1.57c.938 0 1.82.364 2.482 1.027l1.028 1.03c.295.293.816.293 1.11 0l1.028-1.03c.663-.663 1.544-1.027 2.482-1.027.938 0 1.82.364 2.483 1.027 1.37 1.37 1.37 3.597 0 4.965zm1.11-6.075C15.84.527 14.565 0 13.208 0c-1.357 0-2.632.528-3.592 1.487l-.473.473-.473-.473C7.71.527 6.435 0 5.078 0 3.72 0 2.445.528 1.486 1.487c-1.98 1.982-1.98 5.205 0 7.185l7.098 7.098c.116.116.26.188.41.215.052.01.103.015.154.015.2 0 .402-.077.555-.23L16.8 8.672c1.98-1.98 1.98-5.203 0-7.185z" fill="#767676" fill-rule="evenodd"/></svg><svg width="19" height="16" viewBox="0 0 19 16" id="like_sel" x="158" y="80"><title>Fill 1 Copy</title><path d="M15.69 7.562L9.144 14.11 2.595 7.562c-1.37-1.368-1.37-3.595 0-4.965C3.26 1.934 4.14 1.57 5.078 1.57c.938 0 1.82.364 2.482 1.027l1.028 1.03c.295.293.816.293 1.11 0l1.028-1.03c.663-.663 1.544-1.027 2.482-1.027.938 0 1.82.364 2.483 1.027 1.37 1.37 1.37 3.597 0 4.965zm1.11-6.075C15.84.527 14.565 0 13.208 0c-1.357 0-2.632.528-3.592 1.487l-.473.473-.473-.473C7.71.527 6.435 0 5.078 0 3.72 0 2.445.528 1.486 1.487c-1.98 1.982-1.98 5.205 0 7.185l7.098 7.098c.116.116.26.188.41.215.052.01.103.015.154.015.2 0 .402-.077.555-.23L16.8 8.672c1.98-1.98 1.98-5.203 0-7.185z" fill="#3C3C39" fill-rule="evenodd"/></svg><svg width="18" height="17" viewBox="0 0 18 17" id="magazine_icon" x="158" y="112"><title>receipt</title><path d="M15 11H3V9h12v2zm0-4H3V5h12v2zM1.5 15L3 17l1.5-2L6 17l1.5-2L9 17l1.5-2 1.5 2 1.5-2 1.5 2 1.5-2 1.5 2V0l-1.5 2L15 0l-1.5 2L12 0l-1.5 2L9 0 7.5 2 6 0 4.5 2 3 0 1.5 2 0 0v17l1.5-2z" fill="#FFCD00" fill-rule="evenodd"/></svg><svg width="22" height="15" viewBox="0 0 22 15" id="menu" x="48" y="91"><title>menu</title><path d="M22 15v-3H0v3h22zm0-6V6H0v3h22zM0 3h22V0H0v3z" fill="#3C3C39" fill-rule="evenodd"/></svg><svg width="30" height="30" viewBox="0 0 30 30" id="move" y="61"><title>Btn Move</title><defs><linearGradient x1="50%" y1="0%" x2="50%" y2="100%" id="bqb"><stop stop-color="#FAF9FA" offset="0%"/><stop stop-color="#EEE" offset="100%"/></linearGradient><linearGradient x1="50%" y1="0%" x2="50%" y2="100%" id="bqa"><stop stop-color="#D8D8D8" offset="0%"/><stop stop-color="#C1C1C1" offset="100%"/></linearGradient></defs><g fill="none" fill-rule="evenodd"><rect stroke="url(#bqa)" fill="url(#bqb)" width="30" height="30" rx="3"/><g transform="translate(3 3)"><path d="M0 0h24v24H0V0z" fill="none"/><path d="M9 3L5 6.99h3V14h2V6.99h3L9 3zm7 14.01V10h-2v7.01h-3L15 21l4-3.99h-3z" fill="#3C3C39"/></g></g></svg><svg width="18" height="6" viewBox="0 0 18 6" id="new_icon" x="158" y="145"><title>NEW</title><path d="M4.99 5.99H3.657l-1.57-3.753-.025.005-.538 3.748H.187L1.05.025h1.336l1.567 3.75.024-.005L4.52.025h1.333L4.99 5.99zm4.653-2.552h-2.03L7.4 4.925h2.433L9.68 5.99H5.907L6.77.025h3.775L10.39 1.09H7.955l-.186 1.283h2.03l-.155 1.065zm5.722.45l.024.005L16.646.025H18L15.816 5.99h-1.258l-.436-3.683-.023-.004-1.497 3.687h-1.258L10.882.025h1.357l.133 3.872.024.004 1.54-3.875h1.008l.42 3.863z" fill="#FFCD00" fill-rule="evenodd"/></svg><svg width="26" height="26" viewBox="0 0 26 26" id="panel_minus" x="106" y="28"><title>add 2 copy</title><defs><linearGradient x1="50%" y1="1.326%" x2="50%" y2="98.521%" id="bsb"><stop stop-color="#FFEB00" offset="0%"/><stop stop-color="#FFCD00" offset="100%"/></linearGradient><rect id="bsa" width="26" height="26" rx="3"/></defs><g fill="none" fill-rule="evenodd"><use fill="#FFCD00" xlink:href="#bsa"/><use stroke="#F6A623" fill-opacity=".25" fill="url(#bsb)" xlink:href="#bsa"/><path d="M6 14v-2h14v2H6z" fill="#3C3C39"/></g></svg><svg width="26" height="26" viewBox="0 0 26 26" id="panel_plus" x="106" y="54"><title>add 3 copy 4</title><defs><linearGradient x1="50%" y1="1.326%" x2="50%" y2="98.521%" id="btb"><stop stop-color="#FFEB00" offset="0%"/><stop stop-color="#FFCD00" offset="100%"/></linearGradient><rect id="bta" width="26" height="26" rx="3"/></defs><g fill="none" fill-rule="evenodd"><use fill="#FFCD00" xlink:href="#bta"/><use stroke="#F6A623" fill-opacity=".25" fill="url(#btb)" xlink:href="#bta"/><path d="M20 14h-6v6h-2v-6H6v-2h6V6h2v6h6v2z" fill="#3C3C39"/></g></svg><svg width="24" height="24" viewBox="0 0 24 24" id="phone_button" y="115"><title>ic_dialer_sip</title><g fill="none" fill-rule="evenodd"><path d="M0 0h24v24H0V0z" fill-opacity=".1" fill="#FFF"/><path d="M20 15.5c-1.25 0-2.45-.2-3.57-.57-.35-.11-.74-.03-1.01.24l-2.2 2.2c-2.83-1.44-5.15-3.75-6.59-6.59l2.2-2.21c.27-.26.35-.65.24-1C8.7 6.45 8.5 5.25 8.5 4c0-.55-.45-1-1-1H4c-.55 0-1 .45-1 1 0 9.39 7.61 17 17 17 .55 0 1-.45 1-1v-3.5c0-.55-.45-1-1-1z" fill-opacity=".7" fill="#000"/></g></svg><svg width="30" height="30" viewBox="0 0 30 30" id="pole_icon" x="76" y="30"><title>Btn Compare</title><defs><linearGradient x1="50%" y1="0%" x2="50%" y2="100%" id="bvb"><stop stop-color="#FAF9FA" offset="0%"/><stop stop-color="#EEE" offset="100%"/></linearGradient><linearGradient x1="50%" y1="0%" x2="50%" y2="100%" id="bva"><stop stop-color="#D8D8D8" offset="0%"/><stop stop-color="#C1C1C1" offset="100%"/></linearGradient></defs><g fill="none" fill-rule="evenodd"><rect stroke="url(#bva)" fill="url(#bvb)" width="30" height="30" rx="3"/><path d="M18 22.626c0 .206-.162.374-.362.374h-5.276c-.2 0-.362-.168-.362-.374v-7.252c0-.206.162-.374.362-.374h5.276c.2 0 .362.168.362.374v7.252zm-6 0c0 .207-.162.374-.362.374H6.362c-.2 0-.362-.167-.362-.374V11.374c0-.207.162-.374.362-.374h5.276c.2 0 .362.167.362.374v11.252zm12 .012c0 .2-.162.362-.362.362h-5.276c-.2 0-.362-.162-.362-.362V7.362c0-.2.162-.362.362-.362h5.276c.2 0 .362.162.362.362v15.276z" stroke="#A0A0A0" stroke-width="2"/></g></svg><svg width="20" height="18" viewBox="0 0 20 18" id="pole_icon-sel" y="139"><title>Stroke 4 + Stroke 9 Copy</title><path d="M13 16.626c0 .206-.162.374-.362.374H7.362c-.2 0-.362-.168-.362-.374V9.374C7 9.168 7.162 9 7.362 9h5.276c.2 0 .362.168.362.374v7.252zm-6 0c0 .207-.162.374-.362.374H1.362c-.2 0-.362-.167-.362-.374V5.374C1 5.167 1.162 5 1.362 5h5.276c.2 0 .362.167.362.374v11.252zm12 .012c0 .2-.162.362-.362.362h-5.276c-.2 0-.362-.162-.362-.362V1.362c0-.2.162-.362.362-.362h5.276c.2 0 .362.162.362.362v15.276z" stroke-width="2" stroke="#3C3C39" fill="none" fill-rule="evenodd"/></svg><svg width="20" height="18" viewBox="0 0 20 18" id="pole_link" x="20" y="139"><title>Stroke 4 + Stroke 9 Copy</title><path d="M13 16.626c0 .206-.162.374-.362.374H7.362c-.2 0-.362-.168-.362-.374V9.374C7 9.168 7.162 9 7.362 9h5.276c.2 0 .362.168.362.374v7.252zm-6 0c0 .207-.162.374-.362.374H1.362c-.2 0-.362-.167-.362-.374V5.374C1 5.167 1.162 5 1.362 5h5.276c.2 0 .362.167.362.374v11.252zm12 .012c0 .2-.162.362-.362.362h-5.276c-.2 0-.362-.162-.362-.362V1.362c0-.2.162-.362.362-.362h5.276c.2 0 .362.162.362.362v15.276z" stroke="#A0A0A0" stroke-width="2" fill="none" fill-rule="evenodd"/></svg><svg width="30" height="30" viewBox="0 0 30 30" id="pole_link-sel" x="76"><title>Btn Compare</title><defs><linearGradient x1="50%" y1="0%" x2="50%" y2="100%" id="bya"><stop stop-color="#FAF9FA" offset="0%"/><stop stop-color="#EEE" offset="100%"/></linearGradient></defs><g fill="none" fill-rule="evenodd"><rect stroke="#D2D2D2" fill="url(#bya)" width="30" height="30" rx="3"/><path d="M18 22.626c0 .206-.162.374-.362.374h-5.276c-.2 0-.362-.168-.362-.374v-7.252c0-.206.162-.374.362-.374h5.276c.2 0 .362.168.362.374v7.252zm-6 0c0 .207-.162.374-.362.374H6.362c-.2 0-.362-.167-.362-.374V11.374c0-.207.162-.374.362-.374h5.276c.2 0 .362.167.362.374v11.252zm12 .012c0 .2-.162.362-.362.362h-5.276c-.2 0-.362-.162-.362-.362V7.362c0-.2.162-.362.362-.362h5.276c.2 0 .362.162.362.362v15.276z" stroke="#3C3C39" stroke-width="2"/></g></svg><svg width="14" height="14" viewBox="0 0 14 14" id="popup_close_dark" x="59" y="115"><title>close</title><path d="M14 1.4L12.6 0 7 5.6 1.4 0 0 1.4 5.6 7 0 12.6 1.4 14 7 8.4l5.6 5.6 1.4-1.4L8.4 7 14 1.4z" fill="#FFCD00" fill-rule="evenodd"/></svg><svg width="18" height="18" viewBox="0 0 18 18" id="search" x="58" y="139"><title>search copy</title><path d="M12.5 11h-.8l-.3-.3c1-1.1 1.6-2.6 1.6-4.2C13 2.9 10.1 0 6.5 0S0 2.9 0 6.5 2.9 13 6.5 13c1.6 0 3.1-.6 4.2-1.6l.3.3v.8l5 5 1.5-1.5-5-5zm-6 0C4 11 2 9 2 6.5S4 2 6.5 2 11 4 11 6.5 9 11 6.5 11z" fill="#000" fill-rule="evenodd"/></svg><svg width="18" height="18" viewBox="0 0 18 18" id="search_icon" x="76" y="139"><title>search copy 2</title><path d="M12.5 11h-.8l-.3-.3c1-1.1 1.6-2.6 1.6-4.2C13 2.9 10.1 0 6.5 0S0 2.9 0 6.5 2.9 13 6.5 13c1.6 0 3.1-.6 4.2-1.6l.3.3v.8l5 5 1.5-1.5-5-5zm-6 0C4 11 2 9 2 6.5S4 2 6.5 2 11 4 11 6.5 9 11 6.5 11z" fill="#3C3C39" fill-rule="evenodd"/></svg><svg width="9" height="17" viewBox="0 0 9 17" id="select_triangles" x="141" y="139"><title>Triangles</title><defs><filter x="-50%" y="-50%" width="200%" height="200%" filterUnits="objectBoundingBox" id="cca"><feOffset dy="1" in="SourceAlpha" result="shadowOffsetOuter1"/><feGaussianBlur in="shadowOffsetOuter1" result="shadowBlurOuter1"/><feColorMatrix values="0 0 0 0 1 0 0 0 0 0.999936521 0 0 0 0 1 0 0 0 0.7 0" in="shadowBlurOuter1" result="shadowMatrixOuter1"/><feMerge><feMergeNode in="shadowMatrixOuter1"/><feMergeNode in="SourceGraphic"/></feMerge></filter><filter x="-50%" y="-50%" width="200%" height="200%" filterUnits="objectBoundingBox" id="ccb"><feOffset dy="1" in="SourceAlpha" result="shadowOffsetOuter1"/><feGaussianBlur in="shadowOffsetOuter1" result="shadowBlurOuter1"/><feColorMatrix values="0 0 0 0 1 0 0 0 0 0.999936521 0 0 0 0 1 0 0 0 0.7 0" in="shadowBlurOuter1" result="shadowMatrixOuter1"/><feMerge><feMergeNode in="shadowMatrixOuter1"/><feMergeNode in="SourceGraphic"/></feMerge></filter></defs><g transform="translate(0 .405)" fill="#4A4A4A" fill-rule="evenodd"><path d="M4.5 15.135l4.5-4.73H0l4.5 4.73z" id="ccTriangle" filter="url(#cca)"/><path d="M4.5 0L9 4.73H0L4.5 0z" filter="url(#ccb)"/></g></svg><svg width="16" height="17" viewBox="0 0 16 17" id="setup_icon" x="125" y="139"><title>repair</title><g fill="#FFCD00" fill-rule="evenodd"><path d="M6.12 12.992c-.01-.18.05-.362.175-.503 1.608-1.65 3.928-4.02 5.536-5.666.14-.128.317-.19.492-.18.9.13 1.85-.162 2.54-.87.615-.63.906-1.47.876-2.29 0-.004-.128-.14-.33-.348L13.68 4.91l-1.75-.48-.47-1.794 1.737-1.78c-.195-.2-.32-.328-.323-.328-.81-.037-1.634.262-2.254.896-.692.71-.975 1.68-.85 2.604.01.18-.05.36-.176.502-1.61 1.65-3.924 4.016-5.535 5.666-.138.128-.316.188-.49.18-.902-.13-1.85.16-2.542.87-.62.635-.91 1.478-.874 2.31 0 .002.126.132.322.334L2.2 12.12l1.75.48.47 1.794-1.72 1.764c.268.323.33.334.335.334.805.03 1.62-.268 2.235-.898.692-.71.975-1.68.85-2.602M3.757 5.19l-.975-.405c-.152-.074-.35-.255-.44-.4l-.993-1.593c-.09-.146.024-.292.155-.427l.513-.526c.132-.135.275-.253.416-.16L3.99 2.697c.142.092.318.296.39.45l.394 1c.072.157.025.395-.107.53l-.393.403c-.13.134-.364.183-.517.11z"/><path d="M8.704 8.216l-.975 1-4.094-4.194.974-1 4.094 4.194"/><path d="M14.898 12.752l-4.105-4.206c-.723-.74-2.34-.588-2.34-.588l-.975 1s-.15 1.656.572 2.397l4.106 4.207c.866.887 1.733 0 1.733 0l1.01-1.034s.865-.888-.002-1.776zm-1.995 2.06l-4.05-4.15.205-.21 4.05 4.15-.205.21zm1.052-1.09L9.91 9.58l.207-.212 4.045 4.143-.207.213z"/></g></svg><svg width="14" height="20" viewBox="0 0 14 20" id="shop_add_icon" x="158" y="60"><title>place</title><path d="M7 0C3.1 0 0 3.1 0 7c0 5.2 7 13 7 13s7-7.8 7-13c0-3.9-3.1-7-7-7zm0 9.5C5.6 9.5 4.5 8.4 4.5 7S5.6 4.5 7 4.5 9.5 5.6 9.5 7 8.4 9.5 7 9.5z" fill="#999B9B" fill-rule="evenodd"/></svg><svg width="41" height="26" viewBox="0 0 41 26" id="shops_icon"><title>Fill 6 + Fill 24</title><g fill="#F6A623" fill-rule="evenodd"><path d="M28.642 23H38V3H3v20h9.787V11.578c0-.88.713-1.594 1.59-1.594h12.69c.42 0 .826.168 1.124.468.3.3.466.705.466 1.128L28.642 23zm10.038 3H26.993c-.42 0-.82-.166-1.115-.46-.296-.296-.46-.696-.46-1.113l.013-11.258h-9.424v11.26c0 .867-.705 1.57-1.576 1.57H2.32C1.04 26 0 24.957 0 23.675V2.325C0 1.043 1.04 0 2.32 0h36.36C39.96 0 41 1.043 41 2.325v21.35C41 24.957 39.96 26 38.68 26z"/><path d="M25.452 8h-8.904C15.693 8 15 7.328 15 6.5S15.693 5 16.548 5h8.904C26.307 5 27 5.672 27 6.5S26.307 8 25.452 8"/></g></svg><svg width="15" height="12" viewBox="0 0 15 12" id="small_ok" x="102" y="91"><title>Rectangle 34</title><path d="M5 12L0 7l2-2 3 3 8-8 2 2L5 12z" fill="#FFCD00" fill-rule="evenodd"/></svg><svg width="23" height="15" viewBox="0 0 23 15" id="store" x="134" y="96"><title>Store</title><g fill="#3C3C39" fill-rule="evenodd"><path d="M15.92 13H21V2H2v11h5.313V6.718c0-.484.387-.877.863-.877h6.89c.228 0 .447.094.61.26.16.163.252.386.25.62L15.92 13zm5.778 2h-6.556c-.234 0-.46-.096-.625-.266-.166-.17-.26-.4-.26-.642l.01-6.494H8.98v6.496c0 .5-.397.906-.885.906H1.302C.584 15 0 14.398 0 13.66V1.34C0 .603.584 0 1.302 0h20.396C22.416 0 23 .602 23 1.34v12.32c0 .738-.584 1.34-1.302 1.34z"/><path d="M13.226 5H8.774C8.347 5 8 4.552 8 4s.347-1 .774-1h4.452c.427 0 .774.448.774 1s-.347 1-.774 1"/></g></svg><svg width="14" height="18" viewBox="0 0 14 18" id="trash" x="94" y="139"><title>ic_delete</title><g transform="translate(-5 -3)" fill="none" fill-rule="evenodd"><path d="M0 0h24v24H0V0z" fill="none"/><path d="M6 19c0 1.1.9 2 2 2h8c1.1 0 2-.9 2-2V7H6v12zM19 4h-3.5l-1-1h-5l-1 1H5v2h14V4z" fill="#3C3C39"/></g></svg></svg>