<?xml version="1.0" encoding="utf-8"?>
<!-- Generator: Adobe Illustrator 14.0.0, SVG Export Plug-In . SVG Version: 6.00 Build 43363)  -->
<!DOCTYPE svg PUBLIC "-//W3C//DTD SVG 1.1//EN" "http://www.w3.org/Graphics/SVG/1.1/DTD/svg11.dtd">
<svg version="1.1" id="Layer_1" xmlns="http://www.w3.org/2000/svg" xmlns:xlink="http://www.w3.org/1999/xlink" x="0px" y="0px"
	 width="1046.753px" height="618.427px" viewBox="0 0 1046.753 618.427" enable-background="new 0 0 1046.753 618.427"
	 xml:space="preserve">
<g>
	<path fill="#F599A0" d="M774.912,142.245L774.912,142.245h-71.748c-1.732-1.714-3.611-3.444-5.672-5.191
		c-8.716-7.388-17.326-12.497-17.689-12.711c-1.111-0.656-2.355-0.984-3.6-0.984c-1.246,0-2.49,0.328-3.602,0.984
		c-0.362,0.214-8.974,5.324-17.688,12.711c-2.063,1.747-3.941,3.477-5.673,5.191H577.02c-55.511,0-90.184,53.96-95.281,68.871
		l20.236,30.353h54.809l20.236-30.353l0.98,95.281l-30.053-30.052h-34.232l-30.053,30.052l0,0H287.73l-30.053-30.052h-34.232
		l-30.052,30.052v94.337l30.052,30.052h34.232l30.053-30.052v94.336h195.932v-94.336l30.053,30.052h34.232l30.052-30.052
		l30.052,30.052h135.828l30.053-30.052l30.053-10.018v-74.302l-30.053-10.018l0.979-95.281l20.235,30.353h54.811l20.234-30.353
		h0.001C865.095,196.205,830.422,142.245,774.912,142.245z M729.827,258.755c0,16.863-24.114,30.532-53.861,30.532
		s-53.862-13.669-53.862-30.532c0-16.862,24.115-30.532,53.862-30.532S729.827,241.893,729.827,258.755z M406.684,256.564
		c0-8.375,6.012-12.704,13.111-12.491c7.1,0.213,15.288,4.97,19.64,14.765c0.234,0.526,1.101,0.526,1.334,0
		c4.354-9.8,12.548-14.556,19.65-14.766c7.095-0.208,13.101,4.12,13.101,12.492c0,17.2-33.418,36.929-33.418,36.929
		S406.684,273.764,406.684,256.564z"/>
	<path fill="none" stroke="#231F20" d="M503.147,211.115h-11.763 M512.793,211.115h11.764 M534.202,211.115h11.763 M555.61,211.115
		h11.763 M577.02,191.156v10.967 M577.02,171.196v10.967 M577.02,151.237v10.966 M774.911,202.123v-10.967 M774.911,171.196v10.967
		 M774.911,162.204v-10.966 M784.557,211.115h11.764 M805.966,211.115h11.763 M827.375,211.115h11.763 M848.783,211.115h11.764
		 M597.959,211.115h-11.506 M618.898,211.115h-11.505 M639.838,211.115h-11.505 M660.777,211.115h-11.505 M681.718,211.115h-11.505
		 M702.658,211.115h-11.506 M723.598,211.115h-11.506 M744.537,211.115h-11.506 M765.477,211.115h-11.506 M587.341,306.396h11.392
		 M608.072,306.396h11.393 M628.805,306.396h11.393 M649.537,306.396h11.393 M670.27,306.396h11.392 M691.002,306.396h11.392
		 M711.734,306.396h11.392 M732.467,306.396h11.392 M753.199,306.396h11.391 M773.932,315.946v11.646 M773.932,348.79v-11.646
		 M773.932,369.986v-11.647 M773.932,379.537v11.646 M587.34,400.733h11.392 M608.072,400.733h11.392 M628.805,400.733h11.392
		 M649.537,400.733h11.392 M670.27,400.733h11.392 M691.002,400.733h11.391 M711.734,400.733h11.391 M732.467,400.733h11.391
		 M753.199,400.733h11.391 M577.999,391.183v-11.646 M578,369.986v-11.647 M578,348.79v-11.646 M578,315.946v11.646
		 M504.859,306.396h-11.647 M526.057,306.396h-11.647 M547.252,306.396h-11.646 M568.449,306.396h-11.646 M556.803,400.733h11.646
		 M535.605,400.733h11.646 M526.055,400.734h-11.646 M504.859,400.734h-11.646 M483.662,391.184v-11.647 M483.662,358.34v11.647
		 M483.662,348.79v-11.646 M483.662,327.593v-11.646 M214.589,306.396h-11.646 M235.786,306.396H224.14 M256.983,306.396h-11.647
		 M278.179,306.396h-11.646 M202.943,400.733h11.646 M224.14,400.733h11.646 M245.336,400.733h11.647 M266.533,400.733h11.646
		 M287.73,391.183v-11.646 M287.73,369.986v-11.647 M287.73,348.79v-11.646 M287.73,327.592v-11.646 M297.071,400.733h11.392
		 M317.803,400.733h11.392 M338.536,400.733h11.392 M359.268,400.733h11.392 M391.392,400.734l-11.391,0 M412.124,400.734h-11.392
		 M432.856,400.734h-11.392 M453.589,400.734h-11.392 M474.321,400.734H462.93"/>
</g>
</svg>
